<?xml version="1.0" encoding="utf-8"?>
<!-- Generator: Adobe Illustrator 28.1.0, SVG Export Plug-In . SVG Version: 6.00 Build 0)  -->
<svg version="1.1" id="Layer_1" xmlns="http://www.w3.org/2000/svg" xmlns:xlink="http://www.w3.org/1999/xlink" x="0px" y="0px"
	 viewBox="0 0 720 212" style="enable-background:new 0 0 720 212;" xml:space="preserve">
<style type="text/css">
	.st0{fill:#E60046;}
	.st1{fill:#FFFFFF;}
</style>
<polygon class="st0" points="183.36,184.05 183.36,181.93 195.21,181.93 195.21,184.05 190.39,184.05 190.39,203.57 188.18,203.57 
	188.18,184.05 "/>
<path class="st0" d="M197.99,181.39h2.06v9.04c0.83-1.1,1.75-1.92,2.75-2.46c1-0.54,2.09-0.81,3.25-0.81c1.19,0,2.26,0.3,3.18,0.91
	c0.93,0.61,1.61,1.42,2.05,2.45c0.44,1.02,0.66,2.63,0.66,4.82v8.24h-2.06v-7.63c0-1.84-0.07-3.07-0.22-3.69
	c-0.25-1.06-0.72-1.86-1.39-2.39s-1.55-0.8-2.64-0.8c-1.25,0-2.36,0.41-3.35,1.23c-0.99,0.82-1.64,1.84-1.95,3.06
	c-0.2,0.79-0.29,2.24-0.29,4.36v5.87h-2.06L197.99,181.39L197.99,181.39z"/>
<path class="st0" d="M229.84,198.26l1.74,0.91c-0.57,1.12-1.23,2.02-1.97,2.71c-0.75,0.69-1.58,1.21-2.52,1.57
	c-0.93,0.36-1.99,0.54-3.16,0.54c-2.61,0-4.65-0.86-6.13-2.57c-1.47-1.71-2.21-3.65-2.21-5.8c0-2.03,0.62-3.84,1.87-5.43
	c1.58-2.02,3.7-3.03,6.34-3.03c2.73,0,4.91,1.04,6.54,3.1c1.16,1.46,1.75,3.28,1.77,5.47h-14.4c0.04,1.86,0.63,3.38,1.78,4.57
	s2.57,1.78,4.26,1.78c0.81,0,1.61-0.14,2.38-0.42s1.43-0.66,1.97-1.13C228.62,200.06,229.21,199.3,229.84,198.26L229.84,198.26z
	 M229.84,193.95c-0.27-1.1-0.67-1.98-1.2-2.63c-0.53-0.66-1.22-1.19-2.09-1.59c-0.86-0.4-1.77-0.6-2.72-0.6
	c-1.57,0-2.92,0.51-4.05,1.52c-0.83,0.73-1.45,1.84-1.87,3.31L229.84,193.95L229.84,193.95z"/>
<path class="st0" d="M244.28,187.57h2.06v2.87c0.82-1.1,1.74-1.92,2.74-2.46c1-0.54,2.09-0.82,3.26-0.82c1.19,0,2.26,0.3,3.18,0.91
	c0.93,0.61,1.61,1.43,2.05,2.46c0.44,1.03,0.66,2.63,0.66,4.81v8.24h-2.06v-7.63c0-1.84-0.08-3.07-0.23-3.69
	c-0.24-1.06-0.7-1.86-1.37-2.39c-0.68-0.53-1.56-0.8-2.65-0.8c-1.25,0-2.36,0.41-3.35,1.23c-0.98,0.83-1.63,1.84-1.95,3.06
	c-0.2,0.79-0.29,2.24-0.29,4.35v5.87h-2.06L244.28,187.57L244.28,187.57z"/>
<path class="st0" d="M276.13,198.26l1.74,0.91c-0.57,1.12-1.23,2.02-1.97,2.71s-1.58,1.21-2.52,1.57c-0.93,0.36-1.99,0.54-3.16,0.54
	c-2.61,0-4.65-0.86-6.13-2.57c-1.47-1.71-2.21-3.65-2.21-5.8c0-2.03,0.62-3.84,1.87-5.43c1.58-2.02,3.7-3.03,6.34-3.03
	c2.73,0,4.91,1.04,6.54,3.1c1.16,1.46,1.75,3.28,1.77,5.47H264c0.04,1.86,0.63,3.38,1.78,4.57s2.57,1.78,4.26,1.78
	c0.81,0,1.61-0.14,2.38-0.42c0.77-0.28,1.43-0.66,1.97-1.13C274.91,200.06,275.5,199.3,276.13,198.26L276.13,198.26z M276.13,193.95
	c-0.27-1.1-0.67-1.98-1.2-2.63c-0.53-0.66-1.22-1.19-2.09-1.59c-0.86-0.4-1.77-0.6-2.72-0.6c-1.57,0-2.92,0.51-4.05,1.52
	c-0.83,0.73-1.45,1.84-1.87,3.31L276.13,193.95L276.13,193.95z"/>
<polygon class="st0" points="280.41,187.57 282.88,187.57 287.13,193.42 291.34,187.57 293.82,187.57 288.37,195.12 294.51,203.57 
	292,203.57 287.13,196.85 282.29,203.57 279.83,203.57 285.89,195.14 "/>
<polygon class="st0" points="298.48,181.62 300.54,181.62 300.54,187.57 303.81,187.57 303.81,189.34 300.54,189.34 300.54,203.57 
	298.48,203.57 298.48,189.34 295.67,189.34 295.67,187.57 298.48,187.57 "/>
<path class="st0" d="M315.37,203.57v-22.18h2.06v8.93c0.86-1.06,1.83-1.85,2.89-2.38c1.07-0.53,2.24-0.79,3.51-0.79
	c2.26,0,4.19,0.82,5.8,2.46c1.6,1.64,2.4,3.64,2.4,5.98c0,2.31-0.81,4.29-2.42,5.93c-1.62,1.64-3.56,2.46-5.83,2.46
	c-1.3,0-2.48-0.28-3.54-0.84s-1.99-1.4-2.81-2.52v2.94L315.37,203.57L315.37,203.57z M323.6,201.99c1.15,0,2.2-0.28,3.17-0.84
	s1.74-1.36,2.31-2.38s0.86-2.1,0.86-3.24s-0.29-2.22-0.86-3.25c-0.58-1.03-1.35-1.83-2.33-2.41c-0.97-0.57-2.01-0.86-3.12-0.86
	c-1.13,0-2.19,0.29-3.21,0.86c-1.01,0.57-1.79,1.35-2.33,2.32c-0.54,0.97-0.81,2.06-0.81,3.28c0,1.85,0.61,3.4,1.83,4.65
	C320.32,201.37,321.83,201.99,323.6,201.99L323.6,201.99z"/>
<path class="st0" d="M336.5,180.98c0.47,0,0.87,0.17,1.2,0.5c0.33,0.34,0.5,0.74,0.5,1.21c0,0.46-0.17,0.86-0.5,1.19
	s-0.73,0.5-1.2,0.5c-0.46,0-0.86-0.17-1.19-0.5c-0.33-0.33-0.5-0.73-0.5-1.19c0-0.47,0.17-0.87,0.5-1.21
	C335.64,181.14,336.04,180.98,336.5,180.98L336.5,180.98z M335.47,187.57h2.06v16h-2.06V187.57z"/>
<path class="st0" d="M355.61,187.56h2.06v12.75c0,2.24-0.2,3.89-0.59,4.93c-0.54,1.47-1.47,2.6-2.81,3.4
	c-1.33,0.79-2.94,1.19-4.81,1.19c-1.37,0-2.61-0.19-3.7-0.58c-1.1-0.39-1.98-0.91-2.67-1.56s-1.32-1.61-1.9-2.87h2.24
	c0.61,1.06,1.39,1.84,2.36,2.35c0.96,0.51,2.15,0.77,3.58,0.77c1.41,0,2.59-0.26,3.56-0.78s1.66-1.18,2.07-1.97
	c0.41-0.79,0.62-2.07,0.62-3.83v-0.83c-0.78,0.98-1.72,1.73-2.84,2.26s-2.31,0.79-3.56,0.79c-1.47,0-2.86-0.37-4.15-1.1
	c-1.3-0.73-2.3-1.71-3-2.95c-0.71-1.24-1.06-2.59-1.06-4.07c0-1.48,0.37-2.86,1.1-4.14c0.74-1.28,1.76-2.29,3.06-3.04
	c1.3-0.74,2.67-1.12,4.12-1.12c1.2,0,2.31,0.25,3.35,0.74c1.04,0.5,2.03,1.31,3,2.45v-2.79H355.61z M349.54,189.14
	c-1.17,0-2.25,0.28-3.25,0.84s-1.78,1.35-2.35,2.34c-0.57,1-0.85,2.07-0.85,3.23c0,1.76,0.59,3.21,1.77,4.35
	c1.18,1.15,2.7,1.72,4.57,1.72c1.89,0,3.41-0.57,4.57-1.71c1.15-1.14,1.73-2.63,1.73-4.49c0-1.21-0.26-2.28-0.79-3.23
	s-1.28-1.69-2.25-2.24C351.7,189.41,350.65,189.14,349.54,189.14L349.54,189.14z"/>
<path class="st0" d="M371.14,180.98c0.47,0,0.87,0.17,1.2,0.5c0.33,0.34,0.5,0.74,0.5,1.21c0,0.46-0.17,0.86-0.5,1.19
	s-0.73,0.5-1.2,0.5c-0.46,0-0.85-0.17-1.19-0.5c-0.33-0.33-0.5-0.73-0.5-1.19c0-0.47,0.17-0.87,0.5-1.21
	C370.28,181.14,370.68,180.98,371.14,180.98L371.14,180.98z M370.11,187.57h2.06v16h-2.06V187.57z"/>
<path class="st0" d="M392.43,181.39v22.18h-2.03v-2.75c-0.86,1.05-1.83,1.84-2.9,2.37s-2.25,0.79-3.52,0.79
	c-2.26,0-4.2-0.82-5.8-2.46c-1.6-1.64-2.4-3.64-2.4-5.99c0-2.3,0.81-4.28,2.43-5.91c1.62-1.64,3.56-2.46,5.84-2.46
	c1.31,0,2.5,0.28,3.57,0.84c1.06,0.56,2,1.4,2.8,2.51v-9.12L392.43,181.39L392.43,181.39z M384.2,189.14c-1.15,0-2.2,0.28-3.17,0.84
	s-1.74,1.35-2.31,2.37c-0.57,1.02-0.86,2.1-0.86,3.23c0,1.13,0.29,2.2,0.87,3.23s1.35,1.83,2.33,2.4c0.98,0.57,2.02,0.86,3.14,0.86
	c1.13,0,2.19-0.28,3.2-0.85s1.78-1.34,2.33-2.31c0.54-0.97,0.81-2.06,0.81-3.27c0-1.85-0.61-3.4-1.83-4.64
	C387.48,189.76,385.98,189.14,384.2,189.14L384.2,189.14z"/>
<path class="st0" d="M410.56,198.26l1.74,0.91c-0.57,1.12-1.23,2.02-1.97,2.71c-0.75,0.69-1.58,1.21-2.52,1.57
	c-0.93,0.36-1.99,0.54-3.17,0.54c-2.61,0-4.65-0.86-6.13-2.57c-1.47-1.71-2.21-3.65-2.21-5.8c0-2.03,0.62-3.84,1.87-5.43
	c1.58-2.02,3.7-3.03,6.34-3.03c2.73,0,4.91,1.04,6.54,3.1c1.16,1.46,1.75,3.28,1.77,5.47h-14.4c0.04,1.86,0.63,3.38,1.78,4.57
	s2.57,1.78,4.26,1.78c0.81,0,1.61-0.14,2.38-0.42c0.77-0.28,1.43-0.66,1.97-1.13C409.35,200.06,409.93,199.3,410.56,198.26
	L410.56,198.26z M410.56,193.95c-0.27-1.1-0.67-1.98-1.2-2.63c-0.53-0.66-1.22-1.19-2.09-1.59c-0.86-0.4-1.77-0.6-2.72-0.6
	c-1.57,0-2.92,0.51-4.05,1.52c-0.83,0.73-1.45,1.84-1.87,3.31L410.56,193.95L410.56,193.95z"/>
<path class="st0" d="M432.61,187.56v16h-2.03v-2.75c-0.86,1.05-1.83,1.84-2.91,2.37c-1.07,0.53-2.25,0.79-3.52,0.79
	c-2.26,0-4.2-0.82-5.8-2.46c-1.6-1.64-2.4-3.64-2.4-5.99c0-2.3,0.81-4.28,2.43-5.91c1.62-1.64,3.56-2.46,5.84-2.46
	c1.31,0,2.5,0.28,3.57,0.84c1.06,0.56,2,1.4,2.8,2.51v-2.94L432.61,187.56L432.61,187.56z M424.38,189.14
	c-1.15,0-2.2,0.28-3.17,0.84s-1.74,1.35-2.31,2.37c-0.57,1.02-0.86,2.1-0.86,3.23c0,1.13,0.29,2.2,0.87,3.23s1.35,1.83,2.33,2.4
	c0.98,0.57,2.02,0.86,3.14,0.86c1.13,0,2.19-0.28,3.2-0.85s1.78-1.34,2.33-2.31c0.54-0.97,0.82-2.06,0.82-3.27
	c0-1.85-0.61-3.4-1.83-4.64C427.67,189.76,426.16,189.14,424.38,189.14L424.38,189.14z"/>
<path class="st0" d="M446.3,180.98c0.47,0,0.87,0.17,1.2,0.5c0.33,0.34,0.5,0.74,0.5,1.21c0,0.46-0.16,0.86-0.5,1.19
	c-0.33,0.33-0.73,0.5-1.2,0.5c-0.46,0-0.85-0.17-1.19-0.5c-0.33-0.33-0.5-0.73-0.5-1.19c0-0.47,0.17-0.87,0.5-1.21
	C445.44,181.14,445.84,180.98,446.3,180.98L446.3,180.98z M445.28,187.57h2.06v16h-2.06V187.57z"/>
<path class="st0" d="M459.66,189.32l-1.32,1.37c-1.1-1.07-2.18-1.6-3.23-1.6c-0.67,0-1.24,0.22-1.72,0.66s-0.72,0.96-0.72,1.54
	c0,0.52,0.2,1.02,0.59,1.49c0.39,0.48,1.22,1.04,2.48,1.69c1.53,0.79,2.57,1.56,3.13,2.29c0.54,0.75,0.81,1.58,0.81,2.52
	c0,1.31-0.46,2.43-1.39,3.34c-0.92,0.91-2.08,1.37-3.46,1.37c-0.92,0-1.8-0.2-2.64-0.6c-0.84-0.4-1.54-0.96-2.09-1.66l1.29-1.47
	c1.05,1.19,2.17,1.78,3.35,1.78c0.83,0,1.53-0.26,2.11-0.79s0.87-1.15,0.87-1.87c0-0.59-0.19-1.11-0.57-1.57
	c-0.38-0.45-1.25-1.02-2.59-1.71c-1.44-0.75-2.43-1.48-2.95-2.2c-0.52-0.73-0.78-1.56-0.78-2.49c0-1.22,0.41-2.23,1.24-3.03
	c0.83-0.81,1.88-1.21,3.15-1.21C456.68,187.15,458.17,187.87,459.66,189.32L459.66,189.32z"/>
<polygon class="st0" points="469.93,187.57 472.1,187.57 477.6,199.89 482.94,187.57 485.14,187.57 475.59,209.42 473.42,209.42 
	476.5,202.36 "/>
<path class="st0" d="M495.37,187.15c2.46,0,4.51,0.89,6.13,2.68c1.47,1.63,2.21,3.55,2.21,5.78c0,2.24-0.78,4.19-2.34,5.86
	s-3.56,2.51-6,2.51c-2.46,0-4.46-0.84-6.02-2.51s-2.34-3.62-2.34-5.86c0-2.22,0.74-4.14,2.21-5.77
	C490.85,188.05,492.9,187.15,495.37,187.15L495.37,187.15z M495.37,189.17c-1.71,0-3.18,0.63-4.42,1.9
	c-1.23,1.27-1.84,2.79-1.84,4.59c0,1.16,0.28,2.24,0.84,3.24s1.32,1.77,2.27,2.32c0.95,0.54,2,0.82,3.14,0.82s2.19-0.27,3.14-0.82
	c0.96-0.54,1.71-1.32,2.27-2.32s0.84-2.08,0.84-3.24c0-1.8-0.62-3.32-1.85-4.59C498.54,189.8,497.07,189.17,495.37,189.17
	L495.37,189.17z"/>
<path class="st0" d="M507.26,187.57h2.06v7.47c0,1.82,0.1,3.08,0.3,3.76c0.29,0.98,0.86,1.76,1.69,2.32
	c0.83,0.57,1.82,0.85,2.97,0.85s2.13-0.28,2.93-0.83s1.35-1.28,1.66-2.18c0.2-0.62,0.31-1.93,0.31-3.93v-7.47h2.11v7.86
	c0,2.2-0.26,3.87-0.77,4.98c-0.52,1.12-1.29,1.99-2.32,2.63c-1.04,0.63-2.33,0.95-3.89,0.95s-2.86-0.32-3.91-0.95
	c-1.04-0.63-1.82-1.52-2.34-2.65c-0.51-1.13-0.77-2.84-0.77-5.11v-7.7L507.26,187.57L507.26,187.57z"/>
<path class="st0" d="M525.05,187.57h2.1v2.34c0.63-0.92,1.29-1.61,1.99-2.07s1.42-0.68,2.18-0.68c0.57,0,1.18,0.18,1.82,0.54
	l-1.07,1.74c-0.43-0.19-0.79-0.28-1.09-0.28c-0.69,0-1.35,0.28-1.99,0.84s-1.12,1.44-1.46,2.63c-0.26,0.91-0.38,2.76-0.38,5.53v5.41
	h-2.1L525.05,187.57L525.05,187.57z"/>
<path class="st0" d="M542.94,189.32l-1.32,1.37c-1.1-1.07-2.18-1.6-3.23-1.6c-0.67,0-1.24,0.22-1.72,0.66s-0.72,0.96-0.72,1.54
	c0,0.52,0.2,1.02,0.59,1.49c0.39,0.48,1.22,1.04,2.48,1.69c1.53,0.79,2.57,1.56,3.13,2.29c0.54,0.75,0.81,1.58,0.81,2.52
	c0,1.31-0.46,2.43-1.39,3.34c-0.92,0.91-2.08,1.37-3.46,1.37c-0.92,0-1.8-0.2-2.64-0.6c-0.84-0.4-1.54-0.96-2.09-1.66l1.29-1.47
	c1.05,1.19,2.17,1.78,3.35,1.78c0.83,0,1.53-0.26,2.11-0.79c0.58-0.53,0.87-1.15,0.87-1.87c0-0.59-0.19-1.11-0.57-1.57
	c-0.38-0.45-1.25-1.02-2.59-1.71c-1.44-0.75-2.43-1.48-2.95-2.2c-0.52-0.73-0.78-1.56-0.78-2.49c0-1.22,0.42-2.23,1.25-3.03
	c0.83-0.81,1.88-1.21,3.15-1.21C539.96,187.15,541.45,187.87,542.94,189.32L542.94,189.32z"/>
<path class="st0" d="M698.53,139.01V90.59h10.11v12.71h9.43v8.86h-9.43v24.36c0,3.18,1.54,5.49,4.43,5.49
	c1.93,0,3.76-0.77,4.53-1.64l2.41,7.6c-1.83,1.73-4.81,2.98-9.53,2.98C702.67,150.95,698.53,146.72,698.53,139.01L698.53,139.01z"/>
<path class="st0" d="M655.25,149.8h-11.26l17.04-23.88l-16.08-22.62h11.36l17.33,22.62L655.25,149.8z M678.17,119.54l11.54-16.24
	h-11.36l-6,8.64L678.17,119.54z M678.18,132.26l-5.8,7.53l7.03,10.01h11.36L678.18,132.26z"/>
<path class="st0" d="M594.68,126.5c0-13.48,9.82-24.36,23.59-24.36c13.96,0,22.91,10.69,22.91,25.32v2.41h-35.91
	c0.77,7.03,6.07,12.81,14.83,12.81c4.52,0,9.92-1.83,13.19-5.1l4.62,6.64c-4.62,4.43-11.45,6.74-18.87,6.74
	C605.08,150.95,594.68,141.23,594.68,126.5L594.68,126.5z M618.27,110.42c-8.66,0-12.61,6.64-13.09,12.32h26.19
	C631.17,117.26,627.41,110.42,618.27,110.42L618.27,110.42z"/>
<path class="st0" d="M583.98,85.58v64.22H573.1l-44.77-61.11v-3.1h11.55l32.83,44.58V85.58H583.98z M528.33,103.68v46.11h11.27
	v-30.7L528.33,103.68z"/>
<path class="st0" d="M465.9,143.63l2.98-3.76c2.98,3.76,8.47,6.84,15.02,6.84c7.8,0,12.42-4.04,12.42-9.43
	c0-12.71-29.36-5.58-29.36-22.24c0-7.12,6.07-12.9,16.56-12.9c7.99,0,13.29,3.08,16.66,6.84l-2.79,3.56
	c-2.7-3.66-7.7-6.16-13.86-6.16c-7.22,0-11.65,3.66-11.65,8.47c0,11.65,29.36,4.52,29.36,22.43c0,7.51-5.78,13.67-17.43,13.67
	C476.3,150.95,470.52,148.74,465.9,143.63L465.9,143.63z"/>
<path class="st0" d="M421.33,142.29v25.22h-5.01V103.3h5.01v7.32c3.27-4.72,9.24-8.48,16.17-8.48c12.42,0,20.79,9.44,20.79,24.36
	c0,14.83-8.38,24.45-20.79,24.45C430.96,150.95,425.08,147.58,421.33,142.29L421.33,142.29z M452.91,126.5
	c0-11.26-5.87-19.83-16.27-19.83c-6.45,0-12.61,3.85-15.31,8.28v23.01c2.7,4.43,8.86,8.47,15.31,8.47
	C447.03,146.43,452.91,137.76,452.91,126.5L452.91,126.5z"/>
<path class="st0" d="M398.08,149.8v-6.84c-3.85,4.24-10.01,7.99-16.75,7.99c-9.53,0-14.64-4.43-14.64-14.92V103.3h5.01v31.58
	c0,9.05,4.53,11.55,11.26,11.55c5.97,0,12.03-3.56,15.12-7.7V103.3h5.01v46.5H398.08L398.08,149.8z"/>
<path class="st0" d="M338.95,140.84V90.59h5.1v12.71h9.44v4.43h-9.44v32.35c0,3.76,1.54,6.35,4.82,6.35c2.21,0,4.14-1.06,5.2-2.21
	l1.92,3.85c-1.83,1.73-4.04,2.89-7.89,2.89C341.94,150.95,338.95,147.2,338.95,140.84L338.95,140.84z"/>
<path class="st0" d="M307.65,149.8v-46.5h5.01v7.99c3.95-5.2,9.24-8.95,15.69-8.95v5.49c-0.87-0.19-1.54-0.19-2.5-0.19
	c-4.72,0-11.07,4.24-13.19,8.28v33.89L307.65,149.8L307.65,149.8z"/>
<path class="st0" d="M289.41,149.8v-5.49c-4.14,4.52-9.34,6.64-15.79,6.64c-7.99,0-16.27-5.49-16.27-15.5
	c0-10.11,8.19-15.4,16.27-15.4c6.45,0,11.75,2.12,15.79,6.64v-9.43c0-6.93-5.58-10.69-12.51-10.69c-5.78,0-10.3,2.02-14.54,6.84
	l-2.79-3.47c4.81-5.2,10.2-7.8,17.91-7.8c9.43,0,16.94,4.52,16.94,14.92v32.73h-5.01L289.41,149.8L289.41,149.8z M289.41,140.65
	v-10.21c-3.27-4.24-8.47-6.45-14.05-6.45c-7.7,0-12.71,4.91-12.71,11.55c0,6.55,5.01,11.46,12.71,11.46
	C280.94,147,286.14,144.89,289.41,140.65L289.41,140.65z"/>
<path class="st0" d="M234.42,140.84V90.59h5.1v12.71h9.43v4.43h-9.43v32.35c0,3.76,1.54,6.35,4.81,6.35c2.21,0,4.14-1.06,5.2-2.21
	l1.93,3.85c-1.83,1.73-4.04,2.89-7.89,2.89C237.41,150.95,234.42,147.2,234.42,140.84L234.42,140.84z"/>
<path class="st0" d="M176.33,140.75l3.56-4.14c4.14,4.82,10.88,9.34,20.03,9.34c13.19,0,16.95-7.31,16.95-12.8
	c0-18.87-38.51-9.05-38.51-31.48c0-10.49,9.43-17.14,21.08-17.14c9.63,0,16.75,3.37,21.76,9.05l-3.66,4.05
	c-4.62-5.58-11.17-8.09-18.39-8.09c-8.57,0-15.02,4.91-15.02,11.84c0,16.46,38.51,7.41,38.51,31.38c0,8.28-5.49,18.19-22.82,18.19
	C189.23,150.95,181.24,146.72,176.33,140.75L176.33,140.75z"/>
<path class="st0" d="M262.28,50.43V30.08h4.14v20.25c0,6.08,3.29,9.92,9.42,9.92c6.14,0,9.43-3.84,9.43-9.92V30.08h4.14v20.3
	c0,8.28-4.54,13.56-13.57,13.56C266.82,63.94,262.28,58.6,262.28,50.43L262.28,50.43z"/>
<path class="st0" d="M224.07,58.65l2.44-3.14c2.19,2.44,5.79,4.74,10.47,4.74c5.93,0,7.83-3.19,7.83-5.74
	c0-8.58-19.7-3.84-19.7-15.71c0-5.49,4.89-9.23,11.42-9.23c5.09,0,9.02,1.7,11.82,4.64l-2.49,3.04c-2.49-2.74-5.99-3.99-9.63-3.99
	c-3.99,0-6.83,2.15-6.83,5.29c0,7.48,19.7,3.19,19.7,15.61c0,4.84-3.29,9.77-12.27,9.77C231.05,63.94,226.81,61.74,224.07,58.65
	L224.07,58.65z"/>
<polygon class="st0" points="206.89,63.34 187.5,36.81 187.5,63.34 183.36,63.34 183.36,30.08 187.59,30.08 206.74,56.06 
	206.74,30.08 210.88,30.08 210.88,63.34 "/>
<path class="st0" d="M142.36,96.38l-17.59,23.53l-22.4,29.97h0.01l-19.17,25.65c-2.04,2.73-5.24,4.33-8.65,4.33H11.44
	c-8.88,0-13.96-10.12-8.65-17.22l20.73-27.73v-0.01l11.2-14.99l17.59-23.53c2.85-3.82,2.85-9.06,0-12.89L34.72,59.96l-11.2-14.99
	L2.78,17.23c-5.31-7.11-0.23-17.22,8.65-17.22h63.12c3.41,0,6.61,1.61,8.65,4.33l19.17,25.65l22.4,29.97l17.59,23.53
	C145.22,87.31,145.22,92.56,142.36,96.38z"/>
<polygon class="st1" points="183.36,-87.95 183.36,-90.07 195.21,-90.07 195.21,-87.95 190.39,-87.95 190.39,-68.43 188.18,-68.43 
	188.18,-87.95 "/>
<path class="st1" d="M197.99-90.61h2.06v9.04c0.83-1.1,1.75-1.92,2.75-2.46c1-0.54,2.09-0.81,3.25-0.81c1.19,0,2.26,0.3,3.18,0.91
	c0.93,0.61,1.61,1.42,2.05,2.45c0.44,1.02,0.66,2.63,0.66,4.82v8.24h-2.06v-7.63c0-1.84-0.07-3.07-0.22-3.69
	c-0.25-1.06-0.72-1.86-1.39-2.39s-1.55-0.8-2.64-0.8c-1.25,0-2.36,0.41-3.35,1.23c-0.99,0.82-1.64,1.84-1.95,3.06
	c-0.2,0.79-0.29,2.24-0.29,4.36v5.87h-2.06L197.99-90.61L197.99-90.61z"/>
<path class="st1" d="M229.84-73.74l1.74,0.91c-0.57,1.12-1.23,2.02-1.97,2.71c-0.75,0.69-1.58,1.21-2.52,1.57
	c-0.93,0.36-1.99,0.54-3.16,0.54c-2.61,0-4.65-0.86-6.13-2.57c-1.47-1.71-2.21-3.65-2.21-5.8c0-2.03,0.62-3.84,1.87-5.43
	c1.58-2.02,3.7-3.03,6.34-3.03c2.73,0,4.91,1.04,6.54,3.1c1.16,1.46,1.75,3.28,1.77,5.47h-14.4c0.04,1.86,0.63,3.38,1.78,4.57
	s2.57,1.78,4.26,1.78c0.81,0,1.61-0.14,2.38-0.42s1.43-0.66,1.97-1.13C228.62-71.94,229.21-72.7,229.84-73.74L229.84-73.74z
	 M229.84-78.05c-0.27-1.1-0.67-1.98-1.2-2.63c-0.53-0.66-1.22-1.19-2.09-1.59c-0.86-0.4-1.77-0.6-2.72-0.6
	c-1.57,0-2.92,0.51-4.05,1.52c-0.83,0.73-1.45,1.84-1.87,3.31L229.84-78.05L229.84-78.05z"/>
<path class="st1" d="M244.28-84.43h2.06v2.87c0.82-1.1,1.74-1.92,2.74-2.46c1-0.54,2.09-0.82,3.26-0.82c1.19,0,2.26,0.3,3.18,0.91
	c0.93,0.61,1.61,1.43,2.05,2.46c0.44,1.03,0.66,2.63,0.66,4.81v8.24h-2.06v-7.63c0-1.84-0.08-3.07-0.23-3.69
	c-0.24-1.06-0.7-1.86-1.37-2.39c-0.68-0.53-1.56-0.8-2.65-0.8c-1.25,0-2.36,0.41-3.35,1.23c-0.98,0.83-1.63,1.84-1.95,3.06
	c-0.2,0.79-0.29,2.24-0.29,4.35v5.87h-2.06L244.28-84.43L244.28-84.43z"/>
<path class="st1" d="M276.13-73.74l1.74,0.91c-0.57,1.12-1.23,2.02-1.97,2.71s-1.58,1.21-2.52,1.57c-0.93,0.36-1.99,0.54-3.16,0.54
	c-2.61,0-4.65-0.86-6.13-2.57c-1.47-1.71-2.21-3.65-2.21-5.8c0-2.03,0.62-3.84,1.87-5.43c1.58-2.02,3.7-3.03,6.34-3.03
	c2.73,0,4.91,1.04,6.54,3.1c1.16,1.46,1.75,3.28,1.77,5.47H264c0.04,1.86,0.63,3.38,1.78,4.57s2.57,1.78,4.26,1.78
	c0.81,0,1.61-0.14,2.38-0.42c0.77-0.28,1.43-0.66,1.97-1.13C274.91-71.94,275.5-72.7,276.13-73.74L276.13-73.74z M276.13-78.05
	c-0.27-1.1-0.67-1.98-1.2-2.63c-0.53-0.66-1.22-1.19-2.09-1.59c-0.86-0.4-1.77-0.6-2.72-0.6c-1.57,0-2.92,0.51-4.05,1.52
	c-0.83,0.73-1.45,1.84-1.87,3.31L276.13-78.05L276.13-78.05z"/>
<polygon class="st1" points="280.41,-84.43 282.88,-84.43 287.13,-78.58 291.34,-84.43 293.82,-84.43 288.37,-76.88 294.51,-68.43 
	292,-68.43 287.13,-75.15 282.29,-68.43 279.83,-68.43 285.89,-76.86 "/>
<polygon class="st1" points="298.48,-90.38 300.54,-90.38 300.54,-84.43 303.81,-84.43 303.81,-82.66 300.54,-82.66 300.54,-68.43 
	298.48,-68.43 298.48,-82.66 295.67,-82.66 295.67,-84.43 298.48,-84.43 "/>
<path class="st1" d="M315.37-68.43v-22.18h2.06v8.93c0.86-1.06,1.83-1.85,2.89-2.38c1.07-0.53,2.24-0.79,3.51-0.79
	c2.26,0,4.19,0.82,5.8,2.46c1.6,1.64,2.4,3.64,2.4,5.98c0,2.31-0.81,4.29-2.42,5.93c-1.62,1.64-3.56,2.46-5.83,2.46
	c-1.3,0-2.48-0.28-3.54-0.84s-1.99-1.4-2.81-2.52v2.94L315.37-68.43L315.37-68.43z M323.6-70.01c1.15,0,2.2-0.28,3.17-0.84
	s1.74-1.36,2.31-2.38s0.86-2.1,0.86-3.24s-0.29-2.22-0.86-3.25c-0.58-1.03-1.35-1.83-2.33-2.41c-0.97-0.57-2.01-0.86-3.12-0.86
	c-1.13,0-2.19,0.29-3.21,0.86c-1.01,0.57-1.79,1.35-2.33,2.32c-0.54,0.97-0.81,2.06-0.81,3.28c0,1.85,0.61,3.4,1.83,4.65
	C320.32-70.63,321.83-70.01,323.6-70.01L323.6-70.01z"/>
<path class="st1" d="M336.5-91.02c0.47,0,0.87,0.17,1.2,0.5c0.33,0.34,0.5,0.74,0.5,1.21c0,0.46-0.17,0.86-0.5,1.19
	s-0.73,0.5-1.2,0.5c-0.46,0-0.86-0.17-1.19-0.5c-0.33-0.33-0.5-0.73-0.5-1.19c0-0.47,0.17-0.87,0.5-1.21
	C335.64-90.86,336.04-91.02,336.5-91.02L336.5-91.02z M335.47-84.43h2.06v16h-2.06V-84.43z"/>
<path class="st1" d="M355.61-84.44h2.06v12.75c0,2.24-0.2,3.89-0.59,4.93c-0.54,1.47-1.47,2.6-2.81,3.4
	c-1.33,0.79-2.94,1.19-4.81,1.19c-1.37,0-2.61-0.19-3.7-0.58c-1.1-0.39-1.98-0.91-2.67-1.56s-1.32-1.61-1.9-2.87h2.24
	c0.61,1.06,1.39,1.84,2.36,2.35c0.96,0.51,2.15,0.77,3.58,0.77c1.41,0,2.59-0.26,3.56-0.78s1.66-1.18,2.07-1.97
	c0.41-0.79,0.62-2.07,0.62-3.83v-0.83c-0.78,0.98-1.72,1.73-2.84,2.26s-2.31,0.79-3.56,0.79c-1.47,0-2.86-0.37-4.15-1.1
	c-1.3-0.73-2.3-1.71-3-2.95c-0.71-1.24-1.06-2.59-1.06-4.07c0-1.48,0.37-2.86,1.1-4.14c0.74-1.28,1.76-2.29,3.06-3.04
	c1.3-0.74,2.67-1.12,4.12-1.12c1.2,0,2.31,0.25,3.35,0.74c1.04,0.5,2.03,1.31,3,2.45v-2.79H355.61z M349.54-82.86
	c-1.17,0-2.25,0.28-3.25,0.84s-1.78,1.35-2.35,2.34c-0.57,1-0.85,2.07-0.85,3.23c0,1.76,0.59,3.21,1.77,4.35
	c1.18,1.15,2.7,1.72,4.57,1.72c1.89,0,3.41-0.57,4.57-1.71c1.15-1.14,1.73-2.63,1.73-4.49c0-1.21-0.26-2.28-0.79-3.23
	s-1.28-1.69-2.25-2.24C351.7-82.59,350.65-82.86,349.54-82.86L349.54-82.86z"/>
<path class="st1" d="M371.14-91.02c0.47,0,0.87,0.17,1.2,0.5c0.33,0.34,0.5,0.74,0.5,1.21c0,0.46-0.17,0.86-0.5,1.19
	s-0.73,0.5-1.2,0.5c-0.46,0-0.85-0.17-1.19-0.5c-0.33-0.33-0.5-0.73-0.5-1.19c0-0.47,0.17-0.87,0.5-1.21
	C370.28-90.86,370.68-91.02,371.14-91.02L371.14-91.02z M370.11-84.43h2.06v16h-2.06V-84.43z"/>
<path class="st1" d="M392.43-90.61v22.18h-2.03v-2.75c-0.86,1.05-1.83,1.84-2.9,2.37s-2.25,0.79-3.52,0.79
	c-2.26,0-4.2-0.82-5.8-2.46c-1.6-1.64-2.4-3.64-2.4-5.99c0-2.3,0.81-4.28,2.43-5.91c1.62-1.64,3.56-2.46,5.84-2.46
	c1.31,0,2.5,0.28,3.57,0.84c1.06,0.56,2,1.4,2.8,2.51v-9.12L392.43-90.61L392.43-90.61z M384.2-82.86c-1.15,0-2.2,0.28-3.17,0.84
	s-1.74,1.35-2.31,2.37c-0.57,1.02-0.86,2.1-0.86,3.23c0,1.13,0.29,2.2,0.87,3.23s1.35,1.83,2.33,2.4c0.98,0.57,2.02,0.86,3.14,0.86
	c1.13,0,2.19-0.28,3.2-0.85s1.78-1.34,2.33-2.31c0.54-0.97,0.81-2.06,0.81-3.27c0-1.85-0.61-3.4-1.83-4.64
	C387.48-82.24,385.98-82.86,384.2-82.86L384.2-82.86z"/>
<path class="st1" d="M410.56-73.74l1.74,0.91c-0.57,1.12-1.23,2.02-1.97,2.71c-0.75,0.69-1.58,1.21-2.52,1.57
	c-0.93,0.36-1.99,0.54-3.17,0.54c-2.61,0-4.65-0.86-6.13-2.57c-1.47-1.71-2.21-3.65-2.21-5.8c0-2.03,0.62-3.84,1.87-5.43
	c1.58-2.02,3.7-3.03,6.34-3.03c2.73,0,4.91,1.04,6.54,3.1c1.16,1.46,1.75,3.28,1.77,5.47h-14.4c0.04,1.86,0.63,3.38,1.78,4.57
	s2.57,1.78,4.26,1.78c0.81,0,1.61-0.14,2.38-0.42c0.77-0.28,1.43-0.66,1.97-1.13C409.35-71.94,409.93-72.7,410.56-73.74
	L410.56-73.74z M410.56-78.05c-0.27-1.1-0.67-1.98-1.2-2.63c-0.53-0.66-1.22-1.19-2.09-1.59c-0.86-0.4-1.77-0.6-2.72-0.6
	c-1.57,0-2.92,0.51-4.05,1.52c-0.83,0.73-1.45,1.84-1.87,3.31L410.56-78.05L410.56-78.05z"/>
<path class="st1" d="M432.61-84.44v16h-2.03v-2.75c-0.86,1.05-1.83,1.84-2.91,2.37c-1.07,0.53-2.25,0.79-3.52,0.79
	c-2.26,0-4.2-0.82-5.8-2.46c-1.6-1.64-2.4-3.64-2.4-5.99c0-2.3,0.81-4.28,2.43-5.91c1.62-1.64,3.56-2.46,5.84-2.46
	c1.31,0,2.5,0.28,3.57,0.84c1.06,0.56,2,1.4,2.8,2.51v-2.94L432.61-84.44L432.61-84.44z M424.38-82.86c-1.15,0-2.2,0.28-3.17,0.84
	s-1.74,1.35-2.31,2.37c-0.57,1.02-0.86,2.1-0.86,3.23c0,1.13,0.29,2.2,0.87,3.23s1.35,1.83,2.33,2.4c0.98,0.57,2.02,0.86,3.14,0.86
	c1.13,0,2.19-0.28,3.2-0.85s1.78-1.34,2.33-2.31c0.54-0.97,0.82-2.06,0.82-3.27c0-1.85-0.61-3.4-1.83-4.64
	C427.67-82.24,426.16-82.86,424.38-82.86L424.38-82.86z"/>
<path class="st1" d="M446.3-91.02c0.47,0,0.87,0.17,1.2,0.5c0.33,0.34,0.5,0.74,0.5,1.21c0,0.46-0.16,0.86-0.5,1.19
	c-0.33,0.33-0.73,0.5-1.2,0.5c-0.46,0-0.85-0.17-1.19-0.5c-0.33-0.33-0.5-0.73-0.5-1.19c0-0.47,0.17-0.87,0.5-1.21
	C445.44-90.86,445.84-91.02,446.3-91.02L446.3-91.02z M445.28-84.43h2.06v16h-2.06V-84.43z"/>
<path class="st1" d="M459.66-82.68l-1.32,1.37c-1.1-1.07-2.18-1.6-3.23-1.6c-0.67,0-1.24,0.22-1.72,0.66s-0.72,0.96-0.72,1.54
	c0,0.52,0.2,1.02,0.59,1.49c0.39,0.48,1.22,1.04,2.48,1.69c1.53,0.79,2.57,1.56,3.13,2.29c0.54,0.75,0.81,1.58,0.81,2.52
	c0,1.31-0.46,2.43-1.39,3.34c-0.92,0.91-2.08,1.37-3.46,1.37c-0.92,0-1.8-0.2-2.64-0.6c-0.84-0.4-1.54-0.96-2.09-1.66l1.29-1.47
	c1.05,1.19,2.17,1.78,3.35,1.78c0.83,0,1.53-0.26,2.11-0.79s0.87-1.15,0.87-1.87c0-0.59-0.19-1.11-0.57-1.57
	c-0.38-0.45-1.25-1.02-2.59-1.71c-1.44-0.75-2.43-1.48-2.95-2.2c-0.52-0.73-0.78-1.56-0.78-2.49c0-1.22,0.41-2.23,1.24-3.03
	c0.83-0.81,1.88-1.21,3.15-1.21C456.68-84.85,458.17-84.13,459.66-82.68L459.66-82.68z"/>
<polygon class="st1" points="469.93,-84.43 472.1,-84.43 477.6,-72.11 482.94,-84.43 485.14,-84.43 475.59,-62.58 473.42,-62.58 
	476.5,-69.64 "/>
<path class="st1" d="M495.37-84.85c2.46,0,4.51,0.89,6.13,2.68c1.47,1.63,2.21,3.55,2.21,5.78c0,2.24-0.78,4.19-2.34,5.86
	s-3.56,2.51-6,2.51c-2.46,0-4.46-0.84-6.02-2.51s-2.34-3.62-2.34-5.86c0-2.22,0.74-4.14,2.21-5.77
	C490.85-83.95,492.9-84.85,495.37-84.85L495.37-84.85z M495.37-82.83c-1.71,0-3.18,0.63-4.42,1.9c-1.23,1.27-1.84,2.79-1.84,4.59
	c0,1.16,0.28,2.24,0.84,3.24s1.32,1.77,2.27,2.32c0.95,0.54,2,0.82,3.14,0.82s2.19-0.27,3.14-0.82c0.96-0.54,1.71-1.32,2.27-2.32
	s0.84-2.08,0.84-3.24c0-1.8-0.62-3.32-1.85-4.59C498.54-82.2,497.07-82.83,495.37-82.83L495.37-82.83z"/>
<path class="st1" d="M507.26-84.43h2.06v7.47c0,1.82,0.1,3.08,0.3,3.76c0.29,0.98,0.86,1.76,1.69,2.32
	c0.83,0.57,1.82,0.85,2.97,0.85s2.13-0.28,2.93-0.83s1.35-1.28,1.66-2.18c0.2-0.62,0.31-1.93,0.31-3.93v-7.47h2.11v7.86
	c0,2.2-0.26,3.87-0.77,4.98c-0.52,1.12-1.29,1.99-2.32,2.63c-1.04,0.63-2.33,0.95-3.89,0.95s-2.86-0.32-3.91-0.95
	c-1.04-0.63-1.82-1.52-2.34-2.65c-0.51-1.13-0.77-2.84-0.77-5.11v-7.7L507.26-84.43L507.26-84.43z"/>
<path class="st1" d="M525.05-84.43h2.1v2.34c0.63-0.92,1.29-1.61,1.99-2.07s1.42-0.68,2.18-0.68c0.57,0,1.18,0.18,1.82,0.54
	l-1.07,1.74c-0.43-0.19-0.79-0.28-1.09-0.28c-0.69,0-1.35,0.28-1.99,0.84s-1.12,1.44-1.46,2.63c-0.26,0.91-0.38,2.76-0.38,5.53v5.41
	h-2.1L525.05-84.43L525.05-84.43z"/>
<path class="st1" d="M542.94-82.68l-1.32,1.37c-1.1-1.07-2.18-1.6-3.23-1.6c-0.67,0-1.24,0.22-1.72,0.66s-0.72,0.96-0.72,1.54
	c0,0.52,0.2,1.02,0.59,1.49c0.39,0.48,1.22,1.04,2.48,1.69c1.53,0.79,2.57,1.56,3.13,2.29c0.54,0.75,0.81,1.58,0.81,2.52
	c0,1.31-0.46,2.43-1.39,3.34c-0.92,0.91-2.08,1.37-3.46,1.37c-0.92,0-1.8-0.2-2.64-0.6c-0.84-0.4-1.54-0.96-2.09-1.66l1.29-1.47
	c1.05,1.19,2.17,1.78,3.35,1.78c0.83,0,1.53-0.26,2.11-0.79c0.58-0.53,0.87-1.15,0.87-1.87c0-0.59-0.19-1.11-0.57-1.57
	c-0.38-0.45-1.25-1.02-2.59-1.71c-1.44-0.75-2.43-1.48-2.95-2.2c-0.52-0.73-0.78-1.56-0.78-2.49c0-1.22,0.42-2.23,1.25-3.03
	c0.83-0.81,1.88-1.21,3.15-1.21C539.96-84.85,541.45-84.13,542.94-82.68L542.94-82.68z"/>
<path class="st1" d="M698.53-132.99v-48.42h10.11v12.71h9.43v8.86h-9.43v24.36c0,3.18,1.54,5.49,4.43,5.49
	c1.93,0,3.76-0.77,4.53-1.64l2.41,7.6c-1.83,1.73-4.81,2.98-9.53,2.98C702.67-121.05,698.53-125.28,698.53-132.99L698.53-132.99z"/>
<path class="st1" d="M655.25-122.2h-11.26l17.04-23.88l-16.08-22.62h11.36l17.33,22.62L655.25-122.2z M678.17-152.46l11.54-16.24
	h-11.36l-6,8.64L678.17-152.46z M678.18-139.74l-5.8,7.53l7.03,10.01h11.36L678.18-139.74z"/>
<path class="st1" d="M594.68-145.5c0-13.48,9.82-24.36,23.59-24.36c13.96,0,22.91,10.69,22.91,25.32v2.41h-35.91
	c0.77,7.03,6.07,12.81,14.83,12.81c4.52,0,9.92-1.83,13.19-5.1l4.62,6.64c-4.62,4.43-11.45,6.74-18.87,6.74
	C605.08-121.05,594.68-130.77,594.68-145.5L594.68-145.5z M618.27-161.58c-8.66,0-12.61,6.64-13.09,12.32h26.19
	C631.17-154.74,627.41-161.58,618.27-161.58L618.27-161.58z"/>
<path class="st1" d="M583.98-186.42v64.22H573.1l-44.77-61.11v-3.1h11.55l32.83,44.58v-44.59H583.98z M528.33-168.32v46.11h11.27
	v-30.7L528.33-168.32z"/>
<path class="st1" d="M465.9-128.37l2.98-3.76c2.98,3.76,8.47,6.84,15.02,6.84c7.8,0,12.42-4.04,12.42-9.43
	c0-12.71-29.36-5.58-29.36-22.24c0-7.12,6.07-12.9,16.56-12.9c7.99,0,13.29,3.08,16.66,6.84l-2.79,3.56
	c-2.7-3.66-7.7-6.16-13.86-6.16c-7.22,0-11.65,3.66-11.65,8.47c0,11.65,29.36,4.52,29.36,22.43c0,7.51-5.78,13.67-17.43,13.67
	C476.3-121.05,470.52-123.26,465.9-128.37L465.9-128.37z"/>
<path class="st1" d="M421.33-129.71v25.22h-5.01v-64.21h5.01v7.32c3.27-4.72,9.24-8.48,16.17-8.48c12.42,0,20.79,9.44,20.79,24.36
	c0,14.83-8.38,24.45-20.79,24.45C430.96-121.05,425.08-124.42,421.33-129.71L421.33-129.71z M452.91-145.5
	c0-11.26-5.87-19.83-16.27-19.83c-6.45,0-12.61,3.85-15.31,8.28v23.01c2.7,4.43,8.86,8.47,15.31,8.47
	C447.03-125.57,452.91-134.24,452.91-145.5L452.91-145.5z"/>
<path class="st1" d="M398.08-122.2v-6.84c-3.85,4.24-10.01,7.99-16.75,7.99c-9.53,0-14.64-4.43-14.64-14.92v-32.73h5.01v31.58
	c0,9.05,4.53,11.55,11.26,11.55c5.97,0,12.03-3.56,15.12-7.7v-35.43h5.01v46.5H398.08L398.08-122.2z"/>
<path class="st1" d="M338.95-131.16v-50.25h5.1v12.71h9.44v4.43h-9.44v32.35c0,3.76,1.54,6.35,4.82,6.35c2.21,0,4.14-1.06,5.2-2.21
	l1.92,3.85c-1.83,1.73-4.04,2.89-7.89,2.89C341.94-121.05,338.95-124.8,338.95-131.16L338.95-131.16z"/>
<path class="st1" d="M307.65-122.2v-46.5h5.01v7.99c3.95-5.2,9.24-8.95,15.69-8.95v5.49c-0.87-0.19-1.54-0.19-2.5-0.19
	c-4.72,0-11.07,4.24-13.19,8.28v33.89L307.65-122.2L307.65-122.2z"/>
<path class="st1" d="M289.41-122.2v-5.49c-4.14,4.52-9.34,6.64-15.79,6.64c-7.99,0-16.27-5.49-16.27-15.5
	c0-10.11,8.19-15.4,16.27-15.4c6.45,0,11.75,2.12,15.79,6.64v-9.43c0-6.93-5.58-10.69-12.51-10.69c-5.78,0-10.3,2.02-14.54,6.84
	l-2.79-3.47c4.81-5.2,10.2-7.8,17.91-7.8c9.43,0,16.94,4.52,16.94,14.92v32.73h-5.01L289.41-122.2L289.41-122.2z M289.41-131.35
	v-10.21c-3.27-4.24-8.47-6.45-14.05-6.45c-7.7,0-12.71,4.91-12.71,11.55c0,6.55,5.01,11.46,12.71,11.46
	C280.94-125,286.14-127.11,289.41-131.35L289.41-131.35z"/>
<path class="st1" d="M234.42-131.16v-50.25h5.1v12.71h9.43v4.43h-9.43v32.35c0,3.76,1.54,6.35,4.81,6.35c2.21,0,4.14-1.06,5.2-2.21
	l1.93,3.85c-1.83,1.73-4.04,2.89-7.89,2.89C237.41-121.05,234.42-124.8,234.42-131.16L234.42-131.16z"/>
<path class="st1" d="M176.33-131.25l3.56-4.14c4.14,4.82,10.88,9.34,20.03,9.34c13.19,0,16.95-7.31,16.95-12.8
	c0-18.87-38.51-9.05-38.51-31.48c0-10.49,9.43-17.14,21.08-17.14c9.63,0,16.75,3.37,21.76,9.05l-3.66,4.05
	c-4.62-5.58-11.17-8.09-18.39-8.09c-8.57,0-15.02,4.91-15.02,11.84c0,16.46,38.51,7.41,38.51,31.38c0,8.28-5.49,18.19-22.82,18.19
	C189.23-121.05,181.24-125.28,176.33-131.25L176.33-131.25z"/>
<path class="st1" d="M262.28-221.57v-20.35h4.14v20.25c0,6.08,3.29,9.92,9.42,9.92c6.14,0,9.43-3.84,9.43-9.92v-20.25h4.14v20.3
	c0,8.28-4.54,13.56-13.57,13.56C266.82-208.06,262.28-213.4,262.28-221.57L262.28-221.57z"/>
<path class="st1" d="M224.07-213.35l2.44-3.14c2.19,2.44,5.79,4.74,10.47,4.74c5.93,0,7.83-3.19,7.83-5.74
	c0-8.58-19.7-3.84-19.7-15.71c0-5.49,4.89-9.23,11.42-9.23c5.09,0,9.02,1.7,11.82,4.64l-2.49,3.04c-2.49-2.74-5.99-3.99-9.63-3.99
	c-3.99,0-6.83,2.15-6.83,5.29c0,7.48,19.7,3.19,19.7,15.61c0,4.84-3.29,9.77-12.27,9.77C231.05-208.06,226.81-210.26,224.07-213.35
	L224.07-213.35z"/>
<polygon class="st1" points="206.89,-208.66 187.5,-235.19 187.5,-208.66 183.36,-208.66 183.36,-241.92 187.59,-241.92 
	206.74,-215.94 206.74,-241.92 210.88,-241.92 210.88,-208.66 "/>
<path class="st1" d="M142.36-175.62l-17.59,23.53l-22.4,29.97h0.01L83.21-96.47c-2.04,2.73-5.24,4.33-8.65,4.33H11.44
	c-8.88,0-13.96-10.12-8.65-17.22l20.73-27.73v-0.01l11.2-14.99l17.59-23.53c2.85-3.82,2.85-9.06,0-12.89l-17.59-23.53l-11.2-14.99
	L2.78-254.77c-5.31-7.11-0.23-17.22,8.65-17.22h63.12c3.41,0,6.61,1.61,8.65,4.33l19.17,25.65l22.4,29.97l17.59,23.53
	C145.22-184.69,145.22-179.44,142.36-175.62z"/>
</svg>
