<?xml version="1.0" encoding="utf-8"?>
<!-- Generator: Adobe Illustrator 28.0.0, SVG Export Plug-In . SVG Version: 6.00 Build 0)  -->
<svg version="1.1" id="Layer_1" xmlns="http://www.w3.org/2000/svg" xmlns:xlink="http://www.w3.org/1999/xlink" x="0px" y="0px"
	 viewBox="0 0 103.5 128" style="enable-background:new 0 0 103.5 128;" xml:space="preserve">
<style type="text/css">
	.st0{clip-path:url(#XMLID_00000103951995757723739580000000510800663921121935_);}
	.st1{clip-path:url(#XMLID_00000015324293934782937760000010740041089946216625_);}
	.st2{clip-path:url(#XMLID_00000172423715241014944740000009409901917398937986_);fill:#1E2757;}
	.st3{clip-path:url(#XMLID_00000172423715241014944740000009409901917398937986_);fill:#FFFFFF;}
	.st4{clip-path:url(#XMLID_00000172423715241014944740000009409901917398937986_);fill:#00ADE4;}
	.st5{fill:none;stroke:#727272;stroke-miterlimit:10;}
	.st6{fill:#323232;}
	.st7{fill:#E01E49;}
	.st8{fill:#F3B841;}
	.st9{fill:#B74E92;}
	.st10{fill:#593587;}
	.st11{fill:#4766A8;}
	.st12{fill:#5EC0EC;}
	.st13{fill:#E40046;}
	.st14{fill:#005BA8;}
	.st15{fill:#1F2643;}
</style>
<g id="XMLID_239_">
	<defs>
		<path id="XMLID_240_" d="M-181.3-1057.5h-54.5c-0.5,0-0.8-0.4-0.8-0.8v-69.6c0-0.5,0.4-0.8,0.8-0.8h54.5c0.5,0,0.8,0.4,0.8,0.8
			v69.6C-180.5-1057.9-180.9-1057.5-181.3-1057.5z"/>
	</defs>
	<clipPath id="XMLID_00000112611096564922453330000010024331456379035545_">
		<use xlink:href="#XMLID_240_"  style="overflow:visible;"/>
	</clipPath>
	<g id="XMLID_241_" style="clip-path:url(#XMLID_00000112611096564922453330000010024331456379035545_);">
		<g id="XMLID_242_">
			<defs>
				<rect id="XMLID_243_" x="-283.9" y="-1178.5" width="152" height="196.7"/>
			</defs>
			<clipPath id="XMLID_00000078752388135968967610000001243209275041839277_">
				<use xlink:href="#XMLID_243_"  style="overflow:visible;"/>
			</clipPath>
			<g id="XMLID_244_" style="clip-path:url(#XMLID_00000078752388135968967610000001243209275041839277_);">
				<defs>
					<rect id="XMLID_245_" x="-283.9" y="-1178.5" width="152" height="196.7"/>
				</defs>
				<clipPath id="XMLID_00000101090412331662096730000012686982901719792515_">
					<use xlink:href="#XMLID_245_"  style="overflow:visible;"/>
				</clipPath>
				<path id="XMLID_357_" style="clip-path:url(#XMLID_00000101090412331662096730000012686982901719792515_);fill:#1E2757;" d="
					M-184.3-1094.2c0,16.2-10.7,29.3-23.9,29.3c-13.2,0-23.9-13.1-23.9-29.3c0-16.2,10.7-29.3,23.9-29.3
					C-195-1123.4-184.3-1110.3-184.3-1094.2"/>
				<path id="XMLID_356_" style="clip-path:url(#XMLID_00000101090412331662096730000012686982901719792515_);fill:#FFFFFF;" d="
					M-185.4-1094.2c0,15.4-10.2,27.9-22.8,27.9c-12.6,0-22.8-12.5-22.8-27.9c0-15.4,10.2-27.9,22.8-27.9
					C-195.6-1122.1-185.4-1109.6-185.4-1094.2"/>
				<path id="XMLID_355_" style="clip-path:url(#XMLID_00000101090412331662096730000012686982901719792515_);fill:#1E2757;" d="
					M-190.6-1094.1c0,12.7-7.9,22.9-17.6,22.9c-9.7,0-17.6-10.3-17.6-22.9c0-12.7,7.9-22.9,17.6-22.9
					C-198.4-1117-190.6-1106.7-190.6-1094.1"/>
				<path id="XMLID_354_" style="clip-path:url(#XMLID_00000101090412331662096730000012686982901719792515_);fill:#1E2757;" d="
					M-225.1-1110.1l0.9,0.4l0,0.1c-0.2-0.1-0.4-0.1-0.6,0c-0.2,0.1-0.3,0.2-0.4,0.4c-0.1,0.1-0.1,0.2-0.1,0.4c0,0.1,0.1,0.2,0.2,0.2
					c0.1,0,0.1,0,0.2,0c0.1,0,0.2,0,0.3-0.1c0.1,0,0.2-0.1,0.4-0.3c0.3-0.2,0.5-0.3,0.7-0.4c0.2,0,0.4,0,0.5,0.1
					c0.2,0.1,0.3,0.3,0.4,0.5c0.1,0.2,0,0.5-0.1,0.7c0,0.1-0.1,0.1-0.1,0.2c-0.1,0.1-0.1,0.1-0.2,0.2c-0.1,0-0.1,0.1-0.1,0.1
					c0,0,0,0.1,0,0.1c0,0,0,0.1,0.1,0.1l0,0.1l-0.9-0.5l0-0.1c0.3,0.1,0.6,0.1,0.8,0c0.2-0.1,0.4-0.2,0.5-0.4
					c0.1-0.1,0.1-0.3,0.1-0.4c0-0.1-0.1-0.2-0.2-0.3c-0.1,0-0.1,0-0.2,0c-0.1,0-0.1,0-0.2,0.1c-0.1,0-0.2,0.1-0.4,0.2
					c-0.2,0.2-0.4,0.3-0.5,0.3c-0.1,0.1-0.3,0.1-0.4,0.1c-0.1,0-0.2,0-0.4-0.1c-0.2-0.1-0.3-0.3-0.4-0.5c-0.1-0.2,0-0.4,0.1-0.7
					c0-0.1,0.1-0.2,0.2-0.2c0-0.1,0.1-0.1,0.2-0.2c0.1-0.1,0.1-0.1,0.2-0.1c0,0,0-0.1,0-0.1C-225.1-1109.9-225.1-1110-225.1-1110.1
					L-225.1-1110.1z"/>
				<path id="XMLID_353_" style="clip-path:url(#XMLID_00000101090412331662096730000012686982901719792515_);fill:#1E2757;" d="
					M-223.9-1111.6l1,0.7l0,0c0.1-0.1,0.1-0.3,0.1-0.4c0-0.1-0.2-0.3-0.3-0.4l0-0.1l1.2,0.8l0,0.1c-0.1-0.1-0.3-0.1-0.4-0.1
					c-0.1,0-0.2,0-0.3,0c-0.1,0-0.1,0.1-0.2,0.2l0.7,0.5c0.1,0.1,0.2,0.1,0.2,0.1c0,0,0.1,0,0.1,0c0,0,0.1-0.1,0.1-0.1l0.1-0.1
					c0.1-0.2,0.2-0.4,0.2-0.6c0-0.2-0.1-0.4-0.3-0.6l0-0.1l0.7,0.6l-1.4,2l-0.1,0l0.1-0.1c0-0.1,0.1-0.1,0.1-0.2c0,0,0-0.1,0-0.1
					c0,0-0.1-0.1-0.2-0.2l-1.5-1c-0.1-0.1-0.2-0.1-0.2-0.1c0,0-0.1,0-0.1,0c-0.1,0-0.1,0.1-0.2,0.1l-0.1,0.1l-0.1,0l1.3-2l0.7,0.5
					l0,0.1c-0.2-0.1-0.3-0.1-0.5-0.1c-0.1,0-0.2,0.1-0.3,0.1c-0.1,0.1-0.2,0.2-0.3,0.3L-223.9-1111.6z"/>
				<path id="XMLID_352_" style="clip-path:url(#XMLID_00000101090412331662096730000012686982901719792515_);fill:#1E2757;" d="
					M-222-1114.2l0.9,0.8l0,0c0.1-0.1,0.2-0.3,0.1-0.4c0-0.1-0.1-0.3-0.3-0.4l0.1-0.1l1.1,1l-0.1,0.1c-0.1-0.1-0.3-0.2-0.4-0.2
					c-0.1,0-0.2,0-0.3,0c-0.1,0-0.2,0.1-0.2,0.2l0.6,0.5c0.1,0.1,0.2,0.2,0.2,0.2c0,0,0.1,0,0.1,0c0,0,0.1,0,0.1-0.1l0.1-0.1
					c0.2-0.2,0.3-0.4,0.3-0.6c0-0.2,0-0.4-0.2-0.6l0-0.1l0.6,0.7l-1.6,1.8l-0.1-0.1l0.1-0.1c0.1-0.1,0.1-0.1,0.1-0.2
					c0,0,0-0.1,0-0.1c0,0-0.1-0.1-0.2-0.2l-1.4-1.2c-0.1-0.1-0.2-0.1-0.2-0.2c0,0-0.1,0-0.1,0c-0.1,0-0.1,0.1-0.2,0.1l-0.1,0.1
					l-0.1-0.1l1.6-1.8l0.6,0.6l-0.1,0.1c-0.2-0.1-0.3-0.2-0.4-0.2c-0.1,0-0.2,0-0.4,0.1c-0.1,0-0.2,0.1-0.3,0.3L-222-1114.2z"/>
				<path id="XMLID_351_" style="clip-path:url(#XMLID_00000101090412331662096730000012686982901719792515_);fill:#1E2757;" d="
					M-218.6-1116.1l1.6,0.4c0.2,0,0.4,0.1,0.5,0c0.1,0,0.2,0,0.2-0.1l0,0.1l-1.2,0.9l0-0.1c0.1-0.1,0.1-0.1,0.1-0.1c0,0,0-0.1,0-0.1
					c0,0-0.2-0.1-0.4-0.1l-1-0.2l0,0.1l0.5,0.6c0.1,0.1,0.2,0.2,0.2,0.2c0,0,0.1,0,0.1,0c0.1,0,0.1,0,0.2-0.1l0,0.1l-1.1,0.9
					l-0.1-0.1l0.1-0.1c0.1-0.1,0.1-0.1,0.1-0.2c0,0,0-0.1,0-0.1c0,0-0.1-0.1-0.1-0.2l-1.2-1.5c-0.1-0.1-0.2-0.2-0.2-0.2
					c0,0-0.1,0-0.1,0c-0.1,0-0.1,0-0.2,0.1l-0.1,0.1l0-0.1l1.1-0.9l0.1,0.1c-0.1,0.1-0.1,0.1-0.1,0.2c0,0,0,0.1,0,0.1
					c0,0,0.1,0.1,0.1,0.2l0.6,0.7l0.3-1.3c0-0.2,0-0.3,0-0.4c0,0-0.1-0.1-0.1,0c0,0-0.1,0-0.2,0.1l0-0.1l0.9-0.7l0,0.1
					c-0.1,0.1-0.1,0.1-0.1,0.2c0,0.1-0.1,0.2-0.1,0.5L-218.6-1116.1z"/>
				<path id="XMLID_350_" style="clip-path:url(#XMLID_00000101090412331662096730000012686982901719792515_);fill:#1E2757;" d="
					M-214.3-1118.7l1.4,0.8c0.2,0.1,0.4,0.2,0.5,0.2c0.1,0,0.2,0,0.2,0l0,0.1l-1.4,0.6l0-0.1c0.1,0,0.1-0.1,0.1-0.1c0,0,0-0.1,0-0.1
					c0-0.1-0.1-0.1-0.3-0.2l-0.9-0.5l-0.1,0.1l0.3,0.7c0.1,0.1,0.1,0.2,0.1,0.2c0,0,0.1,0,0.1,0c0.1,0,0.1,0,0.2-0.1l0,0.1l-1.3,0.6
					l0-0.1l0.1,0c0.1,0,0.1-0.1,0.2-0.1c0,0,0-0.1,0-0.1c0,0,0-0.1-0.1-0.3l-0.7-1.7c-0.1-0.1-0.1-0.2-0.1-0.2c0,0-0.1,0-0.1-0.1
					c-0.1,0-0.1,0-0.2,0l-0.1,0l0-0.1l1.3-0.6l0,0.1c-0.1,0-0.2,0.1-0.2,0.1c0,0,0,0.1,0,0.1c0,0,0,0.1,0.1,0.3l0.3,0.8l0.6-1.2
					c0.1-0.2,0.1-0.3,0.1-0.4c0,0-0.1-0.1-0.1-0.1c0,0-0.1,0-0.2,0.1l0-0.1l1-0.4l0,0.1c-0.1,0-0.2,0.1-0.2,0.1c0,0-0.1,0.2-0.2,0.4
					L-214.3-1118.7z"/>
				<path id="XMLID_349_" style="clip-path:url(#XMLID_00000101090412331662096730000012686982901719792515_);fill:#1E2757;" d="
					M-211.5-1120.7l1.7,1.5l-0.2-1.2c0-0.2-0.1-0.3-0.1-0.3c-0.1-0.1-0.2-0.1-0.4-0.1l0-0.1l0.9-0.2l0,0.1c-0.1,0-0.2,0.1-0.2,0.1
					c0,0-0.1,0.1-0.1,0.1c0,0.1,0,0.2,0,0.3l0.4,2.3l-0.1,0l-2.3-2l0.3,1.8c0,0.2,0.1,0.3,0.2,0.3c0.1,0,0.2,0.1,0.3,0l0.1,0l0,0.1
					l-1,0.2l0-0.1c0.2,0,0.3-0.1,0.3-0.2c0.1-0.1,0.1-0.2,0-0.3l-0.3-2l-0.1-0.1c-0.1-0.1-0.1-0.1-0.2-0.1c0,0-0.1,0-0.2,0l0-0.1
					L-211.5-1120.7z"/>
				<path id="XMLID_346_" style="clip-path:url(#XMLID_00000101090412331662096730000012686982901719792515_);fill:#1E2757;" d="
					M-207-1121c0.5,0,0.8,0.2,1.1,0.5c0.3,0.3,0.4,0.7,0.4,1.1c0,0.4-0.2,0.7-0.4,0.9c-0.3,0.3-0.7,0.5-1.2,0.5
					c-0.5,0-0.9-0.2-1.2-0.6c-0.2-0.3-0.3-0.6-0.3-1c0-0.4,0.2-0.8,0.5-1C-207.8-1121-207.4-1121.1-207-1121 M-207-1120.9
					c-0.3,0-0.5,0.1-0.6,0.4c-0.1,0.2-0.2,0.5-0.2,0.9c0,0.5,0,0.8,0.2,1.1c0.1,0.2,0.3,0.3,0.5,0.3c0.1,0,0.3,0,0.4-0.1
					c0.1-0.1,0.2-0.2,0.3-0.4c0.1-0.2,0.1-0.4,0.2-0.8c0-0.4,0-0.7-0.1-0.9c-0.1-0.2-0.1-0.3-0.2-0.4
					C-206.7-1120.8-206.9-1120.9-207-1120.9"/>
				<path id="XMLID_345_" style="clip-path:url(#XMLID_00000101090412331662096730000012686982901719792515_);fill:#1E2757;" d="
					M-200.4-1119.3L-200.4-1119.3c-0.1,0.1-0.1,0.1-0.2,0.1c0,0-0.1,0-0.1,0.1c0,0-0.1,0.1-0.2,0.3l-1.6,1.9l-0.1,0l0-2l-1.3,1.5
					l-0.1,0l-0.1-2.5c0-0.3,0-0.4,0-0.5c0-0.1-0.1-0.1-0.2-0.1l0-0.1l1.2,0.4l0,0.1c-0.1,0-0.2,0-0.2,0c0,0-0.1,0-0.1,0.1
					c0,0,0,0.2,0,0.4l0.1,1.5l0.8-0.9l0-0.3c0-0.2,0-0.3,0-0.4c0-0.1,0-0.1-0.1-0.2c0,0-0.1-0.1-0.2-0.1l0-0.1l1.3,0.5l0,0.1
					c-0.1,0-0.2,0-0.2-0.1c0,0-0.1,0-0.1,0c0,0,0,0,0,0.1c0,0,0,0.1,0,0.3l0,1.4l0.8-1c0.1-0.1,0.1-0.2,0.2-0.2c0,0,0-0.1,0.1-0.1
					c0-0.1,0-0.1,0-0.1c0,0-0.1-0.1-0.2-0.1l0-0.1L-200.4-1119.3z"/>
				<path id="XMLID_344_" style="clip-path:url(#XMLID_00000101090412331662096730000012686982901719792515_);fill:#1E2757;" d="
					M-198.4-1115.8l-0.6,0.8l-2.1-1.4l0-0.1l0.1,0.1c0.1,0,0.1,0.1,0.2,0.1c0,0,0.1,0,0.1,0c0,0,0.1-0.1,0.2-0.2l1-1.6
					c0.1-0.1,0.1-0.2,0.1-0.2c0,0,0-0.1,0-0.1c0,0-0.1-0.1-0.1-0.1l-0.1,0l0-0.1l1.3,0.8l0,0.1l-0.1-0.1c-0.1,0-0.1-0.1-0.2-0.1
					c0,0-0.1,0-0.1,0c0,0-0.1,0.1-0.2,0.2l-1,1.5c-0.1,0.1-0.1,0.2-0.1,0.2c0,0,0,0.1,0,0.1c0,0,0.1,0.1,0.2,0.2l0.2,0.1
					c0.1,0.1,0.2,0.1,0.4,0.1c0.1,0,0.2,0,0.4-0.1C-198.8-1115.6-198.6-1115.7-198.4-1115.8L-198.4-1115.8z"/>
				<path id="XMLID_343_" style="clip-path:url(#XMLID_00000101090412331662096730000012686982901719792515_);fill:#1E2757;" d="
					M-196-1115.9l-0.8,0.8l0,0c0.1,0.1,0.3,0.2,0.4,0.1c0.1,0,0.3-0.1,0.5-0.3l0.1,0.1l-1,1.1l-0.1-0.1c0.1-0.1,0.2-0.2,0.2-0.4
					c0-0.1,0-0.2,0-0.3c0-0.1-0.1-0.2-0.2-0.3l-0.5,0.6c-0.1,0.1-0.2,0.2-0.2,0.2c0,0,0,0.1,0,0.1c0,0,0,0.1,0.1,0.1l0.1,0.1
					c0.2,0.2,0.4,0.3,0.6,0.3c0.2,0,0.4,0,0.6-0.2l0.1,0.1l-0.7,0.6l-1.8-1.7l0.1-0.1l0.1,0.1c0.1,0.1,0.1,0.1,0.2,0.1
					c0,0,0.1,0,0.1,0c0,0,0.1-0.1,0.2-0.2l1.3-1.4c0.1-0.1,0.1-0.2,0.2-0.2c0,0,0-0.1,0-0.1c0-0.1,0-0.1-0.1-0.2l-0.1-0.1l0.1-0.1
					l1.7,1.6l-0.6,0.6l-0.1-0.1c0.1-0.2,0.2-0.3,0.2-0.4c0-0.1,0-0.2-0.1-0.4c0-0.1-0.1-0.2-0.3-0.3L-196-1115.9z"/>
				<path id="XMLID_340_" style="clip-path:url(#XMLID_00000101090412331662096730000012686982901719792515_);fill:#1E2757;" d="
					M-196.4-1112.6L-196.4-1112.6l0.1,0c0.1,0.1,0.1,0.1,0.1,0.1c0,0,0.1,0,0.1,0c0,0,0.1-0.1,0.2-0.1l1.5-1.1
					c0.1-0.1,0.2-0.2,0.2-0.2c0,0,0-0.1,0-0.1c0-0.1,0-0.1-0.1-0.2l-0.1-0.1l0.1,0l0.8,1c0.2,0.3,0.3,0.5,0.4,0.7
					c0.1,0.3,0.1,0.5-0.1,0.8c-0.1,0.2-0.3,0.5-0.5,0.6c-0.2,0.1-0.3,0.2-0.5,0.3c-0.2,0.1-0.3,0.1-0.5,0.1c-0.2,0-0.3-0.1-0.4-0.1
					c-0.1-0.1-0.3-0.2-0.4-0.3c-0.1-0.1-0.2-0.2-0.3-0.3L-196.4-1112.6z M-193.6-1113.4l-1.7,1.4c-0.1,0.1-0.1,0.1-0.2,0.1
					c0,0,0,0.1,0,0.1c0,0,0,0.1,0.1,0.1c0.1,0.2,0.3,0.3,0.5,0.3c0.3,0,0.6-0.1,0.9-0.4c0.3-0.2,0.5-0.4,0.6-0.7
					c0.1-0.2,0.1-0.3,0.1-0.5C-193.4-1113.1-193.5-1113.2-193.6-1113.4"/>
				<path id="XMLID_339_" style="clip-path:url(#XMLID_00000101090412331662096730000012686982901719792515_);fill:#1E2757;" d="
					M-190.4-1108.9l-0.9,0.5l0-0.1c0.2-0.2,0.3-0.4,0.3-0.7c0-0.2,0-0.4-0.1-0.6c-0.1-0.2-0.2-0.3-0.4-0.4c-0.2-0.1-0.4-0.1-0.6,0
					c-0.2,0.1-0.4,0.1-0.6,0.2c-0.2,0.1-0.4,0.3-0.6,0.4c-0.1,0.2-0.2,0.3-0.2,0.5c0,0.2,0,0.3,0.1,0.5c0,0.1,0.1,0.1,0.1,0.2
					c0,0.1,0.1,0.1,0.2,0.2l0.5-0.3c0.1-0.1,0.2-0.1,0.2-0.1c0,0,0-0.1,0-0.1c0-0.1,0-0.1-0.1-0.2l0-0.1l0.1,0l0.7,1.2l-0.1,0
					c-0.1-0.1-0.1-0.1-0.1-0.2c0,0-0.1,0-0.1,0c0,0-0.1,0-0.2,0.1l-0.5,0.3c-0.2-0.1-0.3-0.3-0.4-0.4c-0.1-0.2-0.3-0.3-0.4-0.5
					c-0.1-0.2-0.2-0.4-0.2-0.6c0-0.2,0-0.4,0-0.6c0-0.2,0.1-0.3,0.2-0.5c0.1-0.2,0.3-0.3,0.5-0.4c0.4-0.2,0.8-0.3,1.2-0.1
					c0.4,0.1,0.7,0.4,0.9,0.8c0.1,0.1,0.1,0.2,0.2,0.3c0,0.1,0,0.2,0.1,0.3c0,0.1,0,0.2,0.1,0.3c0,0,0,0.1,0.1,0.1
					C-190.6-1108.9-190.5-1108.9-190.4-1108.9L-190.4-1108.9z"/>
				<path id="XMLID_338_" style="clip-path:url(#XMLID_00000101090412331662096730000012686982901719792515_);fill:#1E2757;" d="
					M-189.8-1106.8l-1.1,0.4l0,0.1c0.1,0.2,0.2,0.3,0.3,0.3c0.1,0,0.3,0,0.5,0l0,0.1l-1.4,0.6l0-0.1c0.1-0.1,0.3-0.2,0.3-0.2
					c0.1-0.1,0.1-0.2,0.1-0.3c0-0.1,0-0.2-0.1-0.3l-0.7,0.3c-0.1,0.1-0.2,0.1-0.3,0.1c0,0,0,0.1-0.1,0.1c0,0,0,0.1,0,0.2l0.1,0.2
					c0.1,0.2,0.2,0.4,0.4,0.5c0.2,0.1,0.4,0.1,0.7,0.1l0,0.1l-0.9,0.2l-0.9-2.3l0.1,0l0,0.1c0,0.1,0.1,0.1,0.1,0.2c0,0,0.1,0,0.1,0
					c0,0,0.1,0,0.3-0.1l1.7-0.7c0.1,0,0.2-0.1,0.2-0.1c0,0,0.1-0.1,0.1-0.1c0-0.1,0-0.1,0-0.2l0-0.1l0.1,0l0.9,2.2l-0.8,0.3l0-0.1
					c0.2-0.1,0.3-0.2,0.3-0.3c0.1-0.1,0.1-0.2,0.1-0.4c0-0.1,0-0.2-0.1-0.4L-189.8-1106.8z"/>
				<path id="XMLID_337_" style="clip-path:url(#XMLID_00000101090412331662096730000012686982901719792515_);fill:#1E2757;" d="
					M-226.9-1092.5l-1.7,1.7l1.3-0.1c0.2,0,0.3-0.1,0.4-0.1c0.1-0.1,0.1-0.2,0.1-0.4l0.1,0l0.1,1l-0.1,0c0-0.1-0.1-0.2-0.1-0.3
					c0,0-0.1-0.1-0.1-0.1c-0.1,0-0.2,0-0.3,0l-2.6,0.3l0-0.1l2.3-2.4l-2,0.2c-0.2,0-0.3,0.1-0.3,0.2c-0.1,0.1-0.1,0.2-0.1,0.3l0,0.1
					l-0.1,0l-0.1-1.1l0.1,0c0,0.2,0.1,0.3,0.1,0.3c0.1,0.1,0.2,0.1,0.4,0.1l2.2-0.2l0.1-0.1c0.1-0.1,0.1-0.1,0.1-0.2
					c0-0.1,0-0.1,0-0.2l0.1,0L-226.9-1092.5z"/>
				<path id="XMLID_334_" style="clip-path:url(#XMLID_00000101090412331662096730000012686982901719792515_);fill:#1E2757;" d="
					M-226.3-1088.7c0.1,0.5,0.1,0.9-0.2,1.3c-0.2,0.4-0.6,0.6-1,0.7c-0.4,0.1-0.7,0-1.1-0.1c-0.5-0.2-0.7-0.6-0.9-1.1
					c-0.1-0.5,0-1,0.3-1.4c0.2-0.3,0.6-0.5,1-0.6c0.4-0.1,0.9,0,1.2,0.2C-226.6-1089.5-226.4-1089.1-226.3-1088.7 M-226.4-1088.6
					c-0.1-0.3-0.2-0.5-0.6-0.5c-0.3-0.1-0.6-0.1-1,0c-0.5,0.1-0.9,0.3-1.1,0.5c-0.1,0.2-0.2,0.4-0.1,0.6c0,0.2,0.1,0.3,0.2,0.4
					c0.1,0.1,0.3,0.2,0.5,0.2c0.2,0,0.5,0,0.8-0.1c0.4-0.1,0.7-0.2,0.9-0.3c0.2-0.1,0.3-0.2,0.4-0.4
					C-226.4-1088.3-226.4-1088.5-226.4-1088.6"/>
				<path id="XMLID_331_" style="clip-path:url(#XMLID_00000101090412331662096730000012686982901719792515_);fill:#1E2757;" d="
					M-227.2-1085.3l-0.8,0.3c-0.2,0.1-0.3,0.1-0.3,0.1c0,0-0.1,0.1-0.1,0.1c0,0.1,0,0.2,0.1,0.3l-0.1,0l-0.5-1.5l0.1,0
					c0,0.1,0.1,0.2,0.1,0.3c0,0,0.1,0.1,0.1,0.1c0,0,0.1,0,0.3-0.1l1.9-0.6c0.2-0.1,0.3-0.1,0.3-0.1c0,0,0.1-0.1,0.1-0.1
					c0-0.1,0-0.2-0.1-0.3l0.1,0l0.4,1.4c0.1,0.4,0.2,0.6,0.2,0.8c0,0.2,0,0.3-0.1,0.5c-0.1,0.1-0.2,0.3-0.4,0.3
					c-0.2,0.1-0.4,0.1-0.6-0.1c-0.1-0.1-0.2-0.2-0.3-0.4l-0.8,1c-0.1,0.1-0.2,0.2-0.2,0.3c0,0.1,0,0.2,0,0.2l-0.1,0l-0.3-0.9l1-1.4
					L-227.2-1085.3z M-225.8-1085.8l-1.3,0.4l0,0.1c0.1,0.2,0.1,0.4,0.2,0.4c0.1,0.1,0.2,0.1,0.3,0.2c0.1,0,0.3,0,0.4,0
					c0.2-0.1,0.4-0.2,0.4-0.3c0.1-0.1,0.1-0.3,0-0.6L-225.8-1085.8z"/>
				<path id="XMLID_330_" style="clip-path:url(#XMLID_00000101090412331662096730000012686982901719792515_);fill:#1E2757;" d="
					M-223.8-1081.2l-0.8,0.3l0-0.1c0.2-0.1,0.3-0.2,0.3-0.3c0.1-0.1,0.1-0.2,0.1-0.3c0-0.1,0-0.2-0.1-0.3l-0.1-0.2l-2.2,1
					c-0.1,0.1-0.2,0.1-0.3,0.1c0,0,0,0.1-0.1,0.1c0,0.1,0,0.1,0,0.2l0,0.1l-0.1,0l-0.7-1.5l0.1,0l0,0.1c0,0.1,0.1,0.1,0.1,0.2
					c0,0,0.1,0,0.1,0c0,0,0.1,0,0.3-0.1l2.2-1l-0.1-0.2c-0.1-0.2-0.2-0.3-0.3-0.4c-0.2-0.1-0.4-0.1-0.6,0l0-0.1l0.8-0.3
					L-223.8-1081.2z"/>
				<path id="XMLID_329_" style="clip-path:url(#XMLID_00000101090412331662096730000012686982901719792515_);fill:#1E2757;" d="
					M-224.5-1079.3l-0.8,0.5c-0.1,0.1-0.2,0.1-0.2,0.2c0,0,0,0.1,0,0.1c0,0.1,0,0.1,0.1,0.2l0.1,0.1l-0.1,0l-0.8-1.4l0.1,0l0.1,0.1
					c0,0.1,0.1,0.1,0.2,0.2c0,0,0.1,0,0.1,0c0,0,0.1,0,0.3-0.1l1.8-1.1c0.1-0.1,0.2-0.1,0.2-0.2c0,0,0-0.1,0-0.1
					c0-0.1,0-0.1-0.1-0.2l-0.1-0.1l0.1,0l0.8,1.4l-0.1,0l-0.1-0.1c0-0.1-0.1-0.1-0.2-0.2c0,0-0.1,0-0.1,0c0,0-0.1,0.1-0.3,0.1
					l-0.8,0.5l0.6,0.9l0.8-0.5c0.1-0.1,0.2-0.1,0.2-0.2c0,0,0-0.1,0-0.1c0-0.1,0-0.1-0.1-0.2l-0.1-0.1l0.1,0l0.8,1.4l-0.1,0
					l-0.1-0.1c0-0.1-0.1-0.1-0.2-0.2c0,0-0.1,0-0.1,0c0,0-0.1,0-0.3,0.1l-1.8,1.1c-0.1,0.1-0.2,0.1-0.2,0.2c0,0,0,0.1,0,0.1
					c0,0.1,0,0.1,0.1,0.2l0,0.1l-0.1,0l-0.8-1.4l0.1,0l0,0.1c0,0.1,0.1,0.1,0.2,0.2c0,0,0.1,0,0.1,0c0,0,0.1,0,0.3-0.1l0.8-0.5
					L-224.5-1079.3z"/>
				<path id="XMLID_328_" style="clip-path:url(#XMLID_00000101090412331662096730000012686982901719792515_);fill:#1E2757;" d="
					M-219.1-1074.9l-0.7,0.7l-0.1-0.1c0.2-0.2,0.2-0.4,0.2-0.7c0-0.2-0.1-0.4-0.2-0.6c-0.1-0.1-0.2-0.2-0.3-0.2
					c-0.1,0-0.2,0-0.3,0.1c-0.1,0-0.1,0.1-0.1,0.2c0,0.1,0,0.2,0,0.3c0,0.1,0.1,0.3,0.1,0.5c0.1,0.4,0.2,0.7,0.1,0.9
					c0,0.2-0.1,0.4-0.3,0.5c-0.2,0.2-0.4,0.3-0.7,0.2c-0.3,0-0.5-0.1-0.7-0.4c-0.1-0.1-0.1-0.1-0.2-0.2c0-0.1-0.1-0.2-0.1-0.3
					c0-0.1-0.1-0.1-0.1-0.2c0,0-0.1,0-0.1-0.1c-0.1,0-0.1,0-0.2,0l-0.1-0.1l0.9-0.8l0.1,0.1c-0.2,0.3-0.3,0.5-0.3,0.8
					c0,0.3,0.1,0.5,0.2,0.6c0.1,0.1,0.2,0.2,0.4,0.2c0.1,0,0.3,0,0.3-0.1c0.1,0,0.1-0.1,0.1-0.2c0-0.1,0-0.2,0-0.3
					c0-0.1,0-0.3-0.1-0.5c-0.1-0.3-0.1-0.5-0.2-0.7c0-0.2,0-0.3,0-0.4c0-0.1,0.1-0.2,0.2-0.3c0.2-0.2,0.4-0.2,0.6-0.2
					c0.3,0,0.5,0.1,0.7,0.3c0.1,0.1,0.1,0.2,0.2,0.2c0,0.1,0.1,0.2,0.1,0.3c0,0.1,0.1,0.2,0.1,0.2c0,0,0.1,0,0.1,0
					C-219.3-1074.9-219.2-1074.9-219.1-1074.9L-219.1-1074.9z"/>
				<path id="XMLID_325_" style="clip-path:url(#XMLID_00000101090412331662096730000012686982901719792515_);fill:#1E2757;" d="
					M-217.6-1073.6c0.4,0.3,0.6,0.7,0.7,1.1c0.1,0.4-0.1,0.8-0.3,1.2c-0.2,0.3-0.6,0.5-0.9,0.6c-0.5,0.1-0.9,0-1.4-0.3
					c-0.4-0.3-0.7-0.8-0.7-1.3c0-0.4,0.1-0.7,0.4-1.1c0.3-0.4,0.6-0.6,1.1-0.6C-218.3-1074-217.9-1073.9-217.6-1073.6
					 M-217.6-1073.4c-0.2-0.2-0.5-0.2-0.8-0.1c-0.2,0.1-0.5,0.3-0.8,0.7c-0.3,0.4-0.5,0.8-0.5,1.1c0,0.2,0.1,0.4,0.3,0.5
					c0.1,0.1,0.2,0.1,0.4,0.2c0.2,0,0.3-0.1,0.5-0.2c0.2-0.1,0.4-0.3,0.6-0.6c0.3-0.3,0.4-0.6,0.5-0.8c0.1-0.2,0.1-0.4,0-0.5
					C-217.4-1073.2-217.5-1073.3-217.6-1073.4"/>
				<path id="XMLID_324_" style="clip-path:url(#XMLID_00000101090412331662096730000012686982901719792515_);fill:#1E2757;" d="
					M-216.3-1072.5l1.4,0.7l0,0.1l-0.1,0c-0.1-0.1-0.2-0.1-0.2-0.1c0,0-0.1,0-0.1,0c0,0-0.1,0.1-0.2,0.3l-0.7,1.3
					c-0.1,0.2-0.2,0.4-0.2,0.5c0,0.1,0,0.2,0.1,0.3c0.1,0.1,0.1,0.2,0.3,0.3c0.1,0.1,0.3,0.1,0.4,0.1c0.1,0,0.3-0.1,0.4-0.2
					c0.1-0.1,0.2-0.3,0.4-0.6l0.6-1.1c0.1-0.1,0.1-0.2,0.1-0.3c0-0.1,0-0.1,0-0.2c0-0.1-0.1-0.1-0.2-0.2l0-0.1l1,0.5l0,0.1l-0.1,0
					c-0.1,0-0.1-0.1-0.2-0.1c-0.1,0-0.1,0-0.2,0.1c0,0-0.1,0.1-0.1,0.2l-0.5,1c-0.2,0.3-0.3,0.5-0.4,0.7c-0.1,0.1-0.3,0.2-0.5,0.2
					c-0.2,0-0.5,0-0.8-0.2c-0.2-0.1-0.4-0.3-0.5-0.4c-0.1-0.2-0.2-0.4-0.2-0.5c0-0.2,0.1-0.4,0.2-0.6l0.7-1.3
					c0.1-0.2,0.1-0.3,0.1-0.3c0,0,0-0.1,0-0.1C-216.1-1072.3-216.2-1072.3-216.3-1072.5L-216.3-1072.5z"/>
				<path id="XMLID_323_" style="clip-path:url(#XMLID_00000101090412331662096730000012686982901719792515_);fill:#1E2757;" d="
					M-210.8-1070.2l-0.2,0.8l-0.1,0c0-0.2,0-0.3,0-0.4c0-0.1-0.1-0.2-0.2-0.3c0,0-0.1-0.1-0.3-0.1l-0.2-0.1l-0.7,2.3
					c0,0.2-0.1,0.3-0.1,0.3c0,0,0,0.1,0.1,0.1c0,0,0.1,0.1,0.2,0.1l0.1,0l0,0.1l-1.6-0.5l0-0.1l0.1,0c0.1,0,0.2,0,0.2,0
					c0,0,0.1,0,0.1-0.1c0,0,0.1-0.1,0.1-0.3l0.7-2.3l-0.2-0.1c-0.2-0.1-0.4-0.1-0.5,0c-0.2,0.1-0.3,0.2-0.4,0.4l-0.1,0l0.2-0.8
					L-210.8-1070.2z"/>
				<path id="XMLID_322_" style="clip-path:url(#XMLID_00000101090412331662096730000012686982901719792515_);fill:#1E2757;" d="
					M-209.7-1068.5l-0.1,1c0,0.2,0,0.3,0,0.3c0,0,0,0.1,0.1,0.1c0,0,0.1,0.1,0.2,0.1l0.1,0l0,0.1l-1.6-0.1l0-0.1l0.1,0
					c0.1,0,0.2,0,0.2,0c0,0,0.1-0.1,0.1-0.1c0,0,0-0.1,0-0.3l0.1-2c0-0.2,0-0.3,0-0.3c0,0,0-0.1-0.1-0.1c0,0-0.1-0.1-0.2-0.1l-0.1,0
					l0-0.1l1.6,0.1l0,0.1l-0.1,0c-0.1,0-0.2,0-0.2,0c0,0-0.1,0.1-0.1,0.1c0,0,0,0.1,0,0.3l-0.1,0.9l1.1,0.1l0.1-0.9
					c0-0.2,0-0.3,0-0.3c0,0,0-0.1-0.1-0.1c0,0-0.1-0.1-0.2-0.1l-0.1,0l0-0.1l1.6,0.1l0,0.1l-0.1,0c-0.1,0-0.2,0-0.2,0
					c0,0-0.1,0.1-0.1,0.1c0,0,0,0.1,0,0.3l-0.1,2c0,0.2,0,0.3,0,0.3c0,0,0,0.1,0.1,0.1c0,0,0.1,0,0.2,0.1l0.1,0l0,0.1l-1.6-0.1
					l0-0.1l0.1,0c0.1,0,0.2,0,0.2,0c0,0,0.1-0.1,0.1-0.1c0,0,0-0.1,0-0.3l0.1-1L-209.7-1068.5z"/>
				<path id="XMLID_321_" style="clip-path:url(#XMLID_00000101090412331662096730000012686982901719792515_);fill:#1E2757;" d="
					M-203.2-1070.8l1.4-0.7l0,0.1l-0.1,0c-0.1,0.1-0.2,0.1-0.2,0.1c0,0,0,0.1,0,0.1c0,0,0,0.2,0.1,0.3l0.7,1.4
					c0.1,0.3,0.2,0.4,0.3,0.5c0.1,0.1,0.2,0.1,0.3,0.1c0.1,0,0.2,0,0.4-0.1c0.1-0.1,0.3-0.2,0.3-0.3c0.1-0.1,0.1-0.3,0.1-0.4
					c0-0.1-0.1-0.4-0.2-0.7l-0.6-1.1c-0.1-0.1-0.1-0.2-0.2-0.3c-0.1,0-0.1-0.1-0.2-0.1c-0.1,0-0.2,0-0.3,0.1l0-0.1l1-0.5l0,0.1
					l-0.1,0c-0.1,0-0.1,0.1-0.2,0.1c0,0.1-0.1,0.1,0,0.2c0,0.1,0,0.1,0.1,0.2l0.5,1.1c0.2,0.3,0.3,0.6,0.3,0.7c0,0.2,0,0.4-0.1,0.6
					c-0.1,0.2-0.3,0.4-0.6,0.5c-0.2,0.1-0.4,0.2-0.6,0.2c-0.2,0-0.4,0-0.5-0.2c-0.1-0.1-0.3-0.3-0.4-0.5l-0.7-1.4
					c-0.1-0.2-0.1-0.3-0.2-0.3c0,0-0.1,0-0.1-0.1C-202.9-1070.8-203-1070.8-203.2-1070.8L-203.2-1070.8z"/>
				<path id="XMLID_320_" style="clip-path:url(#XMLID_00000101090412331662096730000012686982901719792515_);fill:#1E2757;" d="
					M-199.5-1072.8l2.4,0.6l-0.8-1.1c-0.1-0.1-0.2-0.2-0.3-0.3c-0.1,0-0.2,0-0.4,0.1l0-0.1l0.8-0.6l0.1,0.1
					c-0.1,0.1-0.2,0.2-0.2,0.2c0,0.1,0,0.1,0,0.2c0,0.1,0.1,0.2,0.2,0.3l1.5,2.1l-0.1,0l-3.2-0.8l1.2,1.6c0.1,0.1,0.2,0.2,0.3,0.2
					c0.1,0,0.2,0,0.3-0.1l0.1,0l0.1,0.1l-0.9,0.7l-0.1-0.1c0.1-0.1,0.2-0.2,0.2-0.3c0-0.1,0-0.2-0.1-0.3l-1.3-1.8l-0.1,0
					c-0.1,0-0.2,0-0.2,0c-0.1,0-0.1,0-0.2,0.1l-0.1-0.1L-199.5-1072.8z"/>
				<path id="XMLID_319_" style="clip-path:url(#XMLID_00000101090412331662096730000012686982901719792515_);fill:#1E2757;" d="
					M-194.5-1073.1L-194.5-1073.1l-1.1,1.2l-0.1-0.1l0.1-0.1c0.1-0.1,0.1-0.1,0.1-0.2c0,0,0-0.1,0-0.1c0,0-0.1-0.1-0.2-0.2l-1.4-1.5
					c-0.1-0.1-0.2-0.2-0.2-0.2c0,0-0.1,0-0.1,0c-0.1,0-0.1,0.1-0.2,0.1l-0.1,0.1l-0.1-0.1l1.2-1.1l0.1,0.1l-0.1,0.1
					c-0.1,0.1-0.1,0.1-0.1,0.2c0,0,0,0.1,0,0.1c0,0,0.1,0.1,0.2,0.2l1.4,1.5c0.1,0.1,0.2,0.2,0.2,0.2c0,0,0.1,0,0.1,0
					C-194.7-1072.9-194.7-1072.9-194.5-1073.1L-194.5-1073.1z"/>
				<path id="XMLID_318_" style="clip-path:url(#XMLID_00000101090412331662096730000012686982901719792515_);fill:#1E2757;" d="
					M-194.5-1077.8L-194.5-1077.8c0,0.2,0,0.3,0,0.4c0,0.1,0.1,0.3,0.2,0.6l1.1,2.3l0,0.1l-2.6-0.8c-0.3-0.1-0.5-0.1-0.6-0.1
					c-0.1,0-0.1,0-0.2,0.1l-0.1-0.1l1-1.1l0.1,0.1l0,0c-0.1,0.1-0.1,0.2-0.1,0.2c0,0,0,0.1,0,0.1c0,0,0,0,0.1,0c0,0,0.1,0,0.3,0.1
					l1.6,0.5l-0.7-1.4c-0.1-0.2-0.1-0.3-0.2-0.3c0-0.1-0.1-0.1-0.1-0.1c0,0-0.1,0-0.1-0.1c0,0-0.1,0-0.1,0c-0.1,0-0.1,0.1-0.2,0.2
					l-0.1-0.1L-194.5-1077.8z"/>
				<path id="XMLID_317_" style="clip-path:url(#XMLID_00000101090412331662096730000012686982901719792515_);fill:#1E2757;" d="
					M-193.7-1078.7l1.1,0.7l0-0.1c0.1-0.2,0.1-0.3,0.1-0.5c-0.1-0.1-0.2-0.3-0.4-0.4l0-0.1l1.4,0.9l0,0.1c-0.2-0.1-0.3-0.1-0.4-0.1
					c-0.1,0-0.2,0-0.3,0c-0.1,0-0.2,0.1-0.2,0.3l0.7,0.5c0.1,0.1,0.2,0.1,0.3,0.1c0,0,0.1,0,0.1,0c0,0,0.1-0.1,0.1-0.1l0.1-0.2
					c0.2-0.2,0.2-0.5,0.2-0.7c0-0.2-0.1-0.4-0.3-0.6l0-0.1l0.8,0.6l-1.4,2.3l-0.1,0l0.1-0.1c0-0.1,0.1-0.1,0.1-0.2c0,0,0-0.1,0-0.1
					c0,0-0.1-0.1-0.2-0.2l-1.7-1.1c-0.1-0.1-0.2-0.1-0.2-0.1c-0.1,0-0.1,0-0.2,0c-0.1,0-0.1,0.1-0.2,0.2l-0.1,0.1l-0.1,0l1.4-2.2
					l0.8,0.5l0,0.1c-0.2-0.1-0.4-0.1-0.5-0.1c-0.1,0-0.2,0.1-0.4,0.2c-0.1,0.1-0.2,0.2-0.3,0.4L-193.7-1078.7z"/>
				<path id="XMLID_314_" style="clip-path:url(#XMLID_00000101090412331662096730000012686982901719792515_);fill:#1E2757;" d="
					M-190.9-1080.6l0.8,0.4c0.1,0.1,0.3,0.1,0.3,0.1c0,0,0.1,0,0.1-0.1c0,0,0.1-0.1,0.2-0.2l0.1,0l-0.7,1.4l-0.1,0
					c0.1-0.1,0.1-0.2,0.1-0.3c0-0.1,0-0.1,0-0.1c0,0-0.1-0.1-0.3-0.2l-1.8-0.9c-0.2-0.1-0.3-0.1-0.3-0.1c0,0-0.1,0-0.1,0.1
					c0,0-0.1,0.1-0.2,0.2l-0.1,0l0.6-1.3c0.2-0.3,0.3-0.6,0.4-0.7c0.1-0.1,0.3-0.2,0.4-0.3c0.2,0,0.3,0,0.5,0.1
					c0.2,0.1,0.3,0.3,0.4,0.5c0,0.1,0,0.3,0,0.5l1.3-0.2c0.2,0,0.3-0.1,0.3-0.1c0.1,0,0.1-0.1,0.2-0.2l0.1,0l-0.4,0.9l-1.7,0.3
					L-190.9-1080.6z M-192.2-1081.2l1.2,0.6l0.1-0.1c0.1-0.2,0.1-0.3,0.2-0.5c0-0.1,0-0.2-0.1-0.3c-0.1-0.1-0.2-0.2-0.3-0.3
					c-0.2-0.1-0.4-0.1-0.5-0.1c-0.2,0.1-0.3,0.2-0.4,0.4L-192.2-1081.2z"/>
				<path id="XMLID_313_" style="clip-path:url(#XMLID_00000101090412331662096730000012686982901719792515_);fill:#1E2757;" d="
					M-190.8-1085.2l1,0.3l0,0.1c-0.3-0.1-0.5,0-0.7,0.1c-0.2,0.1-0.3,0.3-0.4,0.4c-0.1,0.1-0.1,0.3,0,0.4c0,0.1,0.1,0.2,0.2,0.2
					c0.1,0,0.1,0,0.2,0c0.1,0,0.2-0.1,0.3-0.1c0.1,0,0.2-0.2,0.4-0.4c0.3-0.3,0.5-0.5,0.7-0.5c0.2-0.1,0.4-0.1,0.6,0
					c0.2,0.1,0.4,0.3,0.5,0.5c0.1,0.3,0.1,0.5,0,0.8c0,0.1-0.1,0.2-0.1,0.2c0,0.1-0.1,0.2-0.2,0.3c-0.1,0.1-0.1,0.1-0.1,0.2
					c0,0,0,0.1,0,0.1c0,0.1,0,0.1,0.1,0.1l0,0.1l-1.1-0.4l0-0.1c0.3,0.1,0.6,0,0.8-0.1c0.2-0.1,0.4-0.3,0.5-0.5
					c0.1-0.2,0.1-0.3,0-0.4c-0.1-0.1-0.1-0.2-0.3-0.3c-0.1,0-0.1,0-0.2,0c-0.1,0-0.2,0-0.2,0.1c-0.1,0.1-0.2,0.2-0.4,0.3
					c-0.2,0.2-0.4,0.4-0.5,0.4c-0.1,0.1-0.3,0.1-0.4,0.2c-0.1,0-0.3,0-0.4,0c-0.2-0.1-0.4-0.2-0.5-0.5c-0.1-0.2-0.1-0.5,0-0.7
					c0-0.1,0.1-0.2,0.1-0.3c0-0.1,0.1-0.1,0.2-0.2c0.1-0.1,0.1-0.1,0.1-0.2c0,0,0-0.1,0-0.1
					C-190.7-1085.1-190.8-1085.1-190.8-1085.2L-190.8-1085.2z"/>
				<path id="XMLID_312_" style="clip-path:url(#XMLID_00000101090412331662096730000012686982901719792515_);fill:#1E2757;" d="
					M-187.3-1086.3L-187.3-1086.3l-0.4,1.6l-0.1,0l0-0.1c0-0.1,0-0.2,0-0.2c0,0,0-0.1-0.1-0.1c0,0-0.1-0.1-0.3-0.1l-2-0.6
					c-0.2,0-0.3-0.1-0.3-0.1c0,0-0.1,0-0.1,0.1c0,0-0.1,0.1-0.1,0.2l0,0.1l-0.1,0l0.5-1.6l0.1,0l0,0.1c0,0.1,0,0.2,0,0.2
					c0,0,0,0.1,0.1,0.1c0,0,0.1,0.1,0.3,0.1l2,0.6c0.1,0,0.2,0.1,0.3,0.1c0,0,0.1,0,0.1-0.1c0,0,0.1-0.1,0.1-0.2L-187.3-1086.3z"/>
				<path id="XMLID_311_" style="clip-path:url(#XMLID_00000101090412331662096730000012686982901719792515_);fill:#1E2757;" d="
					M-189.5-1090l0.8,0.2l0,0.1c-0.2,0-0.3,0-0.4,0.1c-0.1,0-0.2,0.1-0.2,0.2c0,0-0.1,0.1-0.1,0.3l0,0.2l2.3,0.5c0.2,0,0.3,0,0.3,0
					c0,0,0.1,0,0.1-0.1c0,0,0.1-0.1,0.1-0.2l0-0.1l0.1,0l-0.3,1.6l-0.1,0l0-0.1c0-0.1,0-0.2,0-0.2c0,0,0-0.1-0.1-0.1
					c0,0-0.1-0.1-0.3-0.1l-2.3-0.5l0,0.2c0,0.2,0,0.4,0,0.5c0.1,0.2,0.2,0.3,0.5,0.4l0,0.1l-0.8-0.2L-189.5-1090z"/>
				<path id="XMLID_310_" style="clip-path:url(#XMLID_00000101090412331662096730000012686982901719792515_);fill:#1E2757;" d="
					M-189.1-1093.4L-189.1-1093.4c0.1,0.1,0.1,0.2,0.1,0.3c0.1,0.1,0.2,0.2,0.5,0.4l1,0.8l0.7,0.1c0.2,0,0.3,0,0.3,0
					c0,0,0.1,0,0.1-0.1c0,0,0.1-0.1,0.1-0.2l0-0.2l0.1,0l-0.2,1.7l-0.1,0l0-0.2c0-0.1,0-0.2,0-0.2c0,0,0-0.1-0.1-0.1
					c0,0-0.1,0-0.3-0.1l-0.6-0.1l-1.4,0.6c-0.3,0.1-0.4,0.2-0.5,0.2c-0.1,0.1-0.1,0.1-0.1,0.2l-0.1,0l0.2-1.5l0.1,0l0,0.1
					c0,0.1,0,0.2,0,0.2c0,0,0,0.1,0.1,0.1c0.1,0,0.2,0,0.4-0.1l1.1-0.4l-0.9-0.7c-0.2-0.2-0.4-0.3-0.4-0.3c0,0-0.1,0-0.1,0
					c0,0-0.1,0.1-0.1,0.3l-0.1,0L-189.1-1093.4z"/>
				<path id="XMLID_309_" style="clip-path:url(#XMLID_00000101090412331662096730000012686982901719792515_);fill:#FFFFFF;" d="
					M-191.4-1094.1c0,12.1-7.5,21.9-16.8,21.9c-9.2,0-16.8-9.8-16.8-21.9c0-12.1,7.5-21.9,16.8-21.9
					C-198.9-1115.9-191.4-1106.1-191.4-1094.1"/>
				<path id="XMLID_306_" style="clip-path:url(#XMLID_00000101090412331662096730000012686982901719792515_);fill:#1E2757;" d="
					M-227.5-1100.2c0,0,1.4-1-0.5-2.8c-0.4,0.7-1,1.6-0.5,2.6c0,0.1,0.2,0.2,0.2,0.2v0.3h-0.5v4.2h1.7v-4.3h-0.5V-1100.2z
					 M-227.8-1100.5c-0.8-0.4-0.1-1.9-0.1-1.9c0.3,0.3,0.5,0.9,0.5,1.2C-227.4-1100.6-227.7-1100.5-227.8-1100.5"/>
				<path id="XMLID_303_" style="clip-path:url(#XMLID_00000101090412331662096730000012686982901719792515_);fill:#1E2757;" d="
					M-188-1099.9c1.3-0.7,0.3-2.3,0-3c-2,1.9-0.6,3-0.6,3v0.3h-0.7v4.3h1.7v-4.3h-0.5V-1099.9z M-188.3-1100.4
					c-1-0.4,0.1-1.8,0.1-1.8c0.4,0.4,0.6,1.1,0.5,1.2C-187.8-1100.5-188.2-1100.4-188.3-1100.4"/>
				<path id="XMLID_302_" style="clip-path:url(#XMLID_00000101090412331662096730000012686982901719792515_);fill:#1E2757;" d="
					M-215.7-1104.8v-7.6c0,0,2.9-1.8,7.5,1c0.8-0.5,3.6-2.4,8-1.1v8c0,0-7.2-1.7-7.4,1.8h-1C-208.4-1102.7-208-1105.2-215.7-1104.8"
					/>
				<path id="XMLID_301_" style="clip-path:url(#XMLID_00000101090412331662096730000012686982901719792515_);fill:#FFFFFF;" d="
					M-214.3-1106v-5.8c0,0,4.2-0.4,6,1.7v5.1C-208.3-1105-209.7-1106-214.3-1106"/>
				<path id="XMLID_300_" style="clip-path:url(#XMLID_00000101090412331662096730000012686982901719792515_);fill:#FFFFFF;" d="
					M-201.6-1106v-5.8c0,0-4.2-0.4-6,1.7v5.1C-207.5-1105-206.1-1106-201.6-1106"/>
				<path id="XMLID_299_" style="clip-path:url(#XMLID_00000101090412331662096730000012686982901719792515_);fill:#00ADE4;" d="
					M-221.8-1098.8v13c0,0.5,1.4,9.6,13.7,10.8c0,0,10.4,0.3,13.9-10.8v-12.7h-2.3v12.7c0,0-2.4,8.7-11.3,8.7
					c-1.8,0-9.4-0.2-11.9-8.7v-13H-221.8z"/>
				<path id="XMLID_298_" style="clip-path:url(#XMLID_00000101090412331662096730000012686982901719792515_);fill:#1E2757;" d="
					M-218.7-1096.2h-0.5v-2.6h2.7v13c0,0,2.5,5.5,8.5,5.5c1,0,5.5,0.2,8.5-5.8v-12.4h2.6v2.5h-0.4v10.2c0,0-2.5,7.5-10.8,7.7
					c-1.2,0-7.4,0.1-10.6-7.7C-218.7-1090.8-218.7-1096.2-218.7-1096.2"/>
				<path id="XMLID_297_" style="clip-path:url(#XMLID_00000101090412331662096730000012686982901719792515_);fill:#1E2757;" d="
					M-211.8-1110.4l-0.2,1l-0.1-0.1c0-0.1,0-0.1-0.1-0.2c0,0,0,0,0-0.1c-0.1,0.1-0.2,0.1-0.3,0.1c-0.1,0-0.2,0-0.2-0.1
					c0,0,0-0.1-0.1-0.1c0,0,0-0.1-0.1-0.2c0-0.1,0-0.2,0-0.2l0.1,0c0,0.1,0,0.2,0,0.2c0,0.1,0,0.1,0.1,0.1c0,0.1,0.1,0.1,0.1,0.1
					c0,0,0.1,0,0.1,0c0.1,0,0.1-0.1,0.2-0.1c0,0,0,0,0-0.1c0,0,0-0.1,0-0.1l0,0c0,0,0,0,0,0c0,0-0.1,0.1-0.1,0.1c0,0-0.1,0-0.1,0
					c0,0,0-0.1,0-0.1c0-0.1,0-0.1,0.1-0.1c0,0,0.1,0,0.1,0c0.1,0,0.2,0,0.2,0.1c0,0.1,0,0.1,0,0.2c0,0,0,0.1,0,0.1l0,0.1l0.1-0.5
					h-0.9l-0.1-0.1h1.2l0.1,0.1H-211.8z"/>
				<path id="XMLID_296_" style="clip-path:url(#XMLID_00000101090412331662096730000012686982901719792515_);fill:#1E2757;" d="
					M-209.7-1109.6l-0.2,1l-0.1-0.1c0-0.1,0-0.1-0.1-0.2c0,0,0,0-0.1-0.1c-0.1,0.1-0.2,0.1-0.3,0.1c-0.1,0-0.2,0-0.2-0.1
					c0,0,0-0.1-0.1-0.1c0,0,0-0.1-0.1-0.2c0-0.1,0-0.2,0-0.2l0.1,0c0,0.1,0,0.1,0,0.2c0,0.1,0,0.1,0.1,0.1c0,0.1,0.1,0.1,0.1,0.1
					c0,0,0.1,0,0.2,0c0.1,0,0.1,0,0.2-0.1c0,0,0-0.1,0-0.1c0,0,0-0.1,0-0.1h0c0,0,0,0,0,0c0,0-0.1,0.1-0.1,0.1c0,0-0.1,0-0.1,0
					c0,0,0-0.1,0-0.1c0-0.1,0-0.1,0.1-0.1c0,0,0.1,0,0.1,0c0.1,0,0.2,0.1,0.2,0.1c0,0.1,0,0.1,0,0.2c0,0,0,0.1,0,0.1l0,0.1l0.1-0.5
					h-0.9l-0.1-0.1h1.2l0.1,0.1H-209.7z"/>
				<path id="XMLID_295_" style="clip-path:url(#XMLID_00000101090412331662096730000012686982901719792515_);fill:#1E2757;" d="
					M-209.5-1109.6L-209.5-1109.6c0-0.1,0-0.2,0-0.3l0.1,0.1c0,0,0,0,0,0c0,0,0,0,0,0.1c0,0,0,0,0,0h0.1l0.1,0.1h-0.2l-0.2,1
					l-0.1-0.1l0.1-0.7c0,0,0,0,0,0C-209.6-1109.5-209.6-1109.5-209.5-1109.6c-0.1,0.1-0.1,0.1-0.2,0.1h0l-0.1-0.1c0.1,0,0.1,0,0.1,0
					C-209.6-1109.7-209.5-1109.7-209.5-1109.6"/>
				<path id="XMLID_292_" style="clip-path:url(#XMLID_00000101090412331662096730000012686982901719792515_);fill:#1E2757;" d="
					M-212-1107.5c0,0,0-0.1,0-0.1c0,0-0.1-0.1-0.1-0.1l-0.2,0.8l-0.1-0.1c0-0.1,0-0.1,0-0.1c0,0,0-0.1,0-0.1
					c-0.1-0.1-0.2-0.2-0.3-0.2l-0.1-0.2c0.2-0.1,0.4-0.2,0.6-0.3l0,0h-0.5l-0.1-0.1h1.1l0.1,0.1h-0.4l0,0c0.1,0,0.1,0,0.2,0.1
					c0,0.1,0.1,0.1,0.1,0.2c0,0.1,0,0.2-0.1,0.2c0,0-0.1,0.1-0.1,0.1c0,0-0.1,0-0.1,0c0,0,0,0,0-0.1c0-0.1,0-0.1,0.1-0.1
					C-212.1-1107.5-212.1-1107.5-212-1107.5C-212-1107.5-212-1107.5-212-1107.5 M-212.3-1107.7c-0.1,0-0.1,0.1-0.2,0.1
					c0,0,0,0-0.1,0.1c0.1,0.1,0.2,0.1,0.2,0.2L-212.3-1107.7z"/>
				<path id="XMLID_291_" style="clip-path:url(#XMLID_00000101090412331662096730000012686982901719792515_);fill:#1E2757;" d="
					M-209.7-1107.4l-0.2,1l-0.1-0.1c0,0,0,0,0-0.1c0-0.1-0.1-0.2-0.1-0.2c-0.1-0.1-0.2-0.1-0.3-0.1l-0.2-0.3c0.1,0,0.1,0,0.1,0
					c0.1,0,0.1,0,0.2,0c0.1,0,0.1-0.1,0.1-0.1c0,0,0,0,0-0.1l-0.1,0c-0.1,0.1-0.2,0.1-0.3,0.1c0,0-0.1,0-0.1,0c0,0,0,0,0-0.1
					c0,0,0-0.1,0-0.1c0,0,0.1,0,0.1,0c0.1,0,0.1,0,0.1,0.1l0,0c0,0,0.1-0.1,0.2-0.1c0.1,0.1,0.1,0.1,0.1,0.1c0,0,0,0.1,0,0.1
					c0,0.1-0.1,0.2-0.2,0.3c0.1,0,0.1,0.1,0.2,0.2l0.2-0.9l0.1,0.1c0,0,0,0,0,0.1c0,0,0,0,0,0.1c0,0,0,0,0.1,0l0.1,0.1H-209.7z"/>
				<path id="XMLID_288_" style="clip-path:url(#XMLID_00000101090412331662096730000012686982901719792515_);fill:#1E2757;" d="
					M-206.4-1108.3C-206.4-1108.3-206.4-1108.3-206.4-1108.3c-0.1-0.1-0.1-0.1-0.1-0.1c-0.1,0-0.1,0.1-0.1,0.1c0,0-0.1,0-0.1,0
					c-0.1,0-0.2,0-0.3-0.1c-0.1-0.1-0.1-0.2-0.1-0.3c0-0.1,0-0.3,0.2-0.4c0.1-0.1,0.2-0.1,0.3-0.1c0.1,0,0.1,0,0.2,0
					c0.1,0,0.1,0.1,0.1,0.1c0,0,0,0,0,0c0,0,0,0.1,0,0.1c0,0.1,0,0.1,0,0.2c0,0.1,0,0.1,0,0.2c0,0,0,0.1,0.1,0.2
					C-206.3-1108.4-206.3-1108.4-206.4-1108.3L-206.4-1108.3C-206.3-1108.4-206.3-1108.4-206.4-1108.3
					C-206.4-1108.3-206.4-1108.3-206.4-1108.3 M-206.6-1108.9C-206.6-1108.9-206.6-1109-206.6-1108.9c0-0.1,0-0.1,0-0.2
					c0,0,0,0-0.1,0c0,0,0,0,0,0c-0.1,0-0.2,0-0.2,0.1c-0.1,0.1-0.1,0.2-0.1,0.3c0,0.1,0,0.2,0.1,0.2c0,0,0.1,0.1,0.1,0.1
					c0.1,0,0.1,0,0.1,0c0,0,0.1,0,0.1-0.1C-206.6-1108.7-206.6-1108.8-206.6-1108.9"/>
				<path id="XMLID_285_" style="clip-path:url(#XMLID_00000101090412331662096730000012686982901719792515_);fill:#1E2757;" d="
					M-204.9-1109.2c-0.1,0-0.2,0-0.2-0.1c0,0,0,0-0.1,0c0,0,0,0-0.1,0c0,0,0,0,0-0.1c0,0,0,0,0-0.1c0,0,0,0,0-0.1c0-0.1,0-0.2,0-0.3
					v-0.3v-0.2v-0.2c0,0,0-0.1,0-0.1c0,0,0-0.1,0.1-0.1c0,0,0.1,0,0.1,0.1c0,0,0,0,0,0c0,0,0,0,0,0v0.2l0,0.2c0.1,0,0.1-0.1,0.1-0.1
					c0,0,0.1,0,0.1,0c0.1,0,0.2,0,0.3,0.1c0.1,0.1,0.1,0.2,0.1,0.3c0,0.1,0,0.2-0.1,0.3C-204.6-1109.3-204.7-1109.2-204.9-1109.2
					 M-204.8-1110c0,0-0.1,0-0.1,0c0,0-0.1,0-0.1,0.1l0,0.2v0.1l0,0.1c0,0,0.1,0,0.1,0c0,0,0.1,0,0.1,0c0.1,0,0.1,0,0.2-0.1
					c0-0.1,0.1-0.1,0.1-0.2c0-0.1,0-0.2-0.1-0.2C-204.7-1110-204.8-1110-204.8-1110"/>
				<path id="XMLID_284_" style="clip-path:url(#XMLID_00000101090412331662096730000012686982901719792515_);fill:#1E2757;" d="
					M-203.1-1109.9c-0.1,0-0.2,0-0.3-0.1c-0.1-0.1-0.1-0.2-0.2-0.3c0-0.1,0-0.2,0.1-0.4c0.1-0.1,0.2-0.2,0.3-0.2c0.1,0,0.1,0,0.2,0
					c0.1,0,0.1,0.1,0.1,0.1c0,0,0,0,0,0.1c0,0,0,0,0,0c0,0,0,0,0,0c0,0,0,0,0,0c0,0-0.1,0-0.2,0c-0.1,0-0.1,0.1-0.2,0.2
					c0,0.1-0.1,0.2,0,0.3c0,0.1,0,0.1,0.1,0.2c0.1,0,0.1,0,0.2,0c0,0,0.1,0,0.1,0l0.1-0.1c0,0,0,0,0,0c0,0,0,0,0.1,0c0,0,0,0,0,0.1
					c0,0,0,0.1-0.1,0.1C-203-1109.9-203-1109.9-203.1-1109.9"/>
				<path id="XMLID_283_" style="clip-path:url(#XMLID_00000101090412331662096730000012686982901719792515_);fill:#1E2757;" d="
					M-206.3-1106.5h-0.1h-0.1c0,0,0,0-0.1,0c0,0,0,0,0,0c0,0,0-0.1,0.1-0.1l0,0h0c0,0,0-0.1,0-0.1c0,0,0-0.1,0-0.1
					c0-0.1,0-0.1,0-0.2c0-0.1,0-0.2,0-0.2c-0.1,0-0.1,0.1-0.1,0.1c0,0,0,0,0,0c0,0,0,0,0,0c0,0,0,0,0.1-0.1c0,0,0.1,0,0.1-0.1
					c0,0,0.1-0.1,0.1-0.1c0,0,0,0,0,0.1c0,0,0,0,0,0c0,0,0,0,0,0v0.1c0,0,0,0,0,0.1c0,0,0,0.1,0,0.2c0,0.1,0,0.2,0,0.2
					c0,0,0,0.1,0,0.1c0,0,0,0.1,0,0.1h0.1c0,0,0,0,0,0C-206.3-1106.5-206.3-1106.5-206.3-1106.5
					C-206.3-1106.5-206.3-1106.5-206.3-1106.5C-206.3-1106.5-206.3-1106.5-206.3-1106.5"/>
				<path id="XMLID_282_" style="clip-path:url(#XMLID_00000101090412331662096730000012686982901719792515_);fill:#1E2757;" d="
					M-204.4-1107C-204.4-1107-204.4-1107-204.4-1107C-204.5-1107-204.5-1107-204.4-1107l-0.2,0h-0.1c0,0,0,0-0.1,0c0,0,0,0-0.1,0
					c0,0,0,0,0,0h0c0,0,0,0-0.1,0c0,0,0,0,0-0.1c0-0.1,0-0.2,0.1-0.2c0,0,0.1-0.1,0.2-0.2c0.1,0,0.1-0.1,0.1-0.1
					c0,0,0.1-0.1,0.1-0.1c0,0,0-0.1-0.1-0.1c0,0-0.1,0-0.1,0c0,0-0.1,0-0.1,0l-0.1,0.1c0,0,0,0,0,0c0,0-0.1,0-0.1-0.1c0,0,0,0,0,0
					c0.1,0,0.1-0.1,0.1-0.1c0,0,0.1-0.1,0.2-0.1c0.1,0,0.1,0,0.2,0.1c0.1,0,0.1,0.1,0.1,0.2c0,0,0,0.1,0,0.1c0,0,0,0.1-0.1,0.1
					c0,0-0.1,0.1-0.2,0.1c-0.1,0.1-0.1,0.1-0.2,0.1c-0.1,0.1-0.1,0.1-0.1,0.2l0.1,0c0.1,0,0.2,0,0.2,0c0,0,0.1,0,0.1,0
					C-204.4-1107.1-204.3-1107.1-204.4-1107C-204.3-1107-204.4-1107-204.4-1107C-204.4-1107-204.4-1107-204.4-1107"/>
				<path id="XMLID_281_" style="clip-path:url(#XMLID_00000101090412331662096730000012686982901719792515_);fill:#1E2757;" d="
					M-202.6-1107.6c-0.1,0-0.1,0-0.2,0c-0.1,0-0.1-0.1-0.1-0.1c0,0,0,0,0,0c0,0,0,0,0,0c0,0,0,0,0,0c0,0,0,0,0,0l0,0c0,0,0,0,0.1,0
					c0,0,0.1,0,0.1,0c0,0,0.1,0,0.1-0.1c0,0,0.1-0.1,0.1-0.1c0-0.1,0-0.1-0.1-0.2c0,0-0.1,0-0.2-0.1c-0.1,0-0.1,0-0.1-0.1
					c0,0,0,0,0.1-0.1l0.1,0c0,0,0,0,0.1,0c0,0,0,0,0-0.1c0,0,0-0.1-0.1-0.1c0,0-0.1,0-0.1,0c0,0-0.1,0-0.1,0l-0.1,0c0,0,0,0,0,0
					c0,0,0,0,0,0c0,0,0,0,0,0c0,0,0-0.1,0.1-0.1c0.1,0,0.1-0.1,0.1-0.1c0.1,0,0.2,0,0.2,0.1c0.1,0,0.1,0.1,0.1,0.2
					c0,0.1,0,0.2-0.1,0.2c0,0,0,0,0,0c0.1,0,0.1,0,0.1,0.1c0,0,0,0.1,0,0.2c0,0.1,0,0.2-0.1,0.2
					C-202.5-1107.6-202.6-1107.6-202.6-1107.6"/>
				<path id="XMLID_280_" style="clip-path:url(#XMLID_00000101090412331662096730000012686982901719792515_);fill:#1E2757;" d="
					M-211-1100.4c0.2,0.7,0.3,1,0.5,1.7c0,0.1,0.1,0.2,0.1,0.2c0,0,0.1,0.1,0.1,0.1c0,0,0.1,0,0.2,0c0,0,0,0,0.1,0c0,0,0,0,0,0.1
					c-0.5,0.1-0.7,0.2-1.1,0.4c0,0,0,0,0-0.1c0,0,0,0,0.1,0c0.1,0,0.1-0.1,0.2-0.1c0,0,0-0.1,0-0.1c0,0,0-0.1-0.1-0.3
					c-0.1-0.4-0.2-0.6-0.4-1.1c0-0.1-0.1-0.2-0.1-0.2c0,0-0.1,0-0.1,0c0,0-0.1,0-0.1,0c-0.1,0-0.1,0.1-0.2,0.1c0,0,0,0-0.1,0
					C-211.6-1099.9-211.5-1100.1-211-1100.4C-211.1-1100.3-211.1-1100.4-211-1100.4"/>
				<path id="XMLID_277_" style="clip-path:url(#XMLID_00000101090412331662096730000012686982901719792515_);fill:#1E2757;" d="
					M-209.7-1098.3C-209.7-1098.3-209.7-1098.3-209.7-1098.3c0.2-0.1,0.3-0.2,0.4-0.3c0.1-0.1,0.2-0.2,0.3-0.3
					c0.1-0.1,0.1-0.4,0.1-0.4c0,0-0.1,0.1-0.2,0.1c0,0-0.1,0-0.2,0c-0.2,0-0.3,0-0.5-0.1c-0.1-0.1-0.2-0.2-0.3-0.4
					c0-0.1,0-0.3,0-0.4c0-0.1,0.1-0.2,0.3-0.3c0.1-0.1,0.3-0.1,0.4-0.2c0.2,0,0.3,0,0.5,0.1c0.2,0.1,0.3,0.2,0.4,0.3
					c0.1,0.1,0.1,0.3,0.1,0.5c0,0.2-0.1,0.5-0.2,0.7c-0.1,0.2-0.3,0.4-0.5,0.5C-209.2-1098.5-209.4-1098.4-209.7-1098.3
					 M-208.8-1099.5c0-0.1,0-0.2,0-0.3c0-0.2-0.1-0.4-0.1-0.5c0-0.1-0.1-0.2-0.2-0.2c0,0-0.1,0-0.1,0c-0.1,0-0.1,0-0.2,0.1
					c0,0.1-0.1,0.2,0,0.4c0,0.3,0.1,0.5,0.2,0.6c0.1,0.1,0.1,0.1,0.2,0.1C-209-1099.5-208.9-1099.5-208.8-1099.5"/>
				<path id="XMLID_274_" style="clip-path:url(#XMLID_00000101090412331662096730000012686982901719792515_);fill:#1E2757;" d="
					M-208-1098.5L-208-1098.5c0.2-0.1,0.3-0.1,0.5-0.2c0.1-0.1,0.3-0.2,0.3-0.3c0.1-0.1,0.2-0.4,0.2-0.4c0,0-0.1,0-0.2,0
					c-0.1,0-0.1,0-0.2,0c-0.2,0-0.3-0.1-0.5-0.2c-0.1-0.1-0.2-0.3-0.2-0.5c0-0.1,0-0.3,0.1-0.4c0.1-0.1,0.2-0.2,0.3-0.3
					c0.1-0.1,0.3-0.1,0.5-0.1c0.2,0,0.3,0.1,0.5,0.2c0.1,0.1,0.2,0.2,0.3,0.4c0.1,0.2,0.1,0.3,0,0.5c0,0.2-0.1,0.4-0.3,0.6
					c-0.2,0.2-0.4,0.3-0.6,0.4C-207.4-1098.5-207.7-1098.5-208-1098.5 M-206.9-1099.5c0,0,0-0.2,0.1-0.3c0-0.2,0-0.4,0-0.6
					c0-0.1-0.1-0.2-0.1-0.2c0,0-0.1,0-0.1,0c-0.1,0-0.1,0-0.2,0.1c-0.1,0.1-0.1,0.2-0.1,0.4c0,0.3,0,0.5,0.1,0.6
					c0,0.1,0.1,0.1,0.2,0.1C-207.1-1099.4-207-1099.4-206.9-1099.5"/>
				<path id="XMLID_273_" style="clip-path:url(#XMLID_00000101090412331662096730000012686982901719792515_);fill:#1E2757;" d="
					M-205.1-1097.9c-0.5-0.2-0.8-0.3-1.3-0.4c0,0,0,0,0,0c0.5-0.4,0.9-0.6,1-0.7c0.1-0.1,0.2-0.3,0.3-0.4c0-0.1,0-0.2,0-0.3
					c-0.1-0.1-0.1-0.2-0.3-0.2c-0.2-0.1-0.4,0-0.5,0.1c0,0,0,0-0.1,0c0.1-0.2,0.3-0.3,0.4-0.4c0.2-0.1,0.4-0.1,0.6,0
					c0.1,0,0.3,0.1,0.4,0.2c0.1,0.1,0.2,0.2,0.2,0.3c0,0.1,0,0.2,0,0.3c-0.1,0.1-0.2,0.2-0.3,0.4c-0.2,0.1-0.6,0.3-1,0.5
					c0.2,0.1,0.3,0.1,0.5,0.2c0.1,0,0.2,0.1,0.2,0.1c0,0,0.1,0,0.1,0c0,0,0.1,0,0.1-0.1c0,0,0,0,0.1,0
					C-204.8-1098.3-204.9-1098.2-205.1-1097.9"/>
				<path id="XMLID_272_" style="clip-path:url(#XMLID_00000101090412331662096730000012686982901719792515_);fill:#1E2757;" d="
					M-200.7-1089.9c0,4.1-3.4,7.5-7.5,7.5c-4.1,0-7.5-3.4-7.5-7.5c0-4.1,3.4-7.5,7.5-7.5C-204-1097.4-200.7-1094.1-200.7-1089.9"/>
				<path id="XMLID_269_" style="clip-path:url(#XMLID_00000101090412331662096730000012686982901719792515_);fill:#1E2757;" d="
					M-208.2-1082.3c-4.2,0-7.6-3.4-7.6-7.6c0-4.2,3.4-7.6,7.6-7.6c4.2,0,7.6,3.4,7.6,7.6C-200.5-1085.7-204-1082.3-208.2-1082.3
					 M-208.2-1097.3c-4.1,0-7.4,3.3-7.4,7.4c0,4.1,3.3,7.4,7.4,7.4c4.1,0,7.4-3.3,7.4-7.4C-200.8-1094-204.1-1097.3-208.2-1097.3"/>
				
					<polygon id="XMLID_268_" style="clip-path:url(#XMLID_00000101090412331662096730000012686982901719792515_);fill:#FFFFFF;" points="
					-201.1,-1092.9 -215.2,-1092.9 -215.1,-1093.2 -201.3,-1093.2 				"/>
				<path id="XMLID_267_" style="clip-path:url(#XMLID_00000101090412331662096730000012686982901719792515_);fill:#00ADE4;" d="
					M-200.7-1089.9c0,4.1-3.4,7.5-7.5,7.5c-4.1,0-7.5-3.4-7.5-7.5"/>
				<path id="XMLID_266_" style="clip-path:url(#XMLID_00000101090412331662096730000012686982901719792515_);fill:#FFFFFF;" d="
					M-214.1-1089.6h-0.3c0-2.5,0.8-4.8,2.2-6.8l0.2,0.2C-213.4-1094.3-214.1-1092-214.1-1089.6"/>
				<path id="XMLID_265_" style="clip-path:url(#XMLID_00000101090412331662096730000012686982901719792515_);fill:#FFFFFF;" d="
					M-211.8-1089.6h-0.3c0-2.9,1.1-5.7,3.1-7.9l0.2,0.2C-210.8-1095.2-211.8-1092.4-211.8-1089.6"/>
				<path id="XMLID_264_" style="clip-path:url(#XMLID_00000101090412331662096730000012686982901719792515_);fill:#FFFFFF;" d="
					M-214.1-1089.6h-0.3c0-2.5,0.8-4.8,2.2-6.8l0.2,0.2C-213.4-1094.3-214.1-1092-214.1-1089.6"/>
				<path id="XMLID_263_" style="clip-path:url(#XMLID_00000101090412331662096730000012686982901719792515_);fill:#FFFFFF;" d="
					M-201.9-1089.6h-0.3c0-2.4-0.7-4.7-2.1-6.6l0.2-0.2C-202.7-1094.4-201.9-1092-201.9-1089.6"/>
				<path id="XMLID_262_" style="clip-path:url(#XMLID_00000101090412331662096730000012686982901719792515_);fill:#FFFFFF;" d="
					M-204.2-1089.6h-0.3c0-2.9-1.1-5.6-3-7.7l0.2-0.2C-205.3-1095.3-204.2-1092.5-204.2-1089.6"/>
				<path id="XMLID_261_" style="clip-path:url(#XMLID_00000101090412331662096730000012686982901719792515_);fill:#FFFFFF;" d="
					M-201.9-1089.6h-0.3c0-2.4-0.7-4.7-2.1-6.6l0.2-0.2C-202.7-1094.4-201.9-1092-201.9-1089.6"/>
				<path id="XMLID_258_" style="clip-path:url(#XMLID_00000101090412331662096730000012686982901719792515_);fill:#FFFFFF;" d="
					M-208.2-1095c-1.4,0-2.8-0.4-4-1.1l-0.2-0.1l0.2-0.1c1.2-0.7,2.6-1.1,4-1.1c1.4,0,2.8,0.4,4,1.1l0.2,0.1l-0.2,0.1
					C-205.4-1095.4-206.7-1095-208.2-1095 M-211.8-1096.3c1.1,0.6,2.4,1,3.7,1c1.3,0,2.5-0.3,3.7-1c-1.1-0.6-2.4-1-3.7-1
					C-209.5-1097.3-210.7-1096.9-211.8-1096.3"/>
				
					<rect id="XMLID_257_" x="-214.7" y="-1086.4" style="clip-path:url(#XMLID_00000101090412331662096730000012686982901719792515_);fill:#1E2757;" width="13.1" height="0.3"/>
				
					<rect id="XMLID_256_" x="-208.3" y="-1097.4" style="clip-path:url(#XMLID_00000101090412331662096730000012686982901719792515_);fill:#FFFFFF;" width="0.3" height="15"/>
				<path id="XMLID_255_" style="clip-path:url(#XMLID_00000101090412331662096730000012686982901719792515_);fill:#1E2757;" d="
					M-213-1084c-0.9-1.6-1.4-3.8-1.4-5.9h0.3c0,2,0.6,4.5,1.5,6.1L-213-1084z"/>
				<path id="XMLID_254_" style="clip-path:url(#XMLID_00000101090412331662096730000012686982901719792515_);fill:#1E2757;" d="
					M-209.7-1082.5c-1.5-2-2.4-4.7-2.4-7.5h0.3c0,2.6,0.9,5.4,2.4,7.3L-209.7-1082.5z"/>
				<path id="XMLID_253_" style="clip-path:url(#XMLID_00000101090412331662096730000012686982901719792515_);fill:#1E2757;" d="
					M-203.3-1084l-0.4,0.1c0.8-1,1.5-4,1.5-6h0.3C-201.9-1087.8-202.4-1085.6-203.3-1084"/>
				<path id="XMLID_252_" style="clip-path:url(#XMLID_00000101090412331662096730000012686982901719792515_);fill:#1E2757;" d="
					M-206.6-1082.5l-0.2-0.2c1.5-1.9,2.4-4.6,2.4-7.3h0.3C-204.2-1087.2-205.1-1084.4-206.6-1082.5"/>
				
					<polygon id="XMLID_251_" style="clip-path:url(#XMLID_00000101090412331662096730000012686982901719792515_);fill:#FFFFFF;" points="
					-209.9,-1091 -209.9,-1095 -209.2,-1095 -207.6,-1092.4 -207.6,-1095 -206.8,-1095 -206.8,-1091 -207.6,-1091 -209.2,-1093.6 
					-209.2,-1091 				"/>
				<path id="XMLID_250_" style="clip-path:url(#XMLID_00000101090412331662096730000012686982901719792515_);fill:#1E2757;" d="
					M-210-1086.3l0.8-0.1c0,0.3,0.1,0.4,0.3,0.6c0.1,0.1,0.3,0.2,0.6,0.2c0.3,0,0.4-0.1,0.6-0.2c0.1-0.1,0.2-0.2,0.2-0.4
					c0-0.1,0-0.2-0.1-0.2c0-0.1-0.1-0.1-0.3-0.2c-0.1,0-0.3-0.1-0.6-0.2c-0.4-0.1-0.7-0.2-0.9-0.4c-0.2-0.2-0.4-0.5-0.4-0.8
					c0-0.2,0.1-0.4,0.2-0.6c0.1-0.2,0.3-0.3,0.5-0.4c0.2-0.1,0.5-0.1,0.8-0.1c0.5,0,0.9,0.1,1.1,0.3c0.3,0.2,0.4,0.5,0.4,0.9l-0.8,0
					c0-0.2-0.1-0.3-0.2-0.4c-0.1-0.1-0.3-0.1-0.5-0.1c-0.2,0-0.4,0-0.5,0.1c-0.1,0.1-0.1,0.1-0.1,0.2c0,0.1,0,0.2,0.1,0.2
					c0.1,0.1,0.3,0.2,0.7,0.3c0.4,0.1,0.7,0.2,0.9,0.3c0.2,0.1,0.3,0.2,0.4,0.4c0.1,0.2,0.2,0.4,0.2,0.6c0,0.2-0.1,0.4-0.2,0.6
					c-0.1,0.2-0.3,0.3-0.5,0.4c-0.2,0.1-0.5,0.1-0.9,0.1c-0.5,0-0.9-0.1-1.2-0.3C-209.8-1085.5-210-1085.9-210-1086.3"/>
				<path id="XMLID_247_" style="clip-path:url(#XMLID_00000101090412331662096730000012686982901719792515_);fill:#1E2757;" d="
					M-208.2-1082.3c-1.4,0-2.8-0.4-3.9-1.1l-0.2-0.1l0.2-0.1c1.2-0.7,2.6-1.1,3.9-1.1c1.4,0,2.8,0.4,3.9,1.1l0.2,0.1l-0.2,0.1
					C-205.4-1082.6-206.8-1082.3-208.2-1082.3 M-211.8-1083.5c1.1,0.6,2.3,0.9,3.6,0.9c1.3,0,2.5-0.3,3.6-0.9
					c-1.1-0.6-2.3-0.9-3.6-0.9C-209.4-1084.4-210.7-1084.1-211.8-1083.5"/>
				
					<rect id="XMLID_246_" x="-208.3" y="-1089.9" style="clip-path:url(#XMLID_00000101090412331662096730000012686982901719792515_);fill:#1E2757;" width="0.3" height="7.5"/>
			</g>
		</g>
	</g>
</g>
<line class="st5" x1="-166.1" y1="-1135.9" x2="-166.1" y2="-1057.8"/>
<polygon class="st6" points="175.2,-564.2 175.2,-564.8 178.9,-564.8 178.9,-564.2 177.4,-564.2 177.4,-558.2 176.7,-558.2 
	176.7,-564.2 "/>
<path class="st6" d="M179.7-565h0.6v2.8c0.3-0.3,0.5-0.6,0.8-0.8c0.3-0.2,0.6-0.2,1-0.2c0.4,0,0.7,0.1,1,0.3
	c0.3,0.2,0.5,0.4,0.6,0.8c0.1,0.3,0.2,0.8,0.2,1.5v2.5h-0.6v-2.3c0-0.6,0-0.9-0.1-1.1c-0.1-0.3-0.2-0.6-0.4-0.7
	c-0.2-0.2-0.5-0.2-0.8-0.2c-0.4,0-0.7,0.1-1,0.4c-0.3,0.3-0.5,0.6-0.6,0.9c-0.1,0.2-0.1,0.7-0.1,1.3v1.8h-0.6V-565z"/>
<path class="st6" d="M189.5-559.8l0.5,0.3c-0.2,0.3-0.4,0.6-0.6,0.8c-0.2,0.2-0.5,0.4-0.8,0.5c-0.3,0.1-0.6,0.2-1,0.2
	c-0.8,0-1.4-0.3-1.9-0.8c-0.5-0.5-0.7-1.1-0.7-1.8c0-0.6,0.2-1.2,0.6-1.7c0.5-0.6,1.1-0.9,1.9-0.9c0.8,0,1.5,0.3,2,1
	c0.4,0.4,0.5,1,0.5,1.7h-4.4c0,0.6,0.2,1,0.5,1.4c0.4,0.4,0.8,0.5,1.3,0.5c0.2,0,0.5,0,0.7-0.1s0.4-0.2,0.6-0.3
	C189.1-559.3,189.3-559.5,189.5-559.8 M189.5-561.2c-0.1-0.3-0.2-0.6-0.4-0.8c-0.2-0.2-0.4-0.4-0.6-0.5c-0.3-0.1-0.5-0.2-0.8-0.2
	c-0.5,0-0.9,0.2-1.2,0.5c-0.3,0.2-0.4,0.6-0.6,1H189.5z"/>
<path class="st6" d="M193.9-563.1h0.6v0.9c0.3-0.3,0.5-0.6,0.8-0.8c0.3-0.2,0.6-0.2,1-0.2c0.4,0,0.7,0.1,1,0.3
	c0.3,0.2,0.5,0.4,0.6,0.8c0.1,0.3,0.2,0.8,0.2,1.5v2.5h-0.6v-2.3c0-0.6,0-0.9-0.1-1.1c-0.1-0.3-0.2-0.6-0.4-0.7
	c-0.2-0.2-0.5-0.2-0.8-0.2c-0.4,0-0.7,0.1-1,0.4c-0.3,0.3-0.5,0.6-0.6,0.9c-0.1,0.2-0.1,0.7-0.1,1.3v1.8h-0.6V-563.1z"/>
<path class="st6" d="M203.6-559.8l0.5,0.3c-0.2,0.3-0.4,0.6-0.6,0.8c-0.2,0.2-0.5,0.4-0.8,0.5c-0.3,0.1-0.6,0.2-1,0.2
	c-0.8,0-1.4-0.3-1.9-0.8c-0.5-0.5-0.7-1.1-0.7-1.8c0-0.6,0.2-1.2,0.6-1.7c0.5-0.6,1.1-0.9,1.9-0.9c0.8,0,1.5,0.3,2,1
	c0.4,0.4,0.5,1,0.5,1.7h-4.4c0,0.6,0.2,1,0.5,1.4c0.4,0.4,0.8,0.5,1.3,0.5c0.2,0,0.5,0,0.7-0.1s0.4-0.2,0.6-0.3
	C203.3-559.3,203.5-559.5,203.6-559.8 M203.6-561.2c-0.1-0.3-0.2-0.6-0.4-0.8s-0.4-0.4-0.6-0.5c-0.3-0.1-0.5-0.2-0.8-0.2
	c-0.5,0-0.9,0.2-1.2,0.5c-0.3,0.2-0.4,0.6-0.6,1H203.6z"/>
<polygon class="st6" points="205,-563.1 205.7,-563.1 207,-561.3 208.3,-563.1 209.1,-563.1 207.4,-560.8 209.3,-558.2 
	208.5,-558.2 207,-560.3 205.5,-558.2 204.8,-558.2 206.6,-560.8 "/>
<polygon class="st6" points="210.5,-564.9 211.1,-564.9 211.1,-563.1 212.1,-563.1 212.1,-562.6 211.1,-562.6 211.1,-558.2 
	210.5,-558.2 210.5,-562.6 209.6,-562.6 209.6,-563.1 210.5,-563.1 "/>
<path class="st6" d="M215.7-558.2v-6.8h0.6v2.7c0.3-0.3,0.6-0.6,0.9-0.7c0.3-0.2,0.7-0.2,1.1-0.2c0.7,0,1.3,0.3,1.8,0.8
	c0.5,0.5,0.7,1.1,0.7,1.8c0,0.7-0.2,1.3-0.7,1.8c-0.5,0.5-1.1,0.8-1.8,0.8c-0.4,0-0.8-0.1-1.1-0.3c-0.3-0.2-0.6-0.4-0.9-0.8v0.9
	H215.7z M218.2-558.7c0.4,0,0.7-0.1,1-0.3c0.3-0.2,0.5-0.4,0.7-0.7c0.2-0.3,0.3-0.6,0.3-1c0-0.3-0.1-0.7-0.3-1
	c-0.2-0.3-0.4-0.6-0.7-0.7c-0.3-0.2-0.6-0.3-1-0.3c-0.3,0-0.7,0.1-1,0.3c-0.3,0.2-0.5,0.4-0.7,0.7c-0.2,0.3-0.2,0.6-0.2,1
	c0,0.6,0.2,1,0.6,1.4C217.2-558.9,217.6-558.7,218.2-558.7"/>
<path class="st6" d="M222.1-565.1c0.1,0,0.3,0.1,0.4,0.2c0.1,0.1,0.2,0.2,0.2,0.4c0,0.1-0.1,0.3-0.2,0.4c-0.1,0.1-0.2,0.2-0.4,0.2
	c-0.1,0-0.3-0.1-0.4-0.2c-0.1-0.1-0.2-0.2-0.2-0.4c0-0.1,0.1-0.3,0.2-0.4C221.9-565.1,222-565.1,222.1-565.1 M221.8-563.1h0.6v4.9
	h-0.6V-563.1z"/>
<path class="st6" d="M228-563.1h0.6v3.9c0,0.7-0.1,1.2-0.2,1.5c-0.2,0.5-0.5,0.8-0.9,1c-0.4,0.2-0.9,0.4-1.5,0.4
	c-0.4,0-0.8-0.1-1.1-0.2c-0.3-0.1-0.6-0.3-0.8-0.5c-0.2-0.2-0.4-0.5-0.6-0.9h0.7c0.2,0.3,0.4,0.6,0.7,0.7c0.3,0.2,0.7,0.2,1.1,0.2
	c0.4,0,0.8-0.1,1.1-0.2c0.3-0.2,0.5-0.4,0.6-0.6c0.1-0.2,0.2-0.6,0.2-1.2v-0.3c-0.2,0.3-0.5,0.5-0.9,0.7c-0.3,0.2-0.7,0.2-1.1,0.2
	c-0.5,0-0.9-0.1-1.3-0.3c-0.4-0.2-0.7-0.5-0.9-0.9c-0.2-0.4-0.3-0.8-0.3-1.2s0.1-0.9,0.3-1.3c0.2-0.4,0.5-0.7,0.9-0.9
	c0.4-0.2,0.8-0.3,1.3-0.3c0.4,0,0.7,0.1,1,0.2c0.3,0.2,0.6,0.4,0.9,0.7V-563.1z M226.1-562.6c-0.4,0-0.7,0.1-1,0.3
	c-0.3,0.2-0.5,0.4-0.7,0.7c-0.2,0.3-0.3,0.6-0.3,1c0,0.5,0.2,1,0.5,1.3c0.4,0.4,0.8,0.5,1.4,0.5c0.6,0,1-0.2,1.4-0.5
	c0.4-0.3,0.5-0.8,0.5-1.4c0-0.4-0.1-0.7-0.2-1c-0.2-0.3-0.4-0.5-0.7-0.7C226.8-562.5,226.5-562.6,226.1-562.6"/>
<path class="st6" d="M232.8-565.1c0.1,0,0.3,0.1,0.4,0.2c0.1,0.1,0.2,0.2,0.2,0.4c0,0.1-0.1,0.3-0.2,0.4c-0.1,0.1-0.2,0.2-0.4,0.2
	c-0.1,0-0.3-0.1-0.4-0.2c-0.1-0.1-0.2-0.2-0.2-0.4c0-0.1,0.1-0.3,0.2-0.4C232.5-565.1,232.6-565.1,232.8-565.1 M232.4-563.1h0.6v4.9
	h-0.6V-563.1z"/>
<path class="st6" d="M239.3-565v6.8h-0.6v-0.8c-0.3,0.3-0.6,0.6-0.9,0.7c-0.3,0.2-0.7,0.2-1.1,0.2c-0.7,0-1.3-0.3-1.8-0.8
	c-0.5-0.5-0.7-1.1-0.7-1.8c0-0.7,0.2-1.3,0.7-1.8c0.5-0.5,1.1-0.8,1.8-0.8c0.4,0,0.8,0.1,1.1,0.3c0.3,0.2,0.6,0.4,0.9,0.8v-2.8
	H239.3z M236.8-562.6c-0.4,0-0.7,0.1-1,0.3c-0.3,0.2-0.5,0.4-0.7,0.7c-0.2,0.3-0.3,0.6-0.3,1c0,0.3,0.1,0.7,0.3,1
	c0.2,0.3,0.4,0.6,0.7,0.7c0.3,0.2,0.6,0.3,1,0.3c0.3,0,0.7-0.1,1-0.3s0.5-0.4,0.7-0.7c0.2-0.3,0.2-0.6,0.2-1c0-0.6-0.2-1-0.6-1.4
	C237.8-562.4,237.3-562.6,236.8-562.6"/>
<path class="st6" d="M244.8-559.8l0.5,0.3c-0.2,0.3-0.4,0.6-0.6,0.8c-0.2,0.2-0.5,0.4-0.8,0.5c-0.3,0.1-0.6,0.2-1,0.2
	c-0.8,0-1.4-0.3-1.9-0.8c-0.5-0.5-0.7-1.1-0.7-1.8c0-0.6,0.2-1.2,0.6-1.7c0.5-0.6,1.1-0.9,1.9-0.9c0.8,0,1.5,0.3,2,1
	c0.4,0.4,0.5,1,0.5,1.7h-4.4c0,0.6,0.2,1,0.5,1.4c0.4,0.4,0.8,0.5,1.3,0.5c0.2,0,0.5,0,0.7-0.1s0.4-0.2,0.6-0.3
	C244.5-559.3,244.6-559.5,244.8-559.8 M244.8-561.2c-0.1-0.3-0.2-0.6-0.4-0.8c-0.2-0.2-0.4-0.4-0.6-0.5c-0.3-0.1-0.5-0.2-0.8-0.2
	c-0.5,0-0.9,0.2-1.2,0.5c-0.3,0.2-0.4,0.6-0.6,1H244.8z"/>
<path class="st6" d="M251.6-563.1v4.9H251v-0.8c-0.3,0.3-0.6,0.6-0.9,0.7c-0.3,0.2-0.7,0.2-1.1,0.2c-0.7,0-1.3-0.3-1.8-0.8
	c-0.5-0.5-0.7-1.1-0.7-1.8c0-0.7,0.2-1.3,0.7-1.8c0.5-0.5,1.1-0.8,1.8-0.8c0.4,0,0.8,0.1,1.1,0.3c0.3,0.2,0.6,0.4,0.9,0.8v-0.9
	H251.6z M249.1-562.6c-0.4,0-0.7,0.1-1,0.3c-0.3,0.2-0.5,0.4-0.7,0.7c-0.2,0.3-0.3,0.6-0.3,1c0,0.3,0.1,0.7,0.3,1
	c0.2,0.3,0.4,0.6,0.7,0.7c0.3,0.2,0.6,0.3,1,0.3c0.3,0,0.7-0.1,1-0.3c0.3-0.2,0.5-0.4,0.7-0.7c0.2-0.3,0.2-0.6,0.2-1
	c0-0.6-0.2-1-0.6-1.4C250.1-562.4,249.6-562.6,249.1-562.6"/>
<path class="st6" d="M255.8-565.1c0.1,0,0.3,0.1,0.4,0.2c0.1,0.1,0.2,0.2,0.2,0.4c0,0.1-0.1,0.3-0.2,0.4c-0.1,0.1-0.2,0.2-0.4,0.2
	c-0.1,0-0.3-0.1-0.4-0.2c-0.1-0.1-0.2-0.2-0.2-0.4c0-0.1,0.1-0.3,0.2-0.4C255.5-565.1,255.6-565.1,255.8-565.1 M255.5-563.1h0.6v4.9
	h-0.6V-563.1z"/>
<path class="st6" d="M259.9-562.6l-0.4,0.4c-0.3-0.3-0.7-0.5-1-0.5c-0.2,0-0.4,0.1-0.5,0.2c-0.1,0.1-0.2,0.3-0.2,0.5
	c0,0.2,0.1,0.3,0.2,0.5c0.1,0.1,0.4,0.3,0.8,0.5c0.5,0.2,0.8,0.5,1,0.7c0.2,0.2,0.2,0.5,0.2,0.8c0,0.4-0.1,0.7-0.4,1
	c-0.3,0.3-0.6,0.4-1.1,0.4c-0.3,0-0.6-0.1-0.8-0.2c-0.3-0.1-0.5-0.3-0.6-0.5l0.4-0.5c0.3,0.4,0.7,0.5,1,0.5c0.3,0,0.5-0.1,0.6-0.2
	c0.2-0.2,0.3-0.4,0.3-0.6c0-0.2-0.1-0.3-0.2-0.5c-0.1-0.1-0.4-0.3-0.8-0.5c-0.4-0.2-0.7-0.5-0.9-0.7c-0.2-0.2-0.2-0.5-0.2-0.8
	c0-0.4,0.1-0.7,0.4-0.9c0.3-0.2,0.6-0.4,1-0.4C259-563.2,259.4-563,259.9-562.6"/>
<polygon class="st6" points="263,-563.1 263.7,-563.1 265.4,-559.3 267,-563.1 267.7,-563.1 264.8,-556.4 264.1,-556.4 265,-558.6 
	"/>
<path class="st6" d="M270.8-563.2c0.8,0,1.4,0.3,1.9,0.8c0.5,0.5,0.7,1.1,0.7,1.8c0,0.7-0.2,1.3-0.7,1.8c-0.5,0.5-1.1,0.8-1.8,0.8
	c-0.8,0-1.4-0.3-1.8-0.8c-0.5-0.5-0.7-1.1-0.7-1.8c0-0.7,0.2-1.3,0.7-1.8C269.4-563,270.1-563.2,270.8-563.2 M270.8-562.6
	c-0.5,0-1,0.2-1.4,0.6c-0.4,0.4-0.6,0.9-0.6,1.4c0,0.4,0.1,0.7,0.3,1c0.2,0.3,0.4,0.5,0.7,0.7c0.3,0.2,0.6,0.2,1,0.2
	c0.3,0,0.7-0.1,1-0.2c0.3-0.2,0.5-0.4,0.7-0.7c0.2-0.3,0.3-0.6,0.3-1c0-0.5-0.2-1-0.6-1.4C271.8-562.4,271.3-562.6,270.8-562.6"/>
<path class="st6" d="M274.5-563.1h0.6v2.3c0,0.6,0,0.9,0.1,1.2c0.1,0.3,0.3,0.5,0.5,0.7c0.3,0.2,0.6,0.3,0.9,0.3s0.7-0.1,0.9-0.3
	c0.2-0.2,0.4-0.4,0.5-0.7c0.1-0.2,0.1-0.6,0.1-1.2v-2.3h0.6v2.4c0,0.7-0.1,1.2-0.2,1.5c-0.2,0.3-0.4,0.6-0.7,0.8
	c-0.3,0.2-0.7,0.3-1.2,0.3c-0.5,0-0.9-0.1-1.2-0.3c-0.3-0.2-0.6-0.5-0.7-0.8c-0.2-0.3-0.2-0.9-0.2-1.6V-563.1z"/>
<path class="st6" d="M279.9-563.1h0.6v0.7c0.2-0.3,0.4-0.5,0.6-0.6c0.2-0.1,0.4-0.2,0.7-0.2c0.2,0,0.4,0.1,0.6,0.2l-0.3,0.5
	c-0.1-0.1-0.2-0.1-0.3-0.1c-0.2,0-0.4,0.1-0.6,0.3c-0.2,0.2-0.3,0.4-0.4,0.8c-0.1,0.3-0.1,0.8-0.1,1.7v1.7h-0.6V-563.1z"/>
<path class="st6" d="M285.4-562.6l-0.4,0.4c-0.3-0.3-0.7-0.5-1-0.5c-0.2,0-0.4,0.1-0.5,0.2c-0.1,0.1-0.2,0.3-0.2,0.5
	c0,0.2,0.1,0.3,0.2,0.5c0.1,0.1,0.4,0.3,0.8,0.5c0.5,0.2,0.8,0.5,1,0.7c0.2,0.2,0.2,0.5,0.2,0.8c0,0.4-0.1,0.7-0.4,1
	c-0.3,0.3-0.6,0.4-1.1,0.4c-0.3,0-0.6-0.1-0.8-0.2c-0.3-0.1-0.5-0.3-0.6-0.5l0.4-0.5c0.3,0.4,0.7,0.5,1,0.5c0.3,0,0.5-0.1,0.6-0.2
	c0.2-0.2,0.3-0.4,0.3-0.6c0-0.2-0.1-0.3-0.2-0.5c-0.1-0.1-0.4-0.3-0.8-0.5c-0.4-0.2-0.7-0.5-0.9-0.7c-0.2-0.2-0.2-0.5-0.2-0.8
	c0-0.4,0.1-0.7,0.4-0.9c0.3-0.2,0.6-0.4,1-0.4C284.5-563.2,284.9-563,285.4-562.6"/>
<path class="st7" d="M333.1-578v-14.8h3.1v3.9h2.9v2.7h-2.9v7.5c0,1,0.5,1.7,1.4,1.7c0.6,0,1.2-0.2,1.4-0.5l0.7,2.3
	c-0.6,0.5-1.5,0.9-2.9,0.9C334.3-574.3,333.1-575.6,333.1-578"/>
<path class="st7" d="M319.8-574.7h-3.5l5.2-7.3l-4.9-6.9h3.5l5.3,6.9L319.8-574.7z M326.8-584l3.5-5h-3.5l-1.8,2.6L326.8-584z
	 M326.8-580.1l-1.8,2.3l2.2,3.1h3.5L326.8-580.1z"/>
<path class="st7" d="M301.2-581.8c0-4.1,3-7.5,7.2-7.5c4.3,0,7,3.3,7,7.8v0.7h-11c0.2,2.2,1.9,3.9,4.5,3.9c1.4,0,3-0.6,4-1.6l1.4,2
	c-1.4,1.4-3.5,2.1-5.8,2.1C304.4-574.3,301.2-577.3,301.2-581.8 M308.5-586.7c-2.7,0-3.9,2-4,3.8h8
	C312.4-584.7,311.3-586.7,308.5-586.7"/>
<path class="st7" d="M298-594.4v19.7h-3.3l-13.7-18.7v-1h3.5l10.1,13.7v-13.7H298z M280.9-588.8v14.1h3.5v-9.4L280.9-588.8z"/>
<path class="st7" d="M261.8-576.6l0.9-1.2c0.9,1.2,2.6,2.1,4.6,2.1c2.4,0,3.8-1.2,3.8-2.9c0-3.9-9-1.7-9-6.8c0-2.2,1.9-4,5.1-4
	c2.4,0,4.1,0.9,5.1,2.1l-0.9,1.1c-0.8-1.1-2.4-1.9-4.2-1.9c-2.2,0-3.6,1.1-3.6,2.6c0,3.6,9,1.4,9,6.9c0,2.3-1.8,4.2-5.3,4.2
	C265-574.3,263.2-575,261.8-576.6"/>
<path class="st7" d="M248.1-577v7.7h-1.5v-19.7h1.5v2.2c1-1.4,2.8-2.6,5-2.6c3.8,0,6.4,2.9,6.4,7.5c0,4.5-2.6,7.5-6.4,7.5
	C251.1-574.3,249.3-575.4,248.1-577 M257.8-581.8c0-3.5-1.8-6.1-5-6.1c-2,0-3.9,1.2-4.7,2.5v7c0.8,1.4,2.7,2.6,4.7,2.6
	C256-575.7,257.8-578.4,257.8-581.8"/>
<path class="st7" d="M241-574.7v-2.1c-1.2,1.3-3.1,2.4-5.1,2.4c-2.9,0-4.5-1.4-4.5-4.6v-10h1.5v9.7c0,2.8,1.4,3.5,3.5,3.5
	c1.8,0,3.7-1.1,4.6-2.4v-10.9h1.5v14.2H241z"/>
<path class="st7" d="M222.9-577.4v-15.4h1.6v3.9h2.9v1.4h-2.9v9.9c0,1.2,0.5,1.9,1.5,1.9c0.7,0,1.3-0.3,1.6-0.7l0.6,1.2
	c-0.6,0.5-1.2,0.9-2.4,0.9C223.8-574.3,222.9-575.5,222.9-577.4"/>
<path class="st7" d="M213.3-574.7v-14.2h1.5v2.4c1.2-1.6,2.8-2.7,4.8-2.7v1.7c-0.3-0.1-0.5-0.1-0.8-0.1c-1.4,0-3.4,1.3-4,2.5v10.4
	H213.3z"/>
<path class="st7" d="M207.7-574.7v-1.7c-1.3,1.4-2.9,2-4.8,2c-2.4,0-5-1.7-5-4.7c0-3.1,2.5-4.7,5-4.7c2,0,3.6,0.6,4.8,2v-2.9
	c0-2.1-1.7-3.3-3.8-3.3c-1.8,0-3.2,0.6-4.5,2.1l-0.9-1.1c1.5-1.6,3.1-2.4,5.5-2.4c2.9,0,5.2,1.4,5.2,4.6v10H207.7z M207.7-577.5
	v-3.1c-1-1.3-2.6-2-4.3-2c-2.4,0-3.9,1.5-3.9,3.5c0,2,1.5,3.5,3.9,3.5C205.1-575.5,206.7-576.2,207.7-577.5"/>
<path class="st7" d="M190.9-577.4v-15.4h1.6v3.9h2.9v1.4h-2.9v9.9c0,1.2,0.5,1.9,1.5,1.9c0.7,0,1.3-0.3,1.6-0.7l0.6,1.2
	c-0.6,0.5-1.2,0.9-2.4,0.9C191.8-574.3,190.9-575.5,190.9-577.4"/>
<path class="st7" d="M173.1-577.5l1.1-1.3c1.3,1.5,3.3,2.9,6.1,2.9c4,0,5.2-2.2,5.2-3.9c0-5.8-11.8-2.8-11.8-9.6
	c0-3.2,2.9-5.2,6.5-5.2c2.9,0,5.1,1,6.7,2.8l-1.1,1.2c-1.4-1.7-3.4-2.5-5.6-2.5c-2.6,0-4.6,1.5-4.6,3.6c0,5,11.8,2.3,11.8,9.6
	c0,2.5-1.7,5.6-7,5.6C177-574.3,174.6-575.6,173.1-577.5"/>
<path class="st7" d="M199.4-605.1v-6.2h1.3v6.2c0,1.9,1,3,2.9,3c1.9,0,2.9-1.2,2.9-3v-6.2h1.3v6.2c0,2.5-1.4,4.2-4.2,4.2
	C200.8-601,199.4-602.6,199.4-605.1"/>
<path class="st7" d="M187.7-602.6l0.7-1c0.7,0.7,1.8,1.5,3.2,1.5c1.8,0,2.4-1,2.4-1.8c0-2.6-6-1.2-6-4.8c0-1.7,1.5-2.8,3.5-2.8
	c1.6,0,2.8,0.5,3.6,1.4l-0.8,0.9c-0.8-0.8-1.8-1.2-2.9-1.2c-1.2,0-2.1,0.7-2.1,1.6c0,2.3,6,1,6,4.8c0,1.5-1,3-3.8,3
	C189.8-601,188.5-601.7,187.7-602.6"/>
<polygon class="st7" points="182.4,-601.2 176.5,-609.3 176.5,-601.2 175.2,-601.2 175.2,-611.4 176.5,-611.4 182.4,-603.4 
	182.4,-611.4 183.7,-611.4 183.7,-601.2 "/>
<path class="st8" d="M135.7-574.7h-6.2c-1.8,0-3.3-1.5-3.3-3.3v-1.3l-6.4,8.5c-1.6,2.2-0.1,5.3,2.6,5.3h7.1h12.2c1,0,2-0.5,2.6-1.3
	l5.9-7.9H135.7z"/>
<path class="st7" d="M150.4-593l-5.9,7.9c-0.6,0.8-1.6,1.3-2.6,1.3h-12.2v0l-3.4,4.6v1.3c0,1.8,1.5,3.3,3.3,3.3h6.2h14.7l6.9-9.2
	L150.4-593z"/>
<path class="st9" d="M157.3-583.8l5.4-7.2c0.9-1.2,0.9-2.8,0-3.9l-5.4-7.2l-6.9,9.2L157.3-583.8z"/>
<path class="st10" d="M135.1-591.1l-5.4,7.2h12.2c1,0,2-0.5,2.6-1.3l5.9-7.9l-5.9-7.9c-0.6-0.8-1.6-1.3-2.6-1.3h-12.2l5.4,7.2
	C136-593.8,136-592.2,135.1-591.1"/>
<path class="st11" d="M150.4-611.4h-14.7h-6.2c-1.8,0-3.3,1.5-3.3,3.3v1.3l3.4,4.6h12.2c1,0,2,0.5,2.6,1.3l5.9,7.9l6.9-9.2
	L150.4-611.4z"/>
<path class="st12" d="M144.5-619.2c-0.6-0.8-1.6-1.3-2.6-1.3h-12.2h-7.1c-2.7,0-4.3,3.1-2.6,5.3l6.4,8.5v-1.3c0-1.8,1.5-3.3,3.3-3.3
	h6.2h14.7L144.5-619.2z"/>
<g>
	<path class="st13" d="M101.1,68.6L88.7,85.2l-15.8,21.2l-13.5,18.1c-1.4,1.9-3.7,3.1-6.1,3.1H8.6c-6.3,0-9.8-7.1-6.1-12.2
		l14.6-19.6l7.9-10.6l12.4-16.6c2-2.7,2-6.4,0-9.1L25.1,42.8l-7.9-10.6L2.5,12.7c-3.8-5-0.2-12.2,6.1-12.2h44.6
		c2.4,0,4.7,1.1,6.1,3.1l13.5,18.1l15.8,21.2l12.4,16.6C103.1,62.1,103.1,65.8,101.1,68.6z"/>
</g>
<g>
	<g>
		<path class="st14" d="M623.8-1083.1c0.1-0.8,0.2-1.7,0.3-2.5c0.7-4.3,3.6-7.7,7.9-8.6c0.2,0,0.5,0,0.7,0c8.7,0,17.4,0,26.1,0
			c0.7,0,0.7,0,0.7-0.7c0-1-0.1-2.1-0.1-3.1c-0.1-2.3,1.8-4.3,4.1-4.3c3.7,0,7.4,0,11-0.1c0.3,0,0.5,0.1,0.5,0.4c0,1.9,0,3.7,0,5.6
			c0,0.4-0.2,0.5-0.5,0.5c-1.8,0-3.5,0-5.3,0c-0.2,0-0.5,0-0.8,0c0,0.5,0,1,0,1.5c0,0.1,0.3,0.2,0.5,0.3c1.6,0,3.2,0,4.8,0
			c0.3,0,0.6,0,0.8,0c0.4,0,0.5,0.1,0.5,0.5c0,2.9,0,5.8,0,8.6c0,0.4-0.1,0.5-0.5,0.5c-1.8,0-3.6,0-5.5,0c-0.2,0-0.4,0-0.7,0
			c0,0.9,0,1.7,0,2.5c0,1.1,0,1.1-1.1,1.1c-2.4,0-4.9,0-7.3,0c-0.4,0-0.6-0.1-0.6-0.6c0-0.7,0-1.4,0-2.1c0-0.5-0.1-0.6-0.6-0.5
			c-1,0-2,0-3,0c-7.3,0-14.5,0-21.8,0c-0.8,0-1,0.4-0.7,1.2c0.1,0.3,0.4,0.3,0.6,0.3c3.4,0,6.8,0,10.2,0c3.2,0,6.5,0,9.7,0
			c0.4,0,0.6,0.1,0.6,0.6c0,1.2,0,1.2-1.2,1.2c-9.6,0-19.3,0-28.9,0c-0.4,0-0.6-0.1-0.6-0.5c0-0.1-0.1-0.2-0.1-0.3
			C623.8-1082.3,623.8-1082.7,623.8-1083.1z"/>
		<path class="st14" d="M744.2-1075.8c-1.3,0-2.6,0-3.9,0c-0.4,0-0.5-0.2-0.5-0.5c0.1-3.5,0.1-7.1,0.2-10.6c0-2.2-0.1-4.5-0.2-6.7
			c0-0.4,0.1-0.6,0.5-0.6c1.6,0,3.1-0.1,4.7-0.1c1.6,0,3.1,0.1,4.6,0.5c3,0.9,4.8,3.1,5.4,6.1c0.7,3.9-0.3,7.3-3.3,9.9
			c-1.2,1.1-2.6,1.7-4.2,1.8c-1.1,0.1-2.2,0.1-3.3,0.2C744.2-1075.7,744.2-1075.7,744.2-1075.8z M751.5-1085c0-0.2,0-0.4,0-0.6
			c0-0.2,0-0.4-0.1-0.6c-0.3-2-1.1-3.7-3-4.6c-1.5-0.8-3.2-0.8-4.8-0.6c-0.1,0-0.3,0.3-0.3,0.4c0,0.9,0.1,1.7,0.1,2.6
			c0,2.9,0.1,5.8,0.1,8.7c0,0.3,0,0.6,0.1,0.8c0,0.1,0.2,0.3,0.3,0.3c0.8,0.1,1.7,0.2,2.5,0.1c1.5-0.1,2.8-0.7,3.7-2
			C751.1-1081.8,751.5-1083.4,751.5-1085z"/>
		<path class="st14" d="M711.7-1094.2c1.8,6.2,4.3,12.1,6.1,18.3c-1.5,0-3,0-4.3,0c-0.4-1.5-0.8-3.1-1.2-4.6
			c-0.1-0.5-0.3-0.7-0.9-0.7c-1.8,0-3.6,0-5.5,0c-0.4,0-0.6,0.1-0.6,0.5c-0.4,1.5-0.8,3-1.2,4.5c0,0.1-0.2,0.3-0.4,0.3
			c-1.1,0-2.3,0-3.4,0c-0.4,0-0.3-0.2-0.2-0.4c0.6-1.6,1.2-3.2,1.7-4.8c1.5-4,3-8,4.5-11.9c0.1-0.4,0.2-0.9,0.4-1.1
			c0.3-0.2,0.8-0.1,1.2-0.1C709.1-1094.2,710.4-1094.2,711.7-1094.2z M706-1083.7c1.8,0,3.5,0,5.3,0c-0.8-2.7-1.7-5.3-2.5-8
			c0,0-0.1,0-0.1,0C707.8-1089.1,706.9-1086.5,706-1083.7z"/>
		<path class="st14" d="M756.6-1075.8c0.3-0.8,0.5-1.6,0.8-2.3c1.3-3.3,2.6-6.6,3.8-10c0.7-1.9,1.3-3.8,2-5.8
			c0.1-0.1,0.3-0.3,0.4-0.3c1.5,0,3,0,4.5,0c0.1,0,0.3,0.2,0.4,0.3c1.7,5.1,3.5,10.3,5.2,15.4c0.3,0.8,0.5,1.7,0.8,2.6
			c-1.5,0-2.9,0-4.2,0c-0.1,0-0.2-0.2-0.3-0.3c-0.4-1.5-0.8-3.1-1.2-4.6c-0.1-0.3-0.3-0.4-0.6-0.4c-1.9,0-3.8,0-5.8,0
			c-0.3,0-0.5,0.1-0.5,0.4c-0.4,1.6-0.8,3.1-1.2,4.7c0,0.1-0.2,0.3-0.2,0.3C759.3-1075.8,758-1075.8,756.6-1075.8z M762.8-1083.7
			c1.8,0,3.5,0,5.3,0c-0.8-2.7-1.7-5.3-2.5-8c0,0-0.1,0-0.1,0C764.6-1089.1,763.7-1086.5,762.8-1083.7z"/>
		<path class="st14" d="M697-1091.1c-1.1-0.2-2.1-0.4-3.1-0.5c-1-0.1-2-0.1-3,0.2c-0.7,0.2-1.2,0.6-1.3,1.4
			c-0.1,0.7,0.2,1.4,0.8,1.8c1,0.6,2.1,1.1,3.2,1.5c1.4,0.6,2.8,1.3,3.8,2.5c1.9,2.2,1.9,6.9-2.3,8.3c-1.9,0.6-3.9,0.7-5.9,0.5
			c-1.1-0.1-2.2-0.3-3.2-0.5c-0.1,0-0.1,0-0.2-0.1c0.2-1,0.4-2,0.7-3c0.5,0.1,1,0.3,1.5,0.4c1.9,0.4,3.7,0.5,5.6,0
			c1.6-0.4,2-2,0.9-3.2c-0.8-0.9-1.9-1.3-3-1.8c-1.3-0.6-2.6-1.2-3.7-2.2c-2.2-1.9-2.4-6.4,1.1-8c1.1-0.5,2.3-0.7,3.5-0.8
			c1.7-0.1,3.3,0,5,0.3c0.3,0.1,0.4,0.2,0.4,0.5C697.3-1092.8,697.2-1092,697-1091.1C697-1091.1,697-1091.1,697-1091.1z"/>
		<path class="st14" d="M727.7-1094.2c0,1,0,1.9,0,2.8c0,2.6,0,5.3-0.1,7.9c0,1.2-0.2,2.4-0.5,3.5c-0.7,2.7-2.6,4.3-5.3,4.4
			c-1,0-2.1-0.1-3.1-0.1c-0.2,0-0.3-0.1-0.5-0.1c0-0.5,0.1-1,0.1-1.4c0-0.5,0.1-0.9,0.1-1.4c0.2,0.1,0.4,0.1,0.5,0.1
			c1.1,0.3,2.2,0.3,3.3-0.1c1.2-0.4,1.6-1.5,1.8-2.6c0.1-0.7,0.2-1.5,0.2-2.2c0-2.8-0.1-5.7-0.1-8.5c0-0.6-0.1-1.2-0.1-1.9
			c0-0.1,0.2-0.4,0.3-0.4C725.5-1094.2,726.6-1094.2,727.7-1094.2z"/>
		<path class="st14" d="M735.5-1094.2c0,6.1,0,12.2,0,18.3c-1.2,0-2.5,0-3.7,0c0-1,0-1.9,0-2.9c0-4.4,0-8.7,0-13.1c0-0.7,0-1.3,0-2
			c0-0.1,0.2-0.3,0.3-0.3C733.2-1094.2,734.3-1094.2,735.5-1094.2z"/>
		<path class="st14" d="M646.5-1070.2c-7.1,0-14.1,0-21.2,0c-0.2,0-0.5-0.1-0.5-0.1c-0.1-0.3,0-0.6,0-1c0,0,0.2-0.1,0.3-0.1
			c0.2,0,0.5,0,0.7,0c14,0,28,0,42,0c0.6,0,0.5,0.3,0.5,0.6c0,0.4,0,0.6-0.5,0.6C660.7-1070.2,653.6-1070.2,646.5-1070.2z"/>
		<path class="st14" d="M624.8-1067.9c0-0.4,0-0.7,0-1.1c0.2,0,0.4,0,0.6,0c14.2,0,28.3,0,42.5,0c0.5,0,0.5,0.2,0.5,0.6
			c0,0.4-0.1,0.6-0.5,0.6c-14.1,0-28.3,0-42.4,0C625.3-1067.9,625-1067.9,624.8-1067.9z"/>
		<path class="st14" d="M647.9-1076.7c6.6,0,13.2,0,19.9,0c0.6,0,0.8,0.4,0.6,0.9c0,0.1-0.1,0.1-0.2,0.2c-0.1,0-0.3,0-0.4,0
			c-13.3,0-26.6,0-39.9,0c-0.5,0-0.6-0.2-0.6-0.6c0-0.3,0.1-0.5,0.5-0.5c0.8,0,1.5,0,2.3,0C636-1076.7,641.9-1076.7,647.9-1076.7z"
			/>
		<path class="st14" d="M648.8-1074c-6.3,0-12.6,0-18.9,0c-0.4,0-0.6,0-0.6-0.6c0-0.4,0.1-0.5,0.5-0.5c12.7,0,25.3,0,38,0
			c0.5,0,0.6,0.2,0.6,0.7c0,0.5-0.3,0.4-0.6,0.4c-0.2,0-0.5,0-0.7,0C661-1074,654.9-1074,648.8-1074z"/>
		<path class="st14" d="M657.2-1065.7c-10.8,0-21.6,0-32.5,0c0-0.3,0-0.6,0-0.9c0-0.1,0.2-0.2,0.3-0.3c0.1,0,0.3,0,0.4,0
			c10.4,0,20.8,0,31.2,0c0.7,0,0.7,0,0.7,0.7C657.2-1066,657.2-1065.9,657.2-1065.7z"/>
		<path class="st14" d="M653.5-1061.5c-0.2,0-0.4,0-0.5,0c-9.2,0-18.4,0-27.5,0c-0.7,0-0.7,0-0.7-0.7c0-0.2,0-0.4,0-0.6
			c0.3,0,0.5,0,0.7,0c9.2,0,18.4,0,27.5,0c0.4,0,0.6,0.1,0.5,0.5C653.5-1062.1,653.5-1061.8,653.5-1061.5z"/>
		<path class="st14" d="M640-1063.6c-4.9,0-9.8,0-14.7,0c-0.5,0-0.5-0.2-0.5-0.6c0-0.4,0-0.6,0.5-0.6c9.8,0,19.6,0,29.5,0
			c0.5,0,0.6,0.2,0.6,0.6c0,0.4-0.1,0.6-0.6,0.6C649.8-1063.6,644.9-1063.6,640-1063.6z"/>
		<path class="st14" d="M641.1-1079.3c-5.3,0-10.6,0-15.9,0c-0.5,0-0.6-0.1-0.6-0.6c0-0.3,0.1-0.5,0.4-0.4c0,0,0.1,0,0.1,0
			c10.6,0,21.2,0,31.8,0c0.3,0,0.6,0,0.6,0.5c0,0.5-0.1,0.6-0.6,0.6C651.8-1079.3,646.4-1079.3,641.1-1079.3z"/>
		<path class="st14" d="M657.8-1078.6c0,0.4,0,0.7,0,1c-10.9,0-21.7,0-32.5,0c0-0.4,0-0.7,0-1
			C636.1-1078.6,646.9-1078.6,657.8-1078.6z"/>
		<path class="st14" d="M772.1-1063.7c0-0.2,0.1-0.3,0.1-0.4c-0.1-2.3-0.1-4.6-0.2-6.9c0-0.7,0.5-0.4,0.8-0.4
			c0.4-0.1,0.3,0.2,0.3,0.5c0,1.7-0.1,3.4-0.1,5.1c0,1.2,0.1,2.5,0.1,3.7c0,0.1-0.1,0.3-0.1,0.3c-0.3,0-0.7,0-0.9-0.2
			c-0.4-0.4-0.6-0.8-0.9-1.3c-1.2-1.8-2.4-3.5-3.6-5.3c-0.3-0.4-0.5-0.8-0.8-1.2c0,0.4,0,0.9,0,1.3c0,1.5,0.1,3,0.1,4.4
			c0,0.6,0.1,1.1,0.1,1.7c0,0.2,0.1,0.5-0.3,0.5c-0.7,0-0.8,0-0.8-0.5c0-1.1,0.1-2.3,0.1-3.4c0-1.7,0-3.4-0.1-5.1
			c0-0.4,0.1-0.5,0.5-0.5c0.6,0,0.9,0.2,1.2,0.7c1.2,1.8,2.4,3.6,3.6,5.3C771.4-1064.9,771.7-1064.4,772.1-1063.7z"/>
		<path class="st14" d="M692.7-1066.5c0-2,0.7-3.6,2.6-4.6c2.6-1.4,5.9,0.3,6.3,3.2c0.2,1.6,0.1,3.1-0.9,4.4
			c-1.2,1.6-3.1,2.3-4.9,1.7c-1.7-0.6-2.9-2.2-3-4.2C692.7-1066.2,692.7-1066.4,692.7-1066.5z M700.5-1066.7
			c-0.1-0.6-0.2-1.3-0.4-1.9c-0.5-1.2-1.4-2-2.8-2.1c-1.2-0.1-2.1,0.5-2.7,1.4c-1,1.7-1.1,3.5-0.1,5.2c1,1.7,3.5,2.3,5,0.4
			C700.2-1064.6,700.4-1065.6,700.5-1066.7z"/>
		<path class="st14" d="M763.5-1067.1c0.1,2.2-0.7,3.9-2.6,5c-2.5,1.4-5.8-0.4-6.2-3.3c-0.2-1.5-0.1-2.9,0.8-4.2c1-1.6,3-2.4,4.7-2
			c1.8,0.4,3.2,2.1,3.3,4C763.4-1067.4,763.5-1067.3,763.5-1067.1z M762.4-1066.6c-0.2-0.8-0.3-1.5-0.5-2.2c-0.8-1.8-3.2-2.9-5-1.1
			c-1.4,1.4-1.6,4.4-0.4,5.9c1.5,1.9,4,1.8,5.2-0.3C762.1-1065,762.2-1065.8,762.4-1066.6z"/>
		<path class="st14" d="M715.3-1062c-0.4,0-0.7,0-1,0c0-3.2,0-6.3,0-9.5c0.3,0,0.7,0,1,0c0.1,0,0.3,0.1,0.3,0.2
			c1.4,2,2.8,4.1,4.1,6.1c0.3,0.4,0.5,0.9,0.8,1.4c0-0.2,0.1-0.3,0.1-0.4c0-2.1-0.1-4.2-0.1-6.4c0-0.1,0-0.3,0-0.4
			c-0.1-0.7-0.1-0.6,0.6-0.7c0.4,0,0.5,0.2,0.5,0.5c0,1.9-0.1,3.8-0.1,5.7c0,0.9,0.1,1.8,0.1,2.7c0,0.2-0.1,0.5-0.2,0.5
			c-0.3,0.1-0.6,0.2-0.9-0.2c-0.6-0.9-1.2-1.7-1.8-2.6c-1.1-1.7-2.2-3.4-3.4-5.1c0,0-0.1,0-0.2-0.1
			C715.2-1067.3,715.3-1064.7,715.3-1062z"/>
		<path class="st14" d="M724.5-1071.4c1.3,0,2.6-0.1,3.9,0c1.9,0.2,3.2,1.5,3.5,3.4c0.3,2-0.3,3.8-1.8,5.1c-0.7,0.6-1.5,0.9-2.4,0.9
			c-0.9,0-1.8,0-2.7,0c-0.4,0-0.5-0.2-0.5-0.5c0-1.7,0.1-3.4,0.1-5.1c0-1.2-0.1-2.5-0.1-3.7C724.5-1071.3,724.5-1071.4,724.5-1071.4
			z M725.6-1064.4c0,0,0.1,0,0.1,0c0,0.4,0,0.8,0,1.2c0,0.1,0.2,0.4,0.3,0.4c1,0.2,2.1,0.1,3-0.4c1.6-0.8,2.3-3.3,1.5-5.2
			c-0.8-1.8-2.5-2.4-4.4-2.2c-0.4,0-0.5,0.2-0.5,0.6C725.6-1068.1,725.6-1066.3,725.6-1064.4z"/>
		<path class="st14" d="M742-1062c-0.5,0-0.9,0-1.2,0c-0.1,0-0.2-0.2-0.3-0.3c-0.3-0.8-0.5-1.6-0.8-2.4c-0.1-0.3-0.2-0.4-0.5-0.4
			c-1.2,0-2.5,0-3.7,0c-0.1,0-0.3,0.2-0.4,0.3c-0.3,0.7-0.5,1.5-0.7,2.2c-0.1,0.5-0.3,0.7-0.8,0.6c-0.2,0-0.4,0-0.7,0
			c0.1-0.2,0.1-0.4,0.2-0.6c1-2.3,1.9-4.6,2.9-6.9c0.2-0.6,0.4-1.2,0.7-1.7c0.1-0.1,0.3-0.3,0.4-0.3c1.2-0.1,1.1-0.1,1.6,1
			c0.9,2.2,1.8,4.5,2.7,6.7C741.6-1063.2,741.8-1062.6,742-1062z M737.5-1070.7c-0.1,0-0.1,0.1-0.1,0.1c-0.6,1.4-1.1,2.9-1.7,4.3
			c-0.1,0.4,0.1,0.4,0.3,0.4c0.8,0,1.6,0,2.4,0c0.3,0,0.5,0,0.9,0C738.7-1067.6,738.1-1069.1,737.5-1070.7z"/>
		<path class="st14" d="M711.5-1071.5c0,0.7,0,1.3,0,1.9c-0.1,1.6,0,3.1-0.2,4.7c-0.2,2-1.5,3.1-3.5,3.1c-1.1,0.1-2.2-0.1-3-1
			c-0.6-0.6-0.9-1.5-0.9-2.3c-0.1-2-0.1-4.1-0.1-6.1c0-0.1,0.2-0.2,0.3-0.3c0,0,0.1,0,0.1,0c0.8,0,0.8,0,0.8,0.8c0,1.7,0,3.3,0,5
			c0,0.6,0.2,1.2,0.4,1.8c0.3,0.9,1,1.3,1.9,1.3c0.4,0,0.7,0,1.1,0c1.2-0.2,1.9-1.2,1.9-2.7c0-1.8,0-3.6,0-5.4
			c0-0.8-0.1-0.7,0.7-0.7C711.1-1071.5,711.2-1071.5,711.5-1071.5z"/>
		<path class="st14" d="M659.4-1073.3c2.8,0,5.6,0,8.4,0c0.2,0,0.5,0.1,0.5,0.1c0.1,0.3,0,0.6,0,0.9c0,0-0.2,0.1-0.3,0.1
			c-5.7,0-11.5,0-17.2,0c-0.5,0-0.5-0.3-0.5-0.6c0-0.3,0-0.5,0.5-0.5C653.6-1073.3,656.5-1073.3,659.4-1073.3z"/>
		<path class="st14" d="M690.4-1067.1c0.1,0.9,0.1,0.9-0.7,0.8c-0.7,0-1.4,0-2.1,0c-0.4,0-0.5,0.1-0.5,0.5c0,1,0.1,2.1,0.1,3.1
			c0,0.3,0.2,0.7-0.4,0.7c-0.8,0-0.8,0-0.8-0.6c0-2.2,0.1-4.5,0.1-6.7c0-0.7-0.1-1.4-0.1-2.1c1.9,0,3.7,0,5.5,0c0,0.1,0,0.2,0,0.2
			c0,0.8,0,0.8-0.8,0.7c-1.1-0.1-2.2-0.1-3.3,0c-0.1,0-0.3,0.2-0.3,0.3c0,0.9,0,1.8,0,2.7c0,0.4,0.1,0.5,0.5,0.5
			C688.5-1067.1,689.4-1067.1,690.4-1067.1z"/>
		<path class="st14" d="M745.1-1062c0-0.2,0-0.5,0-0.7c0-2.5,0-4.9,0.1-7.4c0-0.5-0.2-0.6-0.6-0.5c-0.7,0.1-1.4,0.1-2.2,0
			c-0.1,0-0.3-0.2-0.3-0.2c0-0.2,0.2-0.5,0.3-0.7c0,0,0.1,0,0.1,0c2.3,0,4.5,0,6.8,0c0.3,0.7,0.1,0.9-0.6,0.9c-0.6,0-1.3,0-1.9-0.1
			c-0.4,0-0.5,0.1-0.5,0.5c0,2.5,0,5,0,7.4c0,0.8,0,0.8-0.8,0.8C745.4-1062,745.2-1062,745.1-1062z"/>
		<path class="st14" d="M663.9-1061.5c-1.3,0-2.6,0-3.9,0c-0.4,0-0.6-0.1-0.5-0.5c0-0.1,0-0.2,0-0.3c-0.1-0.4,0.1-0.5,0.5-0.5
			c2.1,0,4.3,0,6.4,0c0.5,0,1.1,0,1.6,0c0.3,0,0.4,0.1,0.4,0.4c0,1.2,0.1,0.9-0.9,0.9C666.3-1061.5,665.1-1061.5,663.9-1061.5
			C663.9-1061.5,663.9-1061.5,663.9-1061.5z"/>
		<path class="st14" d="M751.1-1071.5c0.2,0,0.5,0,0.7,0c0.4,0,0.5,0.2,0.5,0.5c0,1.1-0.1,2.1-0.1,3.2c0,1.7,0.1,3.4,0.1,5.2
			c0,0.2-0.1,0.6-0.2,0.6c-0.3,0.1-0.7,0-1,0c0,0-0.1-0.2-0.1-0.2c0-3,0-6.1,0-9.1C751-1071.4,751-1071.4,751.1-1071.5z"/>
		<path class="st14" d="M663.9-1065.7c-1.3,0-2.6,0-3.9,0c-0.6,0-0.4-0.4-0.5-0.7c0-0.4,0-0.5,0.5-0.5c2.7,0,5.3,0,8,0
			c0.5,0,0.5,0.3,0.5,0.6c0,0.3,0.1,0.7-0.5,0.6C666.6-1065.7,665.2-1065.7,663.9-1065.7z"/>
		<path class="st14" d="M663.9-1063.6c-1.3,0-2.7,0-4,0c-0.6,0-0.4-0.3-0.5-0.6c0-0.4,0.1-0.5,0.5-0.5c2.6,0,5.3,0,7.9,0
			c0.5,0,0.5,0.3,0.5,0.6c0,0.4-0.1,0.6-0.5,0.6C666.6-1063.6,665.2-1063.6,663.9-1063.6z"/>
		<path class="st14" d="M668.4-1077.5c-0.3,0-0.6,0-0.8,0c-2.5,0-5.1,0-7.6,0c-0.4,0-0.5-0.1-0.4-0.5c0-0.3-0.1-0.6,0.4-0.6
			c2.7,0,5.4,0,8.1,0c0.3,0,0.4,0.1,0.4,0.4C668.4-1078,668.4-1077.8,668.4-1077.5z"/>
		<path class="st14" d="M663.9-1079.3c-1.3,0-2.7,0-4,0c-0.5,0-0.5-0.2-0.5-0.6c0-0.4,0.1-0.5,0.5-0.5c2.7,0,5.3,0,8,0
			c0.4,0,0.5,0.2,0.5,0.5c0,0.3,0,0.6-0.5,0.5C666.6-1079.4,665.3-1079.3,663.9-1079.3C663.9-1079.3,663.9-1079.3,663.9-1079.3z"/>
	</g>
	<g>
		<g>
			<path class="st15" d="M627.5-1115.2c-0.5,0-0.9,0-1.3-0.1c-0.4-0.1-0.7-0.1-1-0.3c-0.3-0.1-0.6-0.3-1-0.4v-1.7
				c0.4,0.3,0.9,0.6,1.4,0.8c0.6,0.2,1.2,0.3,1.8,0.3c0.6,0,1.1-0.1,1.4-0.4s0.5-0.6,0.5-1.1c0-0.4-0.1-0.6-0.3-0.8
				c-0.2-0.2-0.5-0.4-0.9-0.5c-0.4-0.1-0.8-0.3-1.2-0.5c-0.3-0.1-0.6-0.2-0.9-0.4s-0.6-0.3-0.8-0.5c-0.2-0.2-0.5-0.5-0.6-0.8
				c-0.2-0.3-0.2-0.7-0.2-1.2c0-0.3,0.1-0.7,0.2-1c0.1-0.3,0.3-0.6,0.6-0.9c0.3-0.3,0.6-0.5,1.1-0.7c0.4-0.2,1-0.2,1.6-0.2
				c0.4,0,0.7,0,1,0.1c0.3,0.1,0.6,0.1,0.8,0.2s0.6,0.2,0.9,0.4v1.6c-0.3-0.2-0.5-0.3-0.8-0.5c-0.3-0.1-0.5-0.3-0.8-0.3
				c-0.3-0.1-0.6-0.1-1-0.1c-0.4,0-0.8,0-1,0.1c-0.3,0.1-0.5,0.3-0.6,0.5c-0.1,0.2-0.2,0.4-0.2,0.7c0,0.4,0.1,0.6,0.3,0.8
				c0.2,0.2,0.4,0.4,0.7,0.5c0.3,0.1,0.7,0.3,1.1,0.4c0.4,0.1,0.7,0.3,1.1,0.4s0.7,0.3,0.9,0.5s0.5,0.5,0.7,0.8
				c0.2,0.3,0.2,0.7,0.2,1.2c0,0.5-0.1,1-0.4,1.5c-0.2,0.5-0.6,0.8-1.1,1.1C629-1115.4,628.3-1115.2,627.5-1115.2z"/>
			<path class="st15" d="M635.3-1115.4v-8.6H632v-1.4h8.1v1.4h-3.2v8.6H635.3z"/>
			<path class="st15" d="M641.7-1115.4v-10h4.4c1,0,1.8,0.3,2.4,0.8s0.8,1.3,0.8,2.3c0,0.5-0.1,1-0.3,1.4c-0.2,0.4-0.5,0.8-0.9,1.1
				s-0.9,0.4-1.4,0.5l0.2-0.5l3,4.5h-2.1l-2.8-4.5l0.8,0.7h-2.5v3.8H641.7z M643.3-1120.5h2.3c0.7,0,1.2-0.1,1.5-0.4
				s0.5-0.7,0.5-1.3c0-0.6-0.1-1-0.4-1.3c-0.3-0.3-0.7-0.5-1.3-0.5h-2.6V-1120.5z"/>
			<path class="st15" d="M650.8-1115.4l3.9-10h1.8l3.8,10h-1.7l-3.4-9.2l0.6-0.1l-3.4,9.3H650.8z M652.7-1118.1l0.5-1.4h4.8l0.1,1.4
				H652.7z"/>
			<path class="st15" d="M664-1115.4v-8.6h-3.2v-1.4h8.1v1.4h-3.2v8.6H664z"/>
			<path class="st15" d="M670.4-1115.4v-10h6.6v1.4h-4.9v2.9h4.3v1.4h-4.3v2.9h4.9v1.4H670.4z"/>
			<path class="st15" d="M683.6-1115.2c-1,0-1.9-0.2-2.6-0.6s-1.2-0.9-1.6-1.7c-0.4-0.8-0.6-1.7-0.6-2.9c0-1.2,0.2-2.1,0.6-2.9
				c0.4-0.8,0.9-1.3,1.6-1.7s1.6-0.6,2.6-0.6c0.6,0,1.2,0.1,1.7,0.2c0.6,0.1,1.1,0.3,1.6,0.5v1.6c-0.5-0.3-1.1-0.5-1.6-0.6
				c-0.5-0.2-1-0.3-1.6-0.3c-0.7,0-1.3,0.1-1.8,0.4c-0.5,0.3-0.8,0.7-1.1,1.2c-0.2,0.6-0.4,1.3-0.4,2.2c0,0.9,0.1,1.6,0.4,2.2
				c0.2,0.6,0.6,1,1.1,1.2c0.5,0.3,1.1,0.4,1.8,0.4c0.4,0,0.7,0,1-0.1c0.3-0.1,0.6-0.1,0.9-0.2v-2.4h-2.1v-1.4h3.8v4.6
				c-0.6,0.3-1.2,0.5-1.8,0.7S684.3-1115.2,683.6-1115.2z"/>
			<path class="st15" d="M689.7-1115.4v-10h1.7v10H689.7z"/>
			<path class="st15" d="M698-1115.2c-1.6,0-2.8-0.4-3.6-1.3c-0.8-0.9-1.2-2.1-1.2-3.9c0-1.7,0.4-3,1.2-3.9c0.8-0.9,2-1.3,3.6-1.3
				c0.5,0,1.1,0.1,1.6,0.2c0.5,0.1,1,0.3,1.5,0.5v1.5c-0.5-0.3-1-0.5-1.5-0.6c-0.5-0.1-1-0.2-1.4-0.2c-0.7,0-1.3,0.1-1.8,0.4
				c-0.5,0.3-0.8,0.7-1.1,1.2c-0.2,0.6-0.4,1.3-0.4,2.2c0,0.9,0.1,1.6,0.4,2.2c0.2,0.6,0.6,1,1.1,1.2c0.5,0.3,1.1,0.4,1.9,0.4
				c0.5,0,0.9-0.1,1.4-0.2c0.5-0.1,1-0.3,1.5-0.6v1.5c-0.3,0.1-0.6,0.3-1,0.4c-0.4,0.1-0.7,0.2-1.1,0.2S698.4-1115.2,698-1115.2z"/>
			<path class="st15" d="M709-1119v3.6h-1.7v-10h4c1.1,0,2,0.3,2.7,0.8c0.6,0.5,0.9,1.3,0.9,2.4s-0.3,1.9-0.9,2.4s-1.5,0.8-2.7,0.8
				H709z M709-1120.4h2.1c0.4,0,0.8,0,1.1-0.1s0.5-0.2,0.6-0.4c0.2-0.2,0.3-0.4,0.3-0.6c0.1-0.2,0.1-0.4,0.1-0.7
				c0-0.2,0-0.5-0.1-0.7c-0.1-0.2-0.2-0.4-0.3-0.6s-0.4-0.3-0.6-0.4c-0.3-0.1-0.6-0.1-1.1-0.1H709V-1120.4z"/>
			<path class="st15" d="M716-1115.4l3.9-10h1.8l3.8,10h-1.7l-3.4-9.2l0.6-0.1l-3.4,9.3H716z M717.9-1118.1l0.5-1.4h4.8l0.1,1.4
				H717.9z"/>
			<path class="st15" d="M726.9-1115.4v-10h4.4c1,0,1.8,0.3,2.4,0.8s0.8,1.3,0.8,2.3c0,0.5-0.1,1-0.3,1.4c-0.2,0.4-0.5,0.8-0.9,1.1
				s-0.9,0.4-1.4,0.5l0.2-0.5l3,4.5H733l-2.8-4.5l0.8,0.7h-2.5v3.8H726.9z M728.6-1120.5h2.3c0.7,0,1.2-0.1,1.5-0.4s0.5-0.7,0.5-1.3
				c0-0.6-0.1-1-0.4-1.3c-0.3-0.3-0.7-0.5-1.3-0.5h-2.6V-1120.5z"/>
			<path class="st15" d="M739.3-1115.4v-8.6H736v-1.4h8.1v1.4h-3.2v8.6H739.3z"/>
			<path class="st15" d="M745.7-1115.4v-10h1.6l5.8,8l-0.5,0.9v-8.9h1.6v10h-1.5l-6-8.2l0.5-0.7v8.9H745.7z"/>
			<path class="st15" d="M756.5-1115.4v-10h6.6v1.4h-4.9v2.9h4.3v1.4h-4.3v2.9h4.9v1.4H756.5z"/>
			<path class="st15" d="M765.3-1115.4v-10h4.4c1,0,1.8,0.3,2.4,0.8s0.8,1.3,0.8,2.3c0,0.5-0.1,1-0.3,1.4c-0.2,0.4-0.5,0.8-0.9,1.1
				s-0.9,0.4-1.4,0.5l0.2-0.5l3,4.5h-2.1l-2.8-4.5l0.8,0.7H767v3.8H765.3z M767-1120.5h2.3c0.7,0,1.2-0.1,1.5-0.4s0.5-0.7,0.5-1.3
				c0-0.6-0.1-1-0.4-1.3c-0.3-0.3-0.7-0.5-1.3-0.5H767V-1120.5z"/>
		</g>
	</g>
</g>
</svg>
