<?xml version="1.0" encoding="utf-8"?>
<!-- Generator: Adobe Illustrator 28.1.0, SVG Export Plug-In . SVG Version: 6.00 Build 0)  -->
<svg version="1.1" id="Layer_1" xmlns="http://www.w3.org/2000/svg" xmlns:xlink="http://www.w3.org/1999/xlink" x="0px" y="0px"
	 viewBox="0 0 171 212.5" style="enable-background:new 0 0 171 212.5;" xml:space="preserve">
<style type="text/css">
	.st0{fill:#F3B841;}
	.st1{fill:#E01E49;}
	.st2{fill:#B74E92;}
	.st3{fill:#593587;}
	.st4{fill:#4766A8;}
	.st5{fill:#5EC0EC;}
</style>
<g>
	<path class="st0" d="M64.07,177.17H40.33c-7.03,0-12.72-5.69-12.72-12.7v-4.97l-24.44,32.7c-6.26,8.37-0.27,20.29,10.19,20.29
		h27.45h46.95c4.01,0,7.79-1.89,10.19-5.1l22.59-30.23H64.07z"/>
	<path class="st1" d="M120.55,106.51l-22.59,30.23c-2.4,3.21-6.18,5.1-10.19,5.1H40.81v0l-13.2,17.66v4.97
		c0,7.01,5.69,12.7,12.72,12.7h23.74h56.48l26.4-35.33L120.55,106.51z"/>
	<path class="st2" d="M146.96,141.84l20.73-27.74c3.37-4.5,3.37-10.69,0-15.19l-20.73-27.74l-26.4,35.33L146.96,141.84z"/>
	<path class="st3" d="M61.54,114.1l-20.73,27.73h46.95c4.01,0,7.79-1.89,10.19-5.1l22.59-30.23L97.96,76.28
		c-2.4-3.21-6.18-5.1-10.19-5.1H40.82l20.73,27.73C64.91,103.42,64.91,109.6,61.54,114.1"/>
	<path class="st4" d="M120.55,35.85H64.07H40.33c-7.02,0-12.72,5.69-12.72,12.7v4.97l13.2,17.67h46.95c4.01,0,7.79,1.89,10.19,5.1
		l22.59,30.23l26.4-35.33L120.55,35.85z"/>
	<path class="st5" d="M97.96,5.62c-2.4-3.21-6.18-5.1-10.19-5.1H40.82H13.36C2.9,0.51-3.09,12.43,3.17,20.81l24.44,32.7v-4.97
		c0-7.01,5.69-12.7,12.72-12.7h23.74h56.48L97.96,5.62z"/>
</g>
</svg>
