<?xml version="1.0" encoding="utf-8"?>
<!-- Generator: Adobe Illustrator 28.0.0, SVG Export Plug-In . SVG Version: 6.00 Build 0)  -->
<svg version="1.1" id="Layer_1" xmlns="http://www.w3.org/2000/svg" xmlns:xlink="http://www.w3.org/1999/xlink" x="0px" y="0px"
	 viewBox="0 0 720 212" style="enable-background:new 0 0 720 212;" xml:space="preserve">
<style type="text/css">
	.st0{fill:#FFFFFF;}
	.st1{fill:#E40046;}
</style>
<polygon class="st0" points="183.4,184.1 183.4,181.9 195.2,181.9 195.2,184.1 190.4,184.1 190.4,203.6 188.2,203.6 188.2,184.1 "/>
<path class="st0" d="M198,181.4h2.1v9c0.8-1.1,1.8-1.9,2.8-2.5c1-0.5,2.1-0.8,3.2-0.8c1.2,0,2.3,0.3,3.2,0.9
	c0.9,0.6,1.6,1.4,2.1,2.4c0.4,1,0.7,2.6,0.7,4.8v8.2h-2.1v-7.6c0-1.8-0.1-3.1-0.2-3.7c-0.2-1.1-0.7-1.9-1.4-2.4s-1.6-0.8-2.6-0.8
	c-1.2,0-2.4,0.4-3.4,1.2c-1,0.8-1.6,1.8-1.9,3.1c-0.2,0.8-0.3,2.2-0.3,4.4v5.9H198L198,181.4L198,181.4z"/>
<path class="st0" d="M229.8,198.3l1.7,0.9c-0.6,1.1-1.2,2-2,2.7c-0.8,0.7-1.6,1.2-2.5,1.6c-0.9,0.4-2,0.5-3.2,0.5
	c-2.6,0-4.6-0.9-6.1-2.6c-1.5-1.7-2.2-3.6-2.2-5.8c0-2,0.6-3.8,1.9-5.4c1.6-2,3.7-3,6.3-3c2.7,0,4.9,1,6.5,3.1
	c1.2,1.5,1.8,3.3,1.8,5.5h-14.4c0,1.9,0.6,3.4,1.8,4.6s2.6,1.8,4.3,1.8c0.8,0,1.6-0.1,2.4-0.4s1.4-0.7,2-1.1
	C228.6,200.1,229.2,199.3,229.8,198.3L229.8,198.3z M229.8,193.9c-0.3-1.1-0.7-2-1.2-2.6c-0.5-0.7-1.2-1.2-2.1-1.6
	c-0.9-0.4-1.8-0.6-2.7-0.6c-1.6,0-2.9,0.5-4.1,1.5c-0.8,0.7-1.4,1.8-1.9,3.3L229.8,193.9L229.8,193.9z"/>
<path class="st0" d="M244.3,187.6h2.1v2.9c0.8-1.1,1.7-1.9,2.7-2.5c1-0.5,2.1-0.8,3.3-0.8c1.2,0,2.3,0.3,3.2,0.9
	c0.9,0.6,1.6,1.4,2,2.5c0.4,1,0.7,2.6,0.7,4.8v8.2h-2.1v-7.6c0-1.8-0.1-3.1-0.2-3.7c-0.2-1.1-0.7-1.9-1.4-2.4
	c-0.7-0.5-1.6-0.8-2.6-0.8c-1.2,0-2.4,0.4-3.4,1.2c-1,0.8-1.6,1.8-1.9,3.1c-0.2,0.8-0.3,2.2-0.3,4.4v5.9h-2.1L244.3,187.6
	L244.3,187.6z"/>
<path class="st0" d="M276.1,198.3l1.7,0.9c-0.6,1.1-1.2,2-2,2.7s-1.6,1.2-2.5,1.6c-0.9,0.4-2,0.5-3.2,0.5c-2.6,0-4.6-0.9-6.1-2.6
	c-1.5-1.7-2.2-3.6-2.2-5.8c0-2,0.6-3.8,1.9-5.4c1.6-2,3.7-3,6.3-3c2.7,0,4.9,1,6.5,3.1c1.2,1.5,1.8,3.3,1.8,5.5H264
	c0,1.9,0.6,3.4,1.8,4.6s2.6,1.8,4.3,1.8c0.8,0,1.6-0.1,2.4-0.4c0.8-0.3,1.4-0.7,2-1.1C274.9,200.1,275.5,199.3,276.1,198.3
	L276.1,198.3z M276.1,193.9c-0.3-1.1-0.7-2-1.2-2.6c-0.5-0.7-1.2-1.2-2.1-1.6c-0.9-0.4-1.8-0.6-2.7-0.6c-1.6,0-2.9,0.5-4,1.5
	c-0.8,0.7-1.5,1.8-1.9,3.3L276.1,193.9L276.1,193.9z"/>
<polygon class="st0" points="280.4,187.6 282.9,187.6 287.1,193.4 291.3,187.6 293.8,187.6 288.4,195.1 294.5,203.6 292,203.6 
	287.1,196.9 282.3,203.6 279.8,203.6 285.9,195.1 "/>
<polygon class="st0" points="298.5,181.6 300.5,181.6 300.5,187.6 303.8,187.6 303.8,189.3 300.5,189.3 300.5,203.6 298.5,203.6 
	298.5,189.3 295.7,189.3 295.7,187.6 298.5,187.6 "/>
<path class="st0" d="M315.4,203.6v-22.2h2.1v8.9c0.9-1.1,1.8-1.9,2.9-2.4c1.1-0.5,2.2-0.8,3.5-0.8c2.3,0,4.2,0.8,5.8,2.5
	c1.6,1.6,2.4,3.6,2.4,6c0,2.3-0.8,4.3-2.4,5.9c-1.6,1.6-3.6,2.5-5.8,2.5c-1.3,0-2.5-0.3-3.5-0.8s-2-1.4-2.8-2.5v2.9L315.4,203.6
	L315.4,203.6z M323.6,202c1.1,0,2.2-0.3,3.2-0.8s1.7-1.4,2.3-2.4s0.9-2.1,0.9-3.2s-0.3-2.2-0.9-3.2c-0.6-1-1.4-1.8-2.3-2.4
	c-1-0.6-2-0.9-3.1-0.9c-1.1,0-2.2,0.3-3.2,0.9c-1,0.6-1.8,1.4-2.3,2.3c-0.5,1-0.8,2.1-0.8,3.3c0,1.9,0.6,3.4,1.8,4.6
	C320.3,201.4,321.8,202,323.6,202L323.6,202z"/>
<path class="st0" d="M336.5,181c0.5,0,0.9,0.2,1.2,0.5c0.3,0.3,0.5,0.7,0.5,1.2c0,0.5-0.2,0.9-0.5,1.2s-0.7,0.5-1.2,0.5
	c-0.5,0-0.9-0.2-1.2-0.5c-0.3-0.3-0.5-0.7-0.5-1.2c0-0.5,0.2-0.9,0.5-1.2C335.6,181.1,336,181,336.5,181L336.5,181z M335.5,187.6
	h2.1v16h-2.1V187.6z"/>
<path class="st0" d="M355.6,187.6h2.1v12.8c0,2.2-0.2,3.9-0.6,4.9c-0.5,1.5-1.5,2.6-2.8,3.4c-1.3,0.8-2.9,1.2-4.8,1.2
	c-1.4,0-2.6-0.2-3.7-0.6c-1.1-0.4-2-0.9-2.7-1.6s-1.3-1.6-1.9-2.9h2.2c0.6,1.1,1.4,1.8,2.4,2.4c1,0.5,2.1,0.8,3.6,0.8
	c1.4,0,2.6-0.3,3.6-0.8s1.7-1.2,2.1-2c0.4-0.8,0.6-2.1,0.6-3.8v-0.8c-0.8,1-1.7,1.7-2.8,2.3s-2.3,0.8-3.6,0.8
	c-1.5,0-2.9-0.4-4.1-1.1c-1.3-0.7-2.3-1.7-3-2.9c-0.7-1.2-1.1-2.6-1.1-4.1c0-1.5,0.4-2.9,1.1-4.1c0.7-1.3,1.8-2.3,3.1-3
	c1.3-0.7,2.7-1.1,4.1-1.1c1.2,0,2.3,0.2,3.4,0.7c1,0.5,2,1.3,3,2.4L355.6,187.6L355.6,187.6z M349.5,189.1c-1.2,0-2.2,0.3-3.2,0.8
	s-1.8,1.4-2.4,2.3c-0.6,1-0.9,2.1-0.9,3.2c0,1.8,0.6,3.2,1.8,4.4c1.2,1.1,2.7,1.7,4.6,1.7c1.9,0,3.4-0.6,4.6-1.7
	c1.1-1.1,1.7-2.6,1.7-4.5c0-1.2-0.3-2.3-0.8-3.2s-1.3-1.7-2.2-2.2C351.7,189.4,350.6,189.1,349.5,189.1L349.5,189.1z"/>
<path class="st0" d="M371.1,181c0.5,0,0.9,0.2,1.2,0.5c0.3,0.3,0.5,0.7,0.5,1.2c0,0.5-0.2,0.9-0.5,1.2s-0.7,0.5-1.2,0.5
	c-0.5,0-0.9-0.2-1.2-0.5c-0.3-0.3-0.5-0.7-0.5-1.2c0-0.5,0.2-0.9,0.5-1.2C370.3,181.1,370.7,181,371.1,181L371.1,181z M370.1,187.6
	h2.1v16h-2.1V187.6z"/>
<path class="st0" d="M392.4,181.4v22.2h-2v-2.8c-0.9,1.1-1.8,1.8-2.9,2.4s-2.2,0.8-3.5,0.8c-2.3,0-4.2-0.8-5.8-2.5
	c-1.6-1.6-2.4-3.6-2.4-6c0-2.3,0.8-4.3,2.4-5.9c1.6-1.6,3.6-2.5,5.8-2.5c1.3,0,2.5,0.3,3.6,0.8c1.1,0.6,2,1.4,2.8,2.5v-9.1
	L392.4,181.4L392.4,181.4z M384.2,189.1c-1.1,0-2.2,0.3-3.2,0.8s-1.7,1.4-2.3,2.4c-0.6,1-0.9,2.1-0.9,3.2c0,1.1,0.3,2.2,0.9,3.2
	s1.4,1.8,2.3,2.4c1,0.6,2,0.9,3.1,0.9c1.1,0,2.2-0.3,3.2-0.9s1.8-1.3,2.3-2.3c0.5-1,0.8-2.1,0.8-3.3c0-1.9-0.6-3.4-1.8-4.6
	C387.5,189.8,386,189.1,384.2,189.1L384.2,189.1z"/>
<path class="st0" d="M410.6,198.3l1.7,0.9c-0.6,1.1-1.2,2-2,2.7c-0.8,0.7-1.6,1.2-2.5,1.6c-0.9,0.4-2,0.5-3.2,0.5
	c-2.6,0-4.6-0.9-6.1-2.6c-1.5-1.7-2.2-3.6-2.2-5.8c0-2,0.6-3.8,1.9-5.4c1.6-2,3.7-3,6.3-3c2.7,0,4.9,1,6.5,3.1
	c1.2,1.5,1.8,3.3,1.8,5.5h-14.4c0,1.9,0.6,3.4,1.8,4.6s2.6,1.8,4.3,1.8c0.8,0,1.6-0.1,2.4-0.4c0.8-0.3,1.4-0.7,2-1.1
	C409.4,200.1,409.9,199.3,410.6,198.3L410.6,198.3z M410.6,193.9c-0.3-1.1-0.7-2-1.2-2.6c-0.5-0.7-1.2-1.2-2.1-1.6
	c-0.9-0.4-1.8-0.6-2.7-0.6c-1.6,0-2.9,0.5-4,1.5c-0.8,0.7-1.5,1.8-1.9,3.3L410.6,193.9L410.6,193.9z"/>
<path class="st0" d="M432.6,187.6v16h-2v-2.8c-0.9,1.1-1.8,1.8-2.9,2.4c-1.1,0.5-2.2,0.8-3.5,0.8c-2.3,0-4.2-0.8-5.8-2.5
	c-1.6-1.6-2.4-3.6-2.4-6c0-2.3,0.8-4.3,2.4-5.9c1.6-1.6,3.6-2.5,5.8-2.5c1.3,0,2.5,0.3,3.6,0.8c1.1,0.6,2,1.4,2.8,2.5v-2.9
	L432.6,187.6L432.6,187.6z M424.4,189.1c-1.1,0-2.2,0.3-3.2,0.8s-1.7,1.4-2.3,2.4c-0.6,1-0.9,2.1-0.9,3.2c0,1.1,0.3,2.2,0.9,3.2
	s1.4,1.8,2.3,2.4c1,0.6,2,0.9,3.1,0.9c1.1,0,2.2-0.3,3.2-0.9s1.8-1.3,2.3-2.3c0.5-1,0.8-2.1,0.8-3.3c0-1.9-0.6-3.4-1.8-4.6
	C427.7,189.8,426.2,189.1,424.4,189.1L424.4,189.1z"/>
<path class="st0" d="M446.3,181c0.5,0,0.9,0.2,1.2,0.5c0.3,0.3,0.5,0.7,0.5,1.2c0,0.5-0.2,0.9-0.5,1.2c-0.3,0.3-0.7,0.5-1.2,0.5
	c-0.5,0-0.9-0.2-1.2-0.5c-0.3-0.3-0.5-0.7-0.5-1.2c0-0.5,0.2-0.9,0.5-1.2C445.4,181.1,445.8,181,446.3,181L446.3,181z M445.3,187.6
	h2.1v16h-2.1V187.6z"/>
<path class="st0" d="M459.7,189.3l-1.3,1.4c-1.1-1.1-2.2-1.6-3.2-1.6c-0.7,0-1.2,0.2-1.7,0.7s-0.7,1-0.7,1.5c0,0.5,0.2,1,0.6,1.5
	c0.4,0.5,1.2,1,2.5,1.7c1.5,0.8,2.6,1.6,3.1,2.3c0.5,0.8,0.8,1.6,0.8,2.5c0,1.3-0.5,2.4-1.4,3.3c-0.9,0.9-2.1,1.4-3.5,1.4
	c-0.9,0-1.8-0.2-2.6-0.6c-0.8-0.4-1.5-1-2.1-1.7l1.3-1.5c1,1.2,2.2,1.8,3.4,1.8c0.8,0,1.5-0.3,2.1-0.8s0.9-1.1,0.9-1.9
	c0-0.6-0.2-1.1-0.6-1.6c-0.4-0.4-1.2-1-2.6-1.7c-1.4-0.8-2.4-1.5-3-2.2c-0.5-0.7-0.8-1.6-0.8-2.5c0-1.2,0.4-2.2,1.2-3
	c0.8-0.8,1.9-1.2,3.1-1.2C456.7,187.1,458.2,187.9,459.7,189.3L459.7,189.3z"/>
<polygon class="st0" points="469.9,187.6 472.1,187.6 477.6,199.9 482.9,187.6 485.1,187.6 475.6,209.4 473.4,209.4 476.5,202.4 "/>
<path class="st0" d="M495.4,187.1c2.5,0,4.5,0.9,6.1,2.7c1.5,1.6,2.2,3.6,2.2,5.8c0,2.2-0.8,4.2-2.3,5.9s-3.6,2.5-6,2.5
	c-2.5,0-4.5-0.8-6-2.5s-2.3-3.6-2.3-5.9c0-2.2,0.7-4.1,2.2-5.8C490.9,188.1,492.9,187.1,495.4,187.1L495.4,187.1z M495.4,189.2
	c-1.7,0-3.2,0.6-4.4,1.9c-1.2,1.3-1.8,2.8-1.8,4.6c0,1.2,0.3,2.2,0.8,3.2s1.3,1.8,2.3,2.3c1,0.5,2,0.8,3.1,0.8s2.2-0.3,3.1-0.8
	c1-0.5,1.7-1.3,2.3-2.3s0.8-2.1,0.8-3.2c0-1.8-0.6-3.3-1.9-4.6C498.5,189.8,497.1,189.2,495.4,189.2L495.4,189.2z"/>
<path class="st0" d="M507.3,187.6h2.1v7.5c0,1.8,0.1,3.1,0.3,3.8c0.3,1,0.9,1.8,1.7,2.3c0.8,0.6,1.8,0.9,3,0.9s2.1-0.3,2.9-0.8
	s1.3-1.3,1.7-2.2c0.2-0.6,0.3-1.9,0.3-3.9v-7.5h2.1v7.9c0,2.2-0.3,3.9-0.8,5c-0.5,1.1-1.3,2-2.3,2.6c-1,0.6-2.3,0.9-3.9,0.9
	s-2.9-0.3-3.9-0.9c-1-0.6-1.8-1.5-2.3-2.6c-0.5-1.1-0.8-2.8-0.8-5.1L507.3,187.6L507.3,187.6L507.3,187.6z"/>
<path class="st0" d="M525,187.6h2.1v2.3c0.6-0.9,1.3-1.6,2-2.1s1.4-0.7,2.2-0.7c0.6,0,1.2,0.2,1.8,0.5l-1.1,1.7
	c-0.4-0.2-0.8-0.3-1.1-0.3c-0.7,0-1.3,0.3-2,0.8s-1.1,1.4-1.5,2.6c-0.3,0.9-0.4,2.8-0.4,5.5v5.4H525L525,187.6L525,187.6z"/>
<path class="st0" d="M542.9,189.3l-1.3,1.4c-1.1-1.1-2.2-1.6-3.2-1.6c-0.7,0-1.2,0.2-1.7,0.7s-0.7,1-0.7,1.5c0,0.5,0.2,1,0.6,1.5
	c0.4,0.5,1.2,1,2.5,1.7c1.5,0.8,2.6,1.6,3.1,2.3c0.5,0.8,0.8,1.6,0.8,2.5c0,1.3-0.5,2.4-1.4,3.3c-0.9,0.9-2.1,1.4-3.5,1.4
	c-0.9,0-1.8-0.2-2.6-0.6c-0.8-0.4-1.5-1-2.1-1.7l1.3-1.5c1,1.2,2.2,1.8,3.3,1.8c0.8,0,1.5-0.3,2.1-0.8c0.6-0.5,0.9-1.1,0.9-1.9
	c0-0.6-0.2-1.1-0.6-1.6c-0.4-0.4-1.2-1-2.6-1.7c-1.4-0.8-2.4-1.5-3-2.2c-0.5-0.7-0.8-1.6-0.8-2.5c0-1.2,0.4-2.2,1.2-3
	c0.8-0.8,1.9-1.2,3.2-1.2C540,187.1,541.5,187.9,542.9,189.3L542.9,189.3z"/>
<path class="st0" d="M698.5,139V90.6h10.1v12.7h9.4v8.9h-9.4v24.4c0,3.2,1.5,5.5,4.4,5.5c1.9,0,3.8-0.8,4.5-1.6l2.4,7.6
	c-1.8,1.7-4.8,3-9.5,3C702.7,150.9,698.5,146.7,698.5,139L698.5,139z"/>
<path class="st0" d="M655.2,149.8H644l17-23.9l-16.1-22.6h11.4l17.3,22.6L655.2,149.8z M678.2,119.5l11.5-16.2h-11.4l-6,8.6
	L678.2,119.5z M678.2,132.3l-5.8,7.5l7,10h11.4L678.2,132.3z"/>
<path class="st0" d="M594.7,126.5c0-13.5,9.8-24.4,23.6-24.4c14,0,22.9,10.7,22.9,25.3v2.4h-35.9c0.8,7,6.1,12.8,14.8,12.8
	c4.5,0,9.9-1.8,13.2-5.1l4.6,6.6c-4.6,4.4-11.5,6.7-18.9,6.7C605.1,150.9,594.7,141.2,594.7,126.5L594.7,126.5z M618.3,110.4
	c-8.7,0-12.6,6.6-13.1,12.3h26.2C631.2,117.3,627.4,110.4,618.3,110.4L618.3,110.4z"/>
<path class="st0" d="M584,85.6v64.2h-10.9l-44.8-61.1v-3.1h11.5l32.8,44.6V85.6H584z M528.3,103.7v46.1h11.3v-30.7L528.3,103.7z"/>
<path class="st0" d="M465.9,143.6l3-3.8c3,3.8,8.5,6.8,15,6.8c7.8,0,12.4-4,12.4-9.4c0-12.7-29.4-5.6-29.4-22.2
	c0-7.1,6.1-12.9,16.6-12.9c8,0,13.3,3.1,16.7,6.8l-2.8,3.6c-2.7-3.7-7.7-6.2-13.9-6.2c-7.2,0-11.6,3.7-11.6,8.5
	c0,11.7,29.4,4.5,29.4,22.4c0,7.5-5.8,13.7-17.4,13.7C476.3,150.9,470.5,148.7,465.9,143.6L465.9,143.6z"/>
<path class="st0" d="M421.3,142.3v25.2h-5v-64.2h5v7.3c3.3-4.7,9.2-8.5,16.2-8.5c12.4,0,20.8,9.4,20.8,24.4
	c0,14.8-8.4,24.4-20.8,24.4C431,150.9,425.1,147.6,421.3,142.3L421.3,142.3z M452.9,126.5c0-11.3-5.9-19.8-16.3-19.8
	c-6.5,0-12.6,3.8-15.3,8.3v23c2.7,4.4,8.9,8.5,15.3,8.5C447,146.4,452.9,137.8,452.9,126.5L452.9,126.5z"/>
<path class="st0" d="M398.1,149.8V143c-3.9,4.2-10,8-16.8,8c-9.5,0-14.6-4.4-14.6-14.9v-32.7h5v31.6c0,9.1,4.5,11.6,11.3,11.6
	c6,0,12-3.6,15.1-7.7v-35.4h5v46.5H398.1L398.1,149.8z"/>
<path class="st0" d="M339,140.8V90.6h5.1v12.7h9.4v4.4h-9.4v32.3c0,3.8,1.5,6.4,4.8,6.4c2.2,0,4.1-1.1,5.2-2.2l1.9,3.9
	c-1.8,1.7-4,2.9-7.9,2.9C341.9,150.9,339,147.2,339,140.8L339,140.8z"/>
<path class="st0" d="M307.6,149.8v-46.5h5v8c4-5.2,9.2-8.9,15.7-8.9v5.5c-0.9-0.2-1.5-0.2-2.5-0.2c-4.7,0-11.1,4.2-13.2,8.3v33.9
	L307.6,149.8L307.6,149.8z"/>
<path class="st0" d="M289.4,149.8v-5.5c-4.1,4.5-9.3,6.6-15.8,6.6c-8,0-16.3-5.5-16.3-15.5c0-10.1,8.2-15.4,16.3-15.4
	c6.5,0,11.8,2.1,15.8,6.6v-9.4c0-6.9-5.6-10.7-12.5-10.7c-5.8,0-10.3,2-14.5,6.8l-2.8-3.5c4.8-5.2,10.2-7.8,17.9-7.8
	c9.4,0,16.9,4.5,16.9,14.9v32.7L289.4,149.8L289.4,149.8L289.4,149.8z M289.4,140.6v-10.2c-3.3-4.2-8.5-6.4-14-6.4
	c-7.7,0-12.7,4.9-12.7,11.6c0,6.6,5,11.5,12.7,11.5C280.9,147,286.1,144.9,289.4,140.6L289.4,140.6z"/>
<path class="st0" d="M234.4,140.8V90.6h5.1v12.7h9.4v4.4h-9.4v32.3c0,3.8,1.5,6.4,4.8,6.4c2.2,0,4.1-1.1,5.2-2.2l1.9,3.9
	c-1.8,1.7-4,2.9-7.9,2.9C237.4,150.9,234.4,147.2,234.4,140.8L234.4,140.8z"/>
<path class="st0" d="M176.3,140.8l3.6-4.1c4.1,4.8,10.9,9.3,20,9.3c13.2,0,16.9-7.3,16.9-12.8c0-18.9-38.5-9.1-38.5-31.5
	c0-10.5,9.4-17.1,21.1-17.1c9.6,0,16.8,3.4,21.8,9.1l-3.7,4.1c-4.6-5.6-11.2-8.1-18.4-8.1c-8.6,0-15,4.9-15,11.8
	c0,16.5,38.5,7.4,38.5,31.4c0,8.3-5.5,18.2-22.8,18.2C189.2,150.9,181.2,146.7,176.3,140.8L176.3,140.8z"/>
<path class="st0" d="M262.3,50.4V30.1h4.1v20.3c0,6.1,3.3,9.9,9.4,9.9c6.1,0,9.4-3.8,9.4-9.9V30.1h4.1v20.3
	c0,8.3-4.5,13.6-13.6,13.6C266.8,63.9,262.3,58.6,262.3,50.4L262.3,50.4z"/>
<path class="st0" d="M224.1,58.7l2.4-3.1c2.2,2.4,5.8,4.7,10.5,4.7c5.9,0,7.8-3.2,7.8-5.7c0-8.6-19.7-3.8-19.7-15.7
	c0-5.5,4.9-9.2,11.4-9.2c5.1,0,9,1.7,11.8,4.6l-2.5,3c-2.5-2.7-6-4-9.6-4c-4,0-6.8,2.2-6.8,5.3c0,7.5,19.7,3.2,19.7,15.6
	c0,4.8-3.3,9.8-12.3,9.8C231.1,63.9,226.8,61.7,224.1,58.7L224.1,58.7z"/>
<polygon class="st0" points="206.9,63.3 187.5,36.8 187.5,63.3 183.4,63.3 183.4,30.1 187.6,30.1 206.7,56.1 206.7,30.1 210.9,30.1 
	210.9,63.3 "/>
<path class="st1" d="M142.4,96.4l-17.6,23.5l-22.4,30h0l-19.2,25.6c-2,2.7-5.2,4.3-8.7,4.3H11.4c-8.9,0-14-10.1-8.6-17.2l20.7-27.7
	v0l11.2-15l17.6-23.5c2.8-3.8,2.8-9.1,0-12.9L34.7,60L23.5,45L2.8,17.2C-2.5,10.1,2.5,0,11.4,0h63.1c3.4,0,6.6,1.6,8.7,4.3L102.4,30
	l22.4,30l17.6,23.5C145.2,87.3,145.2,92.6,142.4,96.4z"/>
</svg>
