<?xml version="1.0" encoding="utf-8"?>
<!-- Generator: Adobe Illustrator 28.0.0, SVG Export Plug-In . SVG Version: 6.00 Build 0)  -->
<svg version="1.1" id="Layer_1" xmlns="http://www.w3.org/2000/svg" xmlns:xlink="http://www.w3.org/1999/xlink" x="0px" y="0px"
	 viewBox="0 0 530 380" style="enable-background:new 0 0 530 380;" xml:space="preserve">
<style type="text/css">
	.st0{fill:#E40046;}
</style>
<path class="st0" d="M382.8,205.8c-3.5,0-7.1-1.1-10.6-1.9c-7.1-1.6-14-3.6-20.7-6.2c-15.2-5.5-32.1,1.3-39.3,15.8l-3.5,7.1
	c-15.4-8.6-29.6-19.2-42.1-31.7c-12.4-12.5-23.1-26.7-31.7-42.1l6.6-4.4c14.5-7.1,21.4-24.1,15.8-39.3c-2.5-6.8-4.6-13.7-6.2-20.7
	c-0.8-3.5-1.4-7.1-1.9-10.8c-4-23-24.1-39.8-47.5-39.4h-47.5c-26.2-0.2-47.7,20.8-47.9,47.1c0,2.3,0.1,4.6,0.4,6.9
	c17.4,136.5,125,243.8,261.6,260.6h6c11.7,0,22.9-4.3,31.7-12c10.1-9.1,15.9-22,15.8-35.6v-47.5
	C421.5,229.1,405.1,209.8,382.8,205.8L382.8,205.8z M390.7,300.8c0,4.5-2,8.9-5.4,11.9c-3.6,3.1-8.3,4.5-13,4
	c-122-15.6-217.8-112-232.9-234c-0.5-4.7,0.9-9.4,4-13c3-3.4,7.3-5.4,11.9-5.4h47.5c7.6-0.2,14.2,5.1,15.8,12.5
	c0.6,4.3,1.4,8.6,2.4,12.8c1.8,8.3,4.3,16.5,7.3,24.5l-22.2,10.3c-7.9,3.6-11.4,13-7.8,21c0,0,0,0,0,0.1
	c22.8,48.8,62,88,110.8,110.8c3.9,1.6,8.2,1.6,12,0c4-1.4,7.2-4.4,9-8.2l9.8-22.2c8.2,2.9,16.5,5.4,25,7.3c4.2,0.9,8.5,1.7,12.8,2.4
	c7.4,1.6,12.7,8.2,12.5,15.8L390.7,300.8z"/>
</svg>
