<?xml version="1.0" encoding="utf-8"?>
<!-- Generator: Adobe Illustrator 28.1.0, SVG Export Plug-In . SVG Version: 6.00 Build 0)  -->
<svg version="1.1" id="Layer_1" xmlns="http://www.w3.org/2000/svg" xmlns:xlink="http://www.w3.org/1999/xlink" x="0px" y="0px"
	 viewBox="0 0 896.68 629.11" style="enable-background:new 0 0 896.68 629.11;" xml:space="preserve">
<style type="text/css">
	.st0{opacity:0.1;}
	.st1{fill:#E01E49;}
	.st2{fill:#2F2E41;}
	.st3{fill:#FFB6B6;}
	.st4{fill:#E6E6E6;}
	.st5{fill:#3F3D56;}
	.st6{fill:#FFFFFF;}
	.st7{fill:#F3B841;}
	.st8{fill:#B74E92;}
	.st9{fill:#593587;}
	.st10{fill:#4766A8;}
	.st11{fill:#5EC0EC;}
</style>
<g class="st0">
	<path class="st1" d="M246.17-492.31l-12.82,17.16l-16.34,21.86l-13.98,18.7c-1.48,1.99-3.82,3.16-6.3,3.16H150.7
		c-6.47,0-10.18-7.37-6.3-12.56l15.12-20.23l8.17-10.93h0.01l12.82-17.16c2.09-2.78,2.09-6.61,0-9.4l-12.82-17.16h-0.01l-8.17-10.93
		l-15.12-20.23c-3.87-5.18-0.17-12.56,6.3-12.56h46.04c2.48,0,4.82,1.18,6.3,3.16l13.98,18.7l16.34,21.86l12.82,17.16
		C248.26-498.93,248.26-495.1,246.17-492.31z"/>
</g>
<g class="st0">
	<path class="st1" d="M515.55-175.89l-12.82,17.16l-16.34,21.86l-13.98,18.7c-1.48,1.99-3.82,3.16-6.3,3.16h-46.04
		c-6.47,0-10.18-7.37-6.3-12.56l15.12-20.23l8.17-10.93h0.01l12.82-17.16c2.09-2.78,2.09-6.61,0-9.4l-12.82-17.16h-0.01l-8.17-10.93
		l-15.12-20.23c-3.87-5.18-0.17-12.56,6.3-12.56h46.04c2.48,0,4.82,1.18,6.3,3.16l13.98,18.7l16.34,21.86l12.82,17.16
		C517.64-182.51,517.64-178.68,515.55-175.89z"/>
</g>
<g class="st0">
	<path class="st1" d="M836.17-388l-12.82,17.16l-16.34,21.86l-13.98,18.7c-1.48,1.99-3.82,3.16-6.3,3.16h-46.04
		c-6.47,0-10.18-7.37-6.3-12.56l15.12-20.23l8.17-10.93h0.01L770.5-388c2.09-2.78,2.09-6.61,0-9.4l-12.82-17.16h-0.01l-8.17-10.93
		l-15.12-20.23c-3.87-5.18-0.17-12.56,6.3-12.56h46.04c2.48,0,4.82,1.18,6.3,3.16l13.98,18.7l16.34,21.86l12.82,17.16
		C838.26-394.61,838.26-390.78,836.17-388z"/>
</g>
<g class="st0">
	<path class="st1" d="M185.07,70.28l-12.82,17.16l-16.34,21.86L141.94,128c-1.48,1.99-3.82,3.16-6.3,3.16H89.59
		c-6.47,0-10.18-7.37-6.3-12.56l15.12-20.23l8.17-10.93h0.01l12.82-17.16c2.09-2.78,2.09-6.61,0-9.4l-12.82-17.16h-0.01l-8.17-10.93
		L83.29,12.56C79.42,7.37,83.12,0,89.59,0h46.04c2.48,0,4.82,1.18,6.3,3.16l13.98,18.7l16.34,21.86l12.82,17.16
		C187.16,63.66,187.16,67.49,185.07,70.28z"/>
</g>
<g class="st0">
	<path class="st1" d="M315.56,568.23l-12.82,17.16l-16.34,21.86l-13.98,18.7c-1.48,1.99-3.82,3.16-6.3,3.16h-46.04
		c-6.47,0-10.18-7.37-6.3-12.56l15.12-20.23l8.17-10.93h0.01l12.82-17.16c2.09-2.78,2.09-6.61,0-9.4l-12.82-17.16h-0.01l-8.17-10.93
		l-15.12-20.23c-3.87-5.18-0.17-12.56,6.3-12.56h46.04c2.48,0,4.82,1.18,6.3,3.16l13.98,18.7l16.34,21.86l12.82,17.16
		C317.65,561.61,317.65,565.44,315.56,568.23z"/>
</g>
<g class="st0">
	<path class="st1" d="M463.09,289.87l-12.82,17.16l-16.34,21.86l-13.98,18.7c-1.48,1.99-3.82,3.16-6.3,3.16h-46.04
		c-6.47,0-10.18-7.37-6.3-12.56l15.12-20.23l8.17-10.93h0.01l12.82-17.16c2.09-2.78,2.09-6.61,0-9.4l-12.82-17.16h-0.01l-8.17-10.93
		l-15.12-20.23c-3.87-5.18-0.17-12.56,6.3-12.56h46.04c2.48,0,4.82,1.18,6.3,3.16l13.98,18.7l16.34,21.86l12.82,17.16
		C465.18,283.26,465.18,287.09,463.09,289.87z"/>
</g>
<g class="st0">
	<path class="st1" d="M888.63,517.16l-12.82,17.16l-16.34,21.86l-13.98,18.7c-1.48,1.99-3.82,3.16-6.3,3.16h-46.04
		c-6.47,0-10.18-7.37-6.3-12.56l15.12-20.23l8.17-10.93h0.01l12.82-17.16c2.09-2.78,2.09-6.61,0-9.4l-12.82-17.16h-0.01l-8.17-10.93
		l-15.12-20.23c-3.87-5.18-0.17-12.56,6.3-12.56h46.04c2.48,0,4.82,1.18,6.3,3.16l13.98,18.7l16.34,21.86l12.82,17.16
		C890.72,510.55,890.72,514.38,888.63,517.16z"/>
</g>
<g class="st0">
	<path class="st1" d="M731.25,158.71l-12.82,17.16l-16.34,21.86l-13.98,18.7c-1.48,1.99-3.82,3.16-6.3,3.16h-46.04
		c-6.47,0-10.18-7.37-6.3-12.56l15.12-20.23l8.17-10.93h0.01l12.82-17.16c2.09-2.78,2.09-6.61,0-9.4l-12.82-17.16h-0.01l-8.17-10.93
		l-15.12-20.23c-3.87-5.18-0.17-12.56,6.3-12.56h46.04c2.48,0,4.82,1.18,6.3,3.16l13.98,18.7l16.34,21.86l12.82,17.16
		C733.33,152.1,733.33,155.93,731.25,158.71z"/>
</g>
<path class="st2" d="M276.92-416.54c-2.5-2.4-5.05-15.76-8.24-17.12c2.38,5.27,0.65,6.66,0.64,12.45c0.03,3.28-0.35,6.56-1.14,9.74
	h-54.02v-42.16c0-15.93,12.91-28.85,28.85-28.85c0,0,0,0,0,0c1.45,0.03,2.88,0.24,4.28,0.63c9.45,2.55,16.83,9.95,19.35,19.4
	C270.75-447.39,277.3-422.33,276.92-416.54z"/>
<path class="st3" d="M217.33-364.67l0.03-32.86l-19.32,1.73l6.82,20.73l-3.19,52.1c-4.4,0.99-7.17,5.36-6.18,9.76
	s5.36,7.17,9.76,6.18c4.13-0.93,6.87-4.86,6.31-9.06L217.33-364.67z"/>
<polygon class="st3" points="255.34,-129.83 263.15,-129.83 266.86,-159.93 255.34,-159.93 "/>
<path class="st2" d="M252.7-133.68l12.34-0.74v5.29l11.73,8.1c1.5,1.04,1.88,3.09,0.84,4.59c-0.62,0.89-1.63,1.43-2.72,1.43H260.2
	l-2.53-5.23l-0.99,5.23h-5.54L252.7-133.68z"/>
<polygon class="st3" points="210.22,-129.83 218.02,-129.83 221.73,-159.93 210.21,-159.93 "/>
<path class="st2" d="M207.57-133.68l12.34-0.74v5.29l11.73,8.1c1.5,1.04,1.88,3.09,0.84,4.59c-0.62,0.89-1.63,1.43-2.72,1.43h-14.69
	l-2.53-5.23l-0.99,5.23h-5.54L207.57-133.68z"/>
<path class="st4" d="M248.39-433.02l-16.17,0.32l-11.41,12.05l-9.15,1.34c-8.53,1.25-15.02,8.29-15.58,16.9l0,0l1.58,8.71h9.51
	l5.5,32.3c-2.14,5.45-2.28,9.75,2.11,11.44l13.63,25.68l40.26-18.07c2.04-3.51,2.7-7.04,0.61-10.46l2.88-49.45h9.68l0,0
	c0-9.25-3.13-17.05-12.32-18.07c-3.65-0.4-7.32-0.6-10.99-0.63L248.39-433.02z"/>
<path class="st2" d="M268.68-342.36c0,0-39.31,6.97-53.89-7.61c0,0-1.48,2.51-3.71,6.68c-0.64,1.2-1.88,2.01-2.63,3.46
	c-0.68,1.32-2.43,2.94-3.17,4.44c-0.6,1.2,0.36,2.78-0.26,4.08c-7.47,15.66-16.19,37.76-14.32,52.35c1.21,9.41,3.7,31.3,6.32,54.82
	c0.2,1.84-1.46,4.2-1.25,6.05c0.19,1.75,2.26,2.98,2.45,4.73c0.13,1.16-1.31,2.35-1.18,3.51c0.14,1.27,1.85,2.52,1.99,3.79
	c3.59,32.47,6.89,62.78,6.89,62.78h18.39l3.47-69.23l-2.84-25.24l6.66-51.04l9.19,48.5l1.18,27.3l9.72,70.97h17v-68.71l1.27-3.57
	l-1.27-4.58l1.27-4.93l-1.27-5.37V-342.36z"/>
<path class="st3" d="M253.35-442.4c-6.09,8.09-17.58,9.71-25.66,3.62c-8.09-6.09-9.71-17.58-3.62-25.66s17.58-9.71,25.66-3.62
	c3.4,2.56,5.8,6.22,6.79,10.35c0.05,0.22,0.1,0.44,0.14,0.66C257.71-451.91,256.5-446.58,253.35-442.4z"/>
<path class="st2" d="M249.53-452.85c-0.39-1.95-1.37-3.73-2.82-5.1c0.14,1.87-0.12,3.75-0.76,5.51c-4.82,0.43-9.66-0.53-13.95-2.76
	c-3.23-2.19-7.35-2-12.14,0c0-9.8,7.94-17.75,17.75-17.75c0,0,0,0,0,0h3.17c9.8,0,17.75,7.95,17.75,17.75
	C255.61-454.16,252.6-453.37,249.53-452.85z"/>
<path class="st1" d="M527.84-506.03v115.65c0,5-4.02,9.07-9.02,9.12c-0.03,0-0.07,0-0.1,0h-13.46c-22.43,0-40.61-18.18-40.61-40.61
	c0,0,0,0,0,0v-84.16c0-5.04,4.08-9.12,9.12-9.12h5.45c-2.53,7.37,31.77,10.47,33.65,0h5.84
	C523.76-515.15,527.84-511.07,527.84-506.03L527.84-506.03z"/>
<path class="st5" d="M487.9-523.8c0-0.66,0.54-1.19,1.2-1.2h8.13c0.66,0,1.19,0.54,1.19,1.2c0,0.66-0.53,1.19-1.19,1.19h-8.13
	C488.44-522.61,487.9-523.14,487.9-523.8z"/>
<path class="st5" d="M521.51-366.59H470.1c-8.31-0.01-15.04-6.74-15.05-15.05v-80.84c-0.57-0.41-0.91-1.07-0.91-1.78v-8.13
	c0-0.71,0.34-1.37,0.91-1.78v-2.18c-0.57-0.41-0.91-1.07-0.91-1.78v-8.13c0-0.71,0.34-1.37,0.91-1.78v-3.94
	c-0.71-0.38-1.15-1.12-1.15-1.93v-8.13c0-0.81,0.44-1.55,1.15-1.93v-10.81c0.01-8.31,6.74-15.04,15.05-15.05h51.42
	c8.31,0.01,15.04,6.74,15.05,15.05v23.56c0.55,0.34,0.89,0.95,0.89,1.6v15.5c0,0.65-0.33,1.25-0.89,1.6v90.88
	C536.55-373.33,529.82-366.6,521.51-366.59z M470.1-527.82c-7.2,0.01-13.04,5.84-13.05,13.05v12.51l-0.96,0.04
	c-0.1,0-0.19,0.09-0.19,0.19v8.13c0,0.1,0.08,0.19,0.19,0.19l0.96,0.04v7.05l-0.76,0.19c-0.09,0.02-0.15,0.1-0.15,0.19v8.13
	c0,0.09,0.06,0.17,0.15,0.19l0.76,0.19v4.99l-0.76,0.19c-0.09,0.02-0.15,0.1-0.15,0.19v8.13c0,0.09,0.06,0.17,0.15,0.19l0.76,0.19
	v82.25c0.01,7.2,5.84,13.04,13.05,13.05h51.42c7.2-0.01,13.04-5.84,13.05-13.05v-92.6h0.89v-15.27h-0.89v-25.27
	c-0.01-7.2-5.84-13.04-13.05-13.05L470.1-527.82z"/>
<circle class="st5" cx="501.77" cy="-523.8" r="1.2"/>
<path class="st6" d="M241.68-292.19H107.89c-3.96-0.01-7.16-3.21-7.17-7.17v-65.19c0.01-3.96,3.21-7.16,7.17-7.17h133.79
	c3.96,0.01,7.16,3.21,7.17,7.17v65.19C248.83-295.4,245.63-292.2,241.68-292.19z"/>
<path class="st5" d="M241.68-292.19H107.89c-3.96-0.01-7.16-3.21-7.17-7.17v-65.19c0.01-3.96,3.21-7.16,7.17-7.17h133.79
	c3.96,0.01,7.16,3.21,7.17,7.17v65.19C248.83-295.4,245.63-292.2,241.68-292.19z M107.89-369.72c-2.85,0.01-5.16,2.32-5.17,5.17
	v65.19c0.01,2.85,2.32,5.16,5.17,5.17h133.78c2.85-0.01,5.16-2.32,5.17-5.17v-65.19c-0.01-2.85-2.32-5.16-5.17-5.17H107.89z"/>
<path class="st1" d="M181.95-301.82c-26.39,0-53.9-0.25-64.16-0.42c-2.81-0.06-5.06-2.35-5.07-5.16v-53.96
	c0-1.01,0.82-1.82,1.82-1.83h120.48c1.01,0,1.82,0.82,1.83,1.82v36.61c-0.05,12.43-10.03,22.54-22.46,22.75
	C204.82-301.87,193.49-301.82,181.95-301.82z"/>
<path class="st5" d="M227.87-328.11H119.01c-1.87-0.01-3.53-1.18-4.16-2.94l-12.32-34.57c-0.82-2.3,0.38-4.83,2.68-5.65
	c0.47-0.17,0.97-0.26,1.48-0.26l136.07-0.19c2.44,0,4.43,1.98,4.43,4.42c0,0.26-0.02,0.52-0.07,0.78l0.11,0.04l-0.39,0.91l0,0.01
	l-14.89,34.76C231.23-329.17,229.63-328.11,227.87-328.11z M242.76-369.71l-136.07,0.19c-1.34,0-2.42,1.09-2.42,2.43
	c0,0.28,0.05,0.55,0.14,0.81l12.32,34.56c0.35,0.96,1.26,1.61,2.28,1.61h108.86c0.97,0,1.84-0.58,2.22-1.47l14.9-34.76l0.73,0.31
	l-0.73-0.31c0.53-1.23-0.04-2.65-1.27-3.18C243.41-369.64,243.09-369.71,242.76-369.71z"/>
<path class="st5" d="M818.97-279.47l-22.77-22.48c-2.24-2.23-5.27-3.47-8.43-3.46h-0.08c-3.18,0.01-6.23,1.29-8.46,3.56
	c-10.58,10.71-10.8,27.87-0.49,38.84c0.24,0.26,0.49,0.51,0.74,0.76c1.38,1.38,2.91,2.6,4.56,3.65c4.5,2.91,9.75,4.45,15.11,4.43
	h0.17c7.43-0.03,14.54-3.02,19.75-8.32C823.73-267.21,823.68-274.81,818.97-279.47L818.97-279.47z M817.65-263.9
	c-8.71,8.78-22.4,10.23-32.76,3.48c-1.44-0.95-2.78-2.04-4.01-3.25c-10.22-10.09-10.32-26.55-0.23-36.77
	c1.86-1.9,4.4-2.97,7.06-2.97h0.06c2.63-0.01,5.15,1.03,7.02,2.88l22.77,22.49C821.49-274.16,821.53-267.83,817.65-263.9
	L817.65-263.9z"/>
<path class="st5" d="M744.26-353.25l-22.77-22.49c-2.24-2.22-5.27-3.47-8.43-3.46h-0.07c-3.19,0.01-6.24,1.3-8.47,3.57
	c-8.64,8.77-10.55,22.16-4.72,33l0.01,0.01c1.17,2.16,2.63,4.16,4.33,5.93c0.19,0.22,0.41,0.44,0.63,0.66
	c5.23,5.19,12.3,8.1,19.67,8.08h0.18c7.43-0.03,14.54-3.03,19.75-8.33C749.03-341,748.98-348.59,744.26-353.25
	C744.27-353.25,744.27-353.25,744.26-353.25L744.26-353.25z M742.94-337.68c-4.83,4.92-11.43,7.7-18.33,7.73h-0.17
	c-14.36-0.01-26-11.65-25.99-26.01c0-6.84,2.7-13.4,7.5-18.26c3.88-3.92,10.21-3.96,14.14-0.09l22.77,22.48
	C746.79-347.94,746.82-341.61,742.94-337.68z"/>
<path class="st1" d="M820.43-272.4l-25.1-24.79c-3.43-3.38-8.94-3.34-12.33,0.08c-8.55,8.63-8.48,22.56,0.16,31.11
	c8.63,8.55,22.56,8.48,31.11-0.16c0.01-0.01,0.03-0.03,0.04-0.04L820.43-272.4z"/>
<path class="st1" d="M745.72-346.19l-25.1-24.79c-3.43-3.38-8.94-3.34-12.33,0.08c-8.54,8.64-8.47,22.57,0.17,31.11
	s22.57,8.47,31.11-0.17c0.01-0.01,0.01-0.02,0.02-0.02L745.72-346.19z"/>
<path class="st5" d="M792.84-256.96l-0.6,1.58c-2.82-1.07-5.55-2.14-8.2-3.22c-46.88-19.13-69.26-41.52-84.23-84.02l-0.01-0.01
	c-0.71-2-1.4-4.05-2.07-6.14l1.58-0.51c0.53,2.01,1.3,3.95,2.3,5.78c0.82,2.33,1.66,4.6,2.53,6.81
	c14.07,35.87,34.82,56.37,74.6,73.68c2,0.87,4.05,1.73,6.15,2.59C787.33-258.83,790.02-257.66,792.84-256.96z"/>
<rect x="745.34" y="-339.91" transform="matrix(0.7027 -0.7115 0.7115 0.7027 437.7522 440.8051)" class="st5" width="2" height="73"/>
<path class="st3" d="M281.36-372.28l0.03-32.86l-19.32,1.73l6.82,20.73l-24.75,37.51c-4.4,0.99-7.17,5.36-6.18,9.76
	c0.99,4.4,5.36,7.17,9.76,6.18c4.13-0.93,6.87-4.86,6.31-9.06L281.36-372.28z"/>
<g>
	<path class="st7" d="M-158.17-242.54h-23.74c-7.03,0-12.72-5.69-12.72-12.7v-4.97l-24.44,32.7c-6.26,8.37-0.27,20.29,10.19,20.29
		h27.45h46.95c4.01,0,7.79-1.89,10.19-5.1l22.59-30.23H-158.17z"/>
	<path class="st1" d="M-101.69-313.2l-22.59,30.23c-2.4,3.21-6.18,5.1-10.19,5.1h-46.95v0l-13.2,17.66v4.97
		c0,7.01,5.69,12.7,12.72,12.7h23.74h56.48l26.4-35.33L-101.69-313.2z"/>
	<path class="st8" d="M-75.28-277.87l20.73-27.74c3.37-4.5,3.37-10.69,0-15.19l-20.73-27.74l-26.4,35.33L-75.28-277.87z"/>
	<path class="st9" d="M-160.69-305.61l-20.73,27.73h46.95c4.01,0,7.79-1.89,10.19-5.1l22.59-30.23l-22.59-30.23
		c-2.4-3.21-6.18-5.1-10.19-5.1h-46.95l20.73,27.73C-157.33-316.29-157.33-310.11-160.69-305.61"/>
	<path class="st10" d="M-101.69-383.86h-56.48h-23.74c-7.02,0-12.72,5.69-12.72,12.7v4.97l13.2,17.67h46.95
		c4.01,0,7.79,1.89,10.19,5.1l22.59,30.23l26.4-35.33L-101.69-383.86z"/>
	<path class="st11" d="M-124.28-414.09c-2.4-3.21-6.18-5.1-10.19-5.1h-46.95h-27.45c-10.47,0-16.45,11.92-10.19,20.3l24.44,32.7
		v-4.97c0-7.01,5.69-12.7,12.72-12.7h23.74h56.48L-124.28-414.09z"/>
</g>
<g>
	<path class="st6" d="M181.31-328.56l-1.64,2.2l-2.09,2.8l-1.79,2.4c-0.19,0.25-0.49,0.4-0.81,0.4h-5.9c-0.83,0-1.3-0.95-0.81-1.61
		l1.94-2.59l1.05-1.4h0l1.64-2.2c0.27-0.36,0.27-0.85,0-1.2l-1.64-2.2h0l-1.05-1.4l-1.94-2.59c-0.5-0.66-0.02-1.61,0.81-1.61h5.9
		c0.32,0,0.62,0.15,0.81,0.41l1.79,2.4l2.09,2.8l1.64,2.2C181.57-329.41,181.57-328.92,181.31-328.56z"/>
</g>
<g>
	<path class="st6" d="M505.77-402.51l-1.64,2.2l-2.09,2.8l-1.79,2.4c-0.19,0.25-0.49,0.4-0.81,0.4h-5.9c-0.83,0-1.3-0.95-0.81-1.61
		l1.94-2.59l1.05-1.4h0l1.64-2.2c0.27-0.36,0.27-0.85,0-1.2l-1.64-2.2h0l-1.05-1.4l-1.94-2.59c-0.5-0.66-0.02-1.61,0.81-1.61h5.9
		c0.32,0,0.62,0.15,0.81,0.41l1.79,2.4l2.09,2.8l1.64,2.2C506.04-403.36,506.04-402.87,505.77-402.51z"/>
</g>
</svg>
